<svg width="18" height="14" viewBox="0 0 18 14" fill="none" xmlns="http://www.w3.org/2000/svg">
<path d="M10.6406 13.9883C10.5365 13.9883 10.4453 13.9753 10.3672 13.9492C10.2891 13.9102 10.2174 13.8581 10.1523 13.793C10.1003 13.7279 10.0547 13.6562 10.0156 13.5781C9.98958 13.5 9.97656 13.4154 9.97656 13.3242C9.97656 13.2331 9.98958 13.1484 10.0156 13.0703C10.0547 12.9922 10.1003 12.9141 10.1523 12.8359L15.0352 7.93359H1.36328C1.27214 7.93359 1.1875 7.92057 1.10938 7.89453C1.03125 7.85547 0.959635 7.80339 0.894531 7.73828C0.816406 7.67318 0.757812 7.60156 0.71875 7.52344C0.679688 7.44531 0.660156 7.35417 0.660156 7.25C0.660156 7.15885 0.673177 7.07422 0.699219 6.99609C0.738281 6.91797 0.790365 6.84635 0.855469 6.78125C0.920573 6.71615 0.992188 6.67057 1.07031 6.64453C1.16146 6.60547 1.25911 6.58594 1.36328 6.58594H15.0352L10.1328 1.68359C10.0677 1.61849 10.0156 1.54688 9.97656 1.46875C9.95052 1.3776 9.9375 1.28646 9.9375 1.19531C9.9375 1.10417 9.95052 1.01953 9.97656 0.941406C10.0156 0.863281 10.0677 0.791667 10.1328 0.726562C10.1849 0.661458 10.25 0.615885 10.3281 0.589844C10.4062 0.550781 10.4974 0.53125 10.6016 0.53125C10.6927 0.518229 10.7773 0.53125 10.8555 0.570312C10.9336 0.596354 11.0052 0.648438 11.0703 0.726562L17.1445 6.80078C17.2227 6.86589 17.2747 6.9375 17.3008 7.01562C17.3398 7.09375 17.3594 7.17839 17.3594 7.26953C17.3594 7.3737 17.3398 7.46484 17.3008 7.54297C17.2747 7.62109 17.2292 7.69271 17.1641 7.75781L11.1094 13.793C11.0443 13.8581 10.9727 13.9102 10.8945 13.9492C10.8164 13.9753 10.7318 13.9883 10.6406 13.9883Z" fill="#013369"/>
</svg>
