<?xml version="1.0" encoding="utf-8"?>
<!-- Generator: Adobe Illustrator 19.1.0, SVG Export Plug-In . SVG Version: 6.00 Build 0)  -->
<svg version="1.1" id="Layer_1" xmlns="http://www.w3.org/2000/svg" xmlns:xlink="http://www.w3.org/1999/xlink" x="0px" y="0px"
	 viewBox="0 0 40 40" style="enable-background:new 0 0 40 40; max-width: 20px; max-height: 20px;" xml:space="preserve">
	 <style type="text/css">
	.st0{fill:#ffffff;}
</style>
<g>
	<path class="st0" d="M4,0.7c0.4,0.4,0.6,1,0.6,1.6c0,0.7-0.2,1.2-0.6,1.6C3.6,4.4,3.1,4.6,2.4,4.6H2.2c-0.6,0-1.1-0.2-1.5-0.7S0,2.9,0,2.3
		c0-0.7,0.2-1.2,0.7-1.6S1.6,0,2.2,0h0.2C3.1,0,3.6,0.2,4,0.7z M4,24.2c0.4,0.5,0.6,1,0.6,1.6c0,0.7-0.2,1.2-0.6,1.6
		c-0.4,0.4-0.9,0.7-1.6,0.7H2.2c-0.6,0-1.1-0.2-1.5-0.7S0,26.5,0,25.9c0-0.6,0.2-1.2,0.7-1.6s1-0.7,1.5-0.7h0.2
		C3.1,23.6,3.6,23.8,4,24.2z M10.4,4C9.9,4,9.5,3.9,9.1,3.5S8.6,2.8,8.6,2.3S8.8,1.4,9.1,1s0.8-0.5,1.2-0.5h27.9
		c0.5,0,0.9,0.2,1.2,0.5C39.8,1.4,40,1.8,40,2.3s-0.2,0.9-0.5,1.2C39.1,3.9,38.7,4,38.2,4H10.4z M39.5,24.6c0.3,0.3,0.5,0.8,0.5,1.2
		s-0.2,0.9-0.5,1.2c-0.3,0.3-0.8,0.5-1.2,0.5H10.4c-0.5,0-0.9-0.2-1.2-0.5s-0.5-0.8-0.5-1.2s0.2-0.9,0.5-1.2
		c0.3-0.3,0.8-0.5,1.2-0.5h27.9C38.7,24.1,39.1,24.3,39.5,24.6z M11.3,11.8c0.6,0,1.1,0.2,1.5,0.7c0.4,0.5,0.7,1,0.7,1.7
		c0,0.6-0.2,1.2-0.7,1.6c-0.4,0.5-1,0.7-1.5,0.7h-0.2c-0.6,0-1.1-0.2-1.6-0.7c-0.4-0.5-0.6-1-0.6-1.6c0-0.7,0.2-1.2,0.6-1.7
		c0.4-0.5,0.9-0.7,1.6-0.7H11.3z M12.9,36c0.4,0.5,0.7,1,0.7,1.7c0,0.6-0.2,1.2-0.7,1.6c-0.4,0.5-1,0.7-1.5,0.7h-0.2
		c-0.6,0-1.1-0.2-1.6-0.7c-0.4-0.5-0.6-1-0.6-1.6c0-0.7,0.2-1.2,0.6-1.7c0.4-0.5,0.9-0.7,1.6-0.7h0.2C11.9,35.3,12.4,35.5,12.9,36z
		 M39.5,12.9c0.3,0.3,0.5,0.8,0.5,1.2c0,0.5-0.2,0.9-0.5,1.2c-0.3,0.4-0.8,0.5-1.2,0.5h-19c-0.5,0-0.9-0.2-1.2-0.5
		c-0.3-0.4-0.5-0.8-0.5-1.2c0-0.5,0.2-0.9,0.5-1.2s0.8-0.5,1.2-0.5h19C38.7,12.3,39.1,12.5,39.5,12.9z M39.5,36.4
		c0.3,0.3,0.5,0.8,0.5,1.2s-0.2,0.9-0.5,1.2c-0.3,0.3-0.8,0.5-1.2,0.5h-19c-0.5,0-0.9-0.2-1.2-0.5c-0.3-0.3-0.5-0.8-0.5-1.2
		s0.2-0.9,0.5-1.2c0.3-0.3,0.8-0.5,1.2-0.5h19C38.7,35.9,39.1,36.1,39.5,36.4z"/>
</g>
</svg>
