<?xml version="1.0" encoding="UTF-8"?>
<svg id="anno" xmlns="http://www.w3.org/2000/svg" width="77.17mm" height="46.94mm" viewBox="0 0 218.75 133.06">
  <defs>
    <style>
      .cls-1 {
        fill: none;
        stroke: #ec008c;
        stroke-miterlimit: 10;
      }

      .cls-2 {
        fill: #ec008c;
        stroke-width: 0px;
      }
    </style>
  </defs>
  <g>
    <path class="cls-2" d="M1.27,73.19c.46.47,1.08.72,1.78.72.79,0,1.24-.45,1.24-1,0-.61-.44-1.02-1.2-1.02-.55,0-1,.17-1.4.55l-.99-.27v-3.81h4.58v1.22h-3.19v1.67c.35-.31.89-.55,1.5-.55,1.13,0,2.14.8,2.14,2.15s-1.06,2.3-2.67,2.3c-1.16,0-2-.38-2.57-1l.78-.96Z"/>
    <path class="cls-2" d="M9.18,68.27c1.9,0,2.76,1.72,2.76,3.44s-.86,3.45-2.76,3.45-2.76-1.73-2.76-3.45.85-3.44,2.76-3.44ZM9.18,69.53c-.96,0-1.32.95-1.32,2.18s.36,2.19,1.32,2.19,1.31-.96,1.31-2.19-.36-2.18-1.31-2.18Z"/>
  </g>
  <g>
    <path class="cls-2" d="M61.68,8.33v-1.38h-3.19v-1.12l2.65-4.17h1.96v4.04h.86v1.25h-.86v1.38h-1.42ZM61.68,2.92l-1.8,2.78h1.8v-2.78Z"/>
    <path class="cls-2" d="M67.31,1.56c1.9,0,2.76,1.72,2.76,3.44s-.86,3.45-2.76,3.45-2.76-1.73-2.76-3.45.85-3.44,2.76-3.44ZM67.31,2.82c-.96,0-1.32.95-1.32,2.18s.36,2.19,1.32,2.19,1.31-.96,1.31-2.19-.36-2.18-1.31-2.18Z"/>
  </g>
  <g>
    <path class="cls-2" d="M145.98,6.45c.46.48,1.19.76,1.84.76.81,0,1.26-.35,1.26-.86,0-.54-.41-.79-1.34-.79-.28,0-.73,0-.83,0v-1.24c.12,0,.57,0,.83,0,.74,0,1.23-.24,1.23-.74,0-.53-.54-.8-1.24-.8-.65,0-1.23.25-1.7.7l-.7-.88c.54-.61,1.38-1.06,2.55-1.06,1.56,0,2.52.7,2.52,1.81,0,.84-.72,1.39-1.46,1.52.68.07,1.56.6,1.56,1.6,0,1.15-1.03,1.96-2.63,1.96-1.23,0-2.14-.47-2.63-1.07l.74-.93Z"/>
    <path class="cls-2" d="M154.35,8.33v-1.38h-3.19v-1.12l2.65-4.17h1.96v4.04h.86v1.25h-.86v1.38h-1.42ZM154.35,2.92l-1.8,2.78h1.8v-2.78Z"/>
  </g>
  <g>
    <path class="cls-2" d="M203.51,8.33V3.49l-1.1,1.13-.81-.85,2.1-2.11h1.24v6.67h-1.43Z"/>
    <path class="cls-2" d="M208.7,1.56c1.9,0,2.76,1.72,2.76,3.44s-.86,3.45-2.76,3.45-2.76-1.73-2.76-3.45.85-3.44,2.76-3.44ZM208.7,2.82c-.96,0-1.32.95-1.32,2.18s.36,2.19,1.32,2.19,1.31-.96,1.31-2.19-.36-2.18-1.31-2.18Z"/>
  </g>
  <line class="cls-1" x1="112.03" y1="11.87" x2="112.03" y2="132.97"/>
  <rect class="cls-1" x="15.48" y="11.87" width="202.77" height="120.7"/>
  <line class="cls-1" x1="194.11" y1="11.87" x2="194.11" y2="132.97"/>
</svg>