<svg width="48" height="48" viewBox="0 0 48 48" fill="none" xmlns="http://www.w3.org/2000/svg">
<path d="M43.8201 21.0302C43.7901 20.8002 43.7501 20.5902 43.7101 20.3602C43.6401 19.9202 43.5801 19.4702 43.4801 19.0502C43.4201 18.8002 43.3501 18.5502 43.2801 18.3002C42.6401 15.9702 41.6001 13.5802 40.1801 11.6102C39.9701 11.3202 39.7501 11.0502 39.5301 10.7702C39.3601 10.5702 39.2001 10.3702 39.0201 10.1702C38.7801 9.90023 38.5201 9.65023 38.2601 9.40023C38.0801 9.22023 37.9001 9.04023 37.7101 8.88023C37.4201 8.63023 37.1101 8.39023 36.8101 8.15023C36.6301 8.01023 36.4501 7.86023 36.2601 7.72023C35.8801 7.45023 35.4701 7.20023 35.0601 6.96023C34.9301 6.88023 34.8101 6.79023 34.6701 6.72023C34.1201 6.41023 33.5501 6.13023 32.9701 5.87023C32.8001 5.80023 32.6301 5.74023 32.4601 5.67023C32.0301 5.49023 31.6001 5.32023 31.1501 5.17023C30.9101 5.09023 30.6701 5.03023 30.4301 4.96023C30.0401 4.84023 29.6401 4.73023 29.2401 4.63023C28.9701 4.57023 28.7001 4.52023 28.4201 4.46023C28.0301 4.38023 27.6301 4.31023 27.2301 4.25023C26.9401 4.21023 26.6501 4.18023 26.3601 4.15023C25.9601 4.11023 25.5601 4.07023 25.1501 4.05023C24.8501 4.03023 24.5501 4.02023 24.2401 4.01023C24.0501 4.01023 23.8701 3.99023 23.6801 3.99023C23.4101 3.99023 23.1401 4.01023 22.8701 4.02023C22.6601 4.02023 22.4501 4.02023 22.2401 4.04023C21.5501 4.08023 20.8601 4.13023 20.1601 4.22023C11.0001 5.43023 3.8001 12.9102 4.0701 22.1402C4.1401 24.7502 4.7701 27.1002 5.7801 29.1802C6.9301 32.3202 8.9601 34.9002 11.6101 36.8202C11.6101 36.8202 9.2601 41.7202 9.2601 41.7302C9.2101 41.8302 9.2101 41.9202 9.2201 42.0102C9.2201 42.0402 9.2401 42.0702 9.2501 42.0902C9.2501 42.1102 9.2601 42.1302 9.2501 42.1502C9.2501 42.1502 9.9101 43.7102 9.9201 43.7002C9.9401 43.7302 9.9501 43.7602 9.9701 43.7902C9.9901 43.8202 10.0201 43.8402 10.0401 43.8602C10.0801 43.9002 10.1301 43.9302 10.1801 43.9502C10.2101 43.9602 10.2501 43.9702 10.2801 43.9802C10.3101 43.9802 10.3301 44.0002 10.3601 44.0002C10.4101 44.0002 10.4701 44.0002 10.5201 43.9702L21.3201 40.5002C22.3001 40.6202 23.2901 40.7002 24.3201 40.7002C35.1501 40.7002 43.9301 33.9602 43.9301 23.1202C43.9301 22.4002 43.8901 21.7102 43.8101 21.0302H43.8201ZM20.3601 5.79023C21.4701 5.64023 22.5901 5.57023 23.6801 5.57023C34.3001 5.57023 41.7201 12.1502 41.7201 21.5702C41.7201 30.9902 34.3001 37.5702 23.6801 37.5702C22.8301 37.5702 21.9101 37.5102 20.8701 37.3802C20.8101 37.3802 20.7501 37.3702 20.6801 37.3702C20.5201 37.3702 20.3501 37.4002 20.2001 37.4502L11.7401 40.1702L13.4201 36.6702C13.7701 35.9502 13.5101 35.0802 12.8301 34.6602C8.3501 31.8702 5.8001 27.4102 5.6401 22.0902C5.4101 13.9302 11.7301 6.92023 20.3601 5.79023Z" fill="black"/>
<path d="M36.25 7.73047C36.44 7.86047 36.62 8.01047 36.8 8.16047C36.62 8.02047 36.44 7.87047 36.25 7.73047Z" fill="#EBA34E"/>
<path d="M37.71 8.88965C37.9 9.05965 38.08 9.23965 38.26 9.40965C38.08 9.22965 37.9 9.04965 37.71 8.88965Z" fill="#EBA34E"/>
<path d="M34.6699 6.71973C34.7999 6.79973 34.9299 6.87973 35.0599 6.95973C34.9299 6.87973 34.8099 6.78973 34.6699 6.71973Z" fill="#EBA34E"/>
<path d="M32.45 5.66992C32.62 5.73992 32.7999 5.79992 32.9599 5.86992C32.7899 5.79992 32.62 5.73992 32.45 5.66992Z" fill="#EBA34E"/>
<path d="M39.02 10.1797C39.2 10.3697 39.36 10.5797 39.53 10.7797C39.36 10.5797 39.2 10.3797 39.02 10.1797Z" fill="#EBA34E"/>
<path d="M30.4199 4.95996C30.6599 5.02996 30.9099 5.08996 31.1399 5.16996C30.8999 5.08996 30.6599 5.02996 30.4199 4.95996Z" fill="#EBA34E"/>
<path d="M9.23996 42.0898C9.23996 42.0898 9.20996 42.0398 9.20996 42.0098C9.20996 42.0398 9.22996 42.0698 9.23996 42.0898Z" fill="#EBA34E"/>
<path d="M22.24 4.05027C22.45 4.04027 22.66 4.04027 22.87 4.03027C22.66 4.03027 22.45 4.03027 22.24 4.05027Z" fill="#EBA34E"/>
<path d="M24.24 4.01953C24.54 4.01953 24.85 4.03953 25.15 4.05953C24.85 4.03953 24.55 4.02953 24.24 4.01953Z" fill="#EBA34E"/>
<path d="M28.4099 4.46973C28.6799 4.51973 28.9599 4.56973 29.2299 4.63973C28.9599 4.57973 28.6899 4.52973 28.4099 4.46973Z" fill="#EBA34E"/>
<path d="M5.64009 22.0903C5.79009 27.4103 8.34009 31.8703 12.8301 34.6603C13.5101 35.0803 13.7601 35.9503 13.4201 36.6703L11.7401 40.1703L20.2001 37.4503C20.3601 37.4003 20.5201 37.3703 20.6801 37.3703C20.7401 37.3703 20.8101 37.3703 20.8701 37.3803C21.9101 37.5003 22.8301 37.5703 23.6801 37.5703C34.3001 37.5703 41.7201 30.9903 41.7201 21.5703C41.7201 12.1503 34.2901 5.57031 23.6701 5.57031C22.5801 5.57031 21.4601 5.64031 20.3501 5.79031C11.7301 6.92031 5.40009 13.9303 5.63009 22.0903H5.64009ZM25.3101 32.5603C24.9101 32.9903 24.3401 33.2103 23.6101 33.2103C22.8801 33.2103 22.3101 32.9903 21.9001 32.5603C21.5001 32.1203 21.3001 31.5903 21.3001 30.9903C21.3001 30.3903 21.5001 29.8803 21.8901 29.4603C22.3001 29.0203 22.8801 28.7903 23.6001 28.7903C24.3201 28.7903 24.9001 29.0203 25.3001 29.4603C25.7001 29.8803 25.9001 30.4003 25.9001 30.9903C25.9001 31.5803 25.7001 32.1203 25.3001 32.5503L25.3101 32.5603ZM29.3501 19.7603C28.6101 20.8103 27.8501 21.6803 27.0801 22.3503C26.2901 23.0703 25.7901 23.7203 25.6001 24.2803C25.4101 24.8703 25.3201 25.5003 25.3201 26.1503V26.3003C25.3201 26.5503 25.1201 26.7503 24.8701 26.7503H22.0901C21.8401 26.7503 21.6401 26.5503 21.6401 26.3003V26.1503C21.6401 24.8303 21.8101 23.8203 22.1601 23.0303C22.1601 23.0303 22.1601 23.0203 22.1601 23.0103C22.5201 22.2203 23.1901 21.3603 24.2001 20.3803C25.0101 19.5903 25.6701 18.8603 26.1701 18.2003C26.6201 17.6003 26.8501 16.8403 26.8501 15.9403C26.8501 15.0403 26.6201 14.3903 26.1601 13.9003C25.7001 13.4103 24.9801 13.1703 24.0101 13.1703C23.0401 13.1703 22.2601 13.4003 21.7601 13.8503C21.2801 14.2903 21.0401 14.9103 21.0401 15.7403V16.0403C21.0401 16.2903 20.8401 16.4903 20.5901 16.4903H17.8501C17.6001 16.4903 17.4001 16.2903 17.4001 16.0403V15.7403C17.4001 13.9703 18.0101 12.5303 19.2101 11.4703C20.3901 10.4203 22.0101 9.89031 24.0101 9.89031C26.0101 9.89031 27.6301 10.4503 28.7801 11.5603C29.9401 12.6603 30.5301 14.1303 30.5301 15.9403C30.5301 17.3803 30.1301 18.6603 29.3401 19.7603H29.3501Z" fill="#EBA34E"/>
<path d="M23.6101 28.79C22.8801 28.79 22.3101 29.01 21.9001 29.46C21.5101 29.88 21.3101 30.4 21.3101 30.99C21.3101 31.58 21.5101 32.12 21.9101 32.56C22.3201 32.99 22.8901 33.21 23.6201 33.21C24.3501 33.21 24.9201 32.99 25.3201 32.56C25.7201 32.13 25.9201 31.6 25.9201 31C25.9201 30.4 25.7201 29.89 25.3201 29.47C24.9201 29.03 24.3501 28.8 23.6201 28.8L23.6101 28.79Z" fill="black"/>
<path d="M24.0199 9.88965C22.0099 9.88965 20.3999 10.4196 19.2199 11.4696C18.0199 12.5296 17.4099 13.9696 17.4099 15.7396V16.0396C17.4099 16.2896 17.6099 16.4896 17.8599 16.4896H20.5999C20.8499 16.4896 21.0499 16.2896 21.0499 16.0396V15.7396C21.0499 14.9096 21.2799 14.2896 21.7699 13.8496C22.2699 13.3996 23.0199 13.1696 24.0199 13.1696C25.0199 13.1696 25.7099 13.4096 26.1699 13.8996C26.6399 14.3896 26.8599 15.0496 26.8599 15.9396C26.8599 16.8296 26.6299 17.5996 26.1799 18.1996C25.6799 18.8596 25.0099 19.5896 24.2099 20.3796C23.1999 21.3696 22.5299 22.2296 22.1699 23.0096C22.1699 23.0096 22.1699 23.0196 22.1699 23.0296C21.8199 23.8096 21.6499 24.8296 21.6499 26.1496V26.2996C21.6499 26.5496 21.8499 26.7496 22.0999 26.7496H24.8799C25.1299 26.7496 25.3299 26.5496 25.3299 26.2996V26.1496C25.3299 25.4996 25.4299 24.8696 25.6099 24.2796C25.7999 23.7196 26.2999 23.0696 27.0899 22.3496C27.8499 21.6796 28.6199 20.8096 29.3599 19.7596C30.1499 18.6596 30.5499 17.3696 30.5499 15.9396C30.5499 14.1296 29.9599 12.6596 28.7999 11.5596C27.6499 10.4496 26.0399 9.88965 24.0299 9.88965H24.0199Z" fill="black"/>
</svg>
