<svg width="44" height="51" viewBox="0 0 44 51" fill="none" xmlns="http://www.w3.org/2000/svg">
<g filter="url(#filter0_d_13_7444)">
<mask id="path-1-outside-1_13_7444" maskUnits="userSpaceOnUse" x="-1" y="0" width="45" height="50" fill="black">
<rect fill="white" x="-1" width="45" height="50"/>
<path d="M24.7412 1C34.4612 1.00019 42.3406 8.8797 42.3409 18.5996C42.3409 25.2865 38.2325 31.1014 32.504 34.08C32.1625 34.2576 31.9405 34.6063 31.9405 34.9912V48C31.9404 48.5522 31.4927 49 30.9405 49H18.5411C17.9888 49 17.5411 48.5522 17.5411 48V40.3994C17.5411 39.8471 17.0933 39.3994 16.5411 39.3994H10.3409C8.13173 39.3994 6.34086 37.6085 6.34086 35.3994V30.7998C6.34086 30.2475 5.89314 29.7998 5.34086 29.7998H2.00172C1.19614 29.7998 0.721212 28.896 1.17818 28.2326L6.09867 21.0889L6.12074 21.0614C6.26321 20.8839 6.34086 20.6631 6.34086 20.4354V18.5996C6.34109 8.87958 15.0212 1 24.7412 1Z"/>
</mask>
<path d="M24.7412 1C34.4612 1.00019 42.3406 8.8797 42.3409 18.5996C42.3409 25.2865 38.2325 31.1014 32.504 34.08C32.1625 34.2576 31.9405 34.6063 31.9405 34.9912V48C31.9404 48.5522 31.4927 49 30.9405 49H18.5411C17.9888 49 17.5411 48.5522 17.5411 48V40.3994C17.5411 39.8471 17.0933 39.3994 16.5411 39.3994H10.3409C8.13173 39.3994 6.34086 37.6085 6.34086 35.3994V30.7998C6.34086 30.2475 5.89314 29.7998 5.34086 29.7998H2.00172C1.19614 29.7998 0.721212 28.896 1.17818 28.2326L6.09867 21.0889L6.12074 21.0614C6.26321 20.8839 6.34086 20.6631 6.34086 20.4354V18.5996C6.34109 8.87958 15.0212 1 24.7412 1Z" fill="#7966EC"/>
<path d="M24.7412 1L24.7413 0H24.7412V1ZM42.3409 18.5996L43.3409 18.5996L43.3409 18.5996L42.3409 18.5996ZM31.9405 48L32.9405 48.0001V48H31.9405ZM17.5411 48L16.5411 48L16.5411 48.0001L17.5411 48ZM10.3409 39.3994L10.3409 40.3994H10.3409V39.3994ZM6.09867 21.0889L5.31879 20.4629C5.30352 20.482 5.28896 20.5015 5.27512 20.5216L6.09867 21.0889ZM6.34086 18.5996L5.34086 18.5996V18.5996H6.34086ZM1.17818 28.2326L0.354629 27.6653L1.17818 28.2326ZM32.504 34.08L32.0427 33.1927L32.504 34.08ZM24.7412 1L24.7412 2C33.9089 2.00018 41.3407 9.43198 41.3409 18.5996L42.3409 18.5996L43.3409 18.5996C43.3406 8.32741 35.0135 0.00020524 24.7413 1.99603e-10L24.7412 1ZM42.3409 18.5996H41.3409C41.3409 24.8617 37.4887 30.361 32.0427 33.1927L32.504 34.08L32.9654 34.9672C38.9762 31.8417 43.3409 25.7113 43.3409 18.5996H42.3409ZM31.9405 34.9912H30.9405V48H31.9405H32.9405V34.9912H31.9405ZM31.9405 48L30.9405 47.9999L30.9405 48V49V50C32.0451 50 32.9403 49.1044 32.9405 48.0001L31.9405 48ZM30.9405 49V48H18.5411V49V50H30.9405V49ZM18.5411 49V48L18.5411 47.9999L17.5411 48L16.5411 48.0001C16.5412 49.1044 17.4364 50 18.5411 50V49ZM17.5411 48H18.5411V40.3994H17.5411H16.5411V48H17.5411ZM16.5411 39.3994V38.3994H10.3409V39.3994V40.3994H16.5411V39.3994ZM10.3409 39.3994L10.3409 38.3994C8.68401 38.3994 7.34086 37.0563 7.34086 35.3994H6.34086H5.34086C5.34086 38.1608 7.57945 40.3994 10.3409 40.3994L10.3409 39.3994ZM6.34086 35.3994H7.34086V30.7998H6.34086H5.34086V35.3994H6.34086ZM5.34086 29.7998V28.7998H2.00172V29.7998V30.7998H5.34086V29.7998ZM1.17818 28.2326L2.00172 28.7998L6.92222 21.6561L6.09867 21.0889L5.27512 20.5216L0.354629 27.6653L1.17818 28.2326ZM6.09867 21.0889L6.87855 21.7148L6.90062 21.6873L6.12074 21.0614L5.34086 20.4354L5.31879 20.4629L6.09867 21.0889ZM6.34086 20.4354H7.34086V18.5996H6.34086H5.34086V20.4354H6.34086ZM6.34086 18.5996L7.34086 18.5996C7.34108 9.4884 15.5152 2 24.7412 2V1V0C14.5272 0 5.34111 8.27075 5.34086 18.5996L6.34086 18.5996ZM6.12074 21.0614L6.90062 21.6873C7.18556 21.3323 7.34086 20.8907 7.34086 20.4354H6.34086H5.34086L5.34086 20.4354L6.12074 21.0614ZM2.00172 29.7998V28.7998L2.00172 28.7998L1.17818 28.2326L0.354629 27.6653C-0.559298 28.9922 0.390566 30.7998 2.00172 30.7998V29.7998ZM6.34086 30.7998H7.34086C7.34086 29.6952 6.44543 28.7998 5.34086 28.7998V29.7998V30.7998L5.34086 30.7998H6.34086ZM17.5411 40.3994H18.5411C18.5411 39.2948 17.6456 38.3994 16.5411 38.3994V39.3994V40.3994L16.5411 40.3994H17.5411ZM32.504 34.08L32.0427 33.1927C31.3868 33.5338 30.9405 34.2149 30.9405 34.9912H31.9405H32.9405C32.9405 34.9912 32.9405 34.9912 32.9405 34.9913C32.9405 34.9914 32.9404 34.9915 32.9404 34.9916C32.9404 34.9918 32.9404 34.9918 32.9404 34.9916C32.9405 34.9912 32.9411 34.9896 32.9427 34.9869C32.9463 34.9812 32.9535 34.9734 32.9654 34.9672L32.504 34.08Z" fill="black" mask="url(#path-1-outside-1_13_7444)"/>
</g>
<mask id="path-3-outside-2_13_7444" maskUnits="userSpaceOnUse" x="13.1887" y="6.22821" width="23" height="23" fill="black">
<rect fill="white" x="13.1887" y="6.22821" width="23" height="23"/>
<path d="M27.1789 11.613C27.9672 11.8917 28.687 12.3137 29.3098 12.8464L32.5656 10.9675L34.8137 14.86L31.5588 16.739C31.6326 17.1384 31.674 17.5496 31.674 17.9704C31.674 18.391 31.6325 18.8025 31.5588 19.2018L34.8137 21.0807L32.5656 24.9733L29.3108 23.0944C28.6878 23.6274 27.9675 24.049 27.1789 24.3278V28.0837H22.6838V24.3278C21.895 24.0489 21.1741 23.6276 20.551 23.0944L17.2961 24.9743L15.049 21.0807L18.302 19.2018C18.2283 18.8026 18.1887 18.3909 18.1887 17.9704C18.1887 17.5497 18.2292 17.1383 18.3029 16.739L15.049 14.86L17.2961 10.9675L20.552 12.8464C21.1749 12.3135 21.8953 11.8917 22.6838 11.613V7.85712H27.1789V11.613ZM24.9309 13.9255C22.697 13.9257 20.8861 15.7365 20.886 17.9704C20.886 20.2045 22.6968 22.0161 24.9309 22.0163C27.1651 22.0163 28.9768 20.2046 28.9768 17.9704C28.9766 15.7363 27.165 13.9255 24.9309 13.9255Z"/>
</mask>
<path d="M27.1789 11.613C27.9672 11.8917 28.687 12.3137 29.3098 12.8464L32.5656 10.9675L34.8137 14.86L31.5588 16.739C31.6326 17.1384 31.674 17.5496 31.674 17.9704C31.674 18.391 31.6325 18.8025 31.5588 19.2018L34.8137 21.0807L32.5656 24.9733L29.3108 23.0944C28.6878 23.6274 27.9675 24.049 27.1789 24.3278V28.0837H22.6838V24.3278C21.895 24.0489 21.1741 23.6276 20.551 23.0944L17.2961 24.9743L15.049 21.0807L18.302 19.2018C18.2283 18.8026 18.1887 18.3909 18.1887 17.9704C18.1887 17.5497 18.2292 17.1383 18.3029 16.739L15.049 14.86L17.2961 10.9675L20.552 12.8464C21.1749 12.3135 21.8953 11.8917 22.6838 11.613V7.85712H27.1789V11.613ZM24.9309 13.9255C22.697 13.9257 20.8861 15.7365 20.886 17.9704C20.886 20.2045 22.6968 22.0161 24.9309 22.0163C27.1651 22.0163 28.9768 20.2046 28.9768 17.9704C28.9766 15.7363 27.165 13.9255 24.9309 13.9255Z" fill="#1F8CF1"/>
<path d="M27.1789 11.613H26.1789C26.1789 12.0368 26.4461 12.4145 26.8456 12.5558L27.1789 11.613ZM29.3098 12.8464L28.6598 13.6063C28.9819 13.8818 29.4426 13.9243 29.8096 13.7125L29.3098 12.8464ZM32.5656 10.9675L33.4316 10.4674C33.1555 9.98921 32.5441 9.82536 32.0658 10.1013L32.5656 10.9675ZM34.8137 14.86L35.3136 15.7261C35.5434 15.5935 35.711 15.3751 35.7796 15.1188C35.8483 14.8626 35.8123 14.5896 35.6797 14.3599L34.8137 14.86ZM31.5588 16.739L31.0589 15.8729C30.6922 16.0846 30.4985 16.5042 30.5754 16.9206L31.5588 16.739ZM31.674 17.9704L32.674 17.9704L32.674 17.9703L31.674 17.9704ZM31.5588 19.2018L30.5754 19.0203C30.4986 19.4367 30.6922 19.8563 31.0589 20.0679L31.5588 19.2018ZM34.8137 21.0807L35.6797 21.5809C35.8123 21.3512 35.8483 21.0782 35.7796 20.822C35.711 20.5657 35.5434 20.3473 35.3136 20.2147L34.8137 21.0807ZM32.5656 24.9733L32.0657 25.8394C32.5439 26.1155 33.1554 25.9516 33.4316 25.4734L32.5656 24.9733ZM29.3108 23.0944L29.8107 22.2284C29.4436 22.0164 28.9827 22.059 28.6607 22.3346L29.3108 23.0944ZM27.1789 24.3278L26.8456 23.385C26.446 23.5263 26.1789 23.904 26.1789 24.3278H27.1789ZM27.1789 28.0837V29.0837C27.7312 29.0837 28.1789 28.636 28.1789 28.0837H27.1789ZM22.6838 28.0837H21.6838C21.6838 28.636 22.1315 29.0837 22.6838 29.0837V28.0837ZM22.6838 24.3278H23.6838C23.6838 23.904 23.4167 23.5263 23.0171 23.385L22.6838 24.3278ZM20.551 23.0944L21.2012 22.3346C20.879 22.059 20.418 22.0164 20.0509 22.2285L20.551 23.0944ZM17.2961 24.9743L16.43 25.4742C16.5626 25.7039 16.7811 25.8716 17.0373 25.9402C17.2935 26.0089 17.5665 25.9729 17.7962 25.8403L17.2961 24.9743ZM15.049 21.0807L14.5489 20.2148C14.0708 20.491 13.9069 21.1024 14.1829 21.5806L15.049 21.0807ZM18.302 19.2018L18.8021 20.0678C19.1686 19.8561 19.3622 19.4366 19.2854 19.0204L18.302 19.2018ZM18.1887 17.9704L17.1887 17.9703V17.9704H18.1887ZM18.3029 16.739L19.2863 16.9205C19.3632 16.5042 19.1696 16.0846 18.803 15.873L18.3029 16.739ZM15.049 14.86L14.183 14.3601C13.9069 14.8384 14.0708 15.4499 14.549 15.726L15.049 14.86ZM17.2961 10.9675L17.7959 10.1013C17.3176 9.82532 16.7061 9.98926 16.4301 10.4675L17.2961 10.9675ZM20.552 12.8464L20.0521 13.7125C20.4192 13.9243 20.8799 13.8818 21.202 13.6063L20.552 12.8464ZM22.6838 11.613L23.0171 12.5558C23.4167 12.4146 23.6838 12.0368 23.6838 11.613H22.6838ZM22.6838 7.85712V6.85712C22.1315 6.85712 21.6838 7.30483 21.6838 7.85712H22.6838ZM27.1789 7.85712H28.1789C28.1789 7.30483 27.7312 6.85712 27.1789 6.85712V7.85712ZM24.9309 13.9255L24.9309 12.9255L24.9308 12.9255L24.9309 13.9255ZM20.886 17.9704L19.886 17.9703V17.9704H20.886ZM24.9309 22.0163L24.9308 23.0163H24.9309V22.0163ZM28.9768 17.9704L29.9768 17.9704L29.9768 17.9703L28.9768 17.9704ZM27.1789 11.613L26.8456 12.5558C27.5149 12.7924 28.1279 13.1514 28.6598 13.6063L29.3098 12.8464L29.9598 12.0864C29.2461 11.4761 28.4195 10.9909 27.5122 10.6702L27.1789 11.613ZM29.3098 12.8464L29.8096 13.7125L33.0655 11.8336L32.5656 10.9675L32.0658 10.1013L28.81 11.9802L29.3098 12.8464ZM32.5656 10.9675L31.6997 11.4676L33.9477 15.3602L34.8137 14.86L35.6797 14.3599L33.4316 10.4674L32.5656 10.9675ZM34.8137 14.86L34.3138 13.994L31.0589 15.8729L31.5588 16.739L32.0587 17.605L35.3136 15.7261L34.8137 14.86ZM31.5588 16.739L30.5754 16.9206C30.6391 17.2651 30.674 17.6155 30.674 17.9704L31.674 17.9704L32.674 17.9703C32.674 17.4838 32.6261 17.0116 32.5422 16.5573L31.5588 16.739ZM31.674 17.9704H30.674C30.674 18.3251 30.639 18.6757 30.5754 19.0203L31.5588 19.2018L32.5422 19.3834C32.626 18.9294 32.674 18.457 32.674 17.9704H31.674ZM31.5588 19.2018L31.0589 20.0679L34.3138 21.9468L34.8137 21.0807L35.3136 20.2147L32.0587 18.3358L31.5588 19.2018ZM34.8137 21.0807L33.9477 20.5806L31.6997 24.4732L32.5656 24.9733L33.4316 25.4734L35.6797 21.5809L34.8137 21.0807ZM32.5656 24.9733L33.0656 24.1073L29.8107 22.2284L29.3108 23.0944L28.8108 23.9605L32.0657 25.8394L32.5656 24.9733ZM29.3108 23.0944L28.6607 22.3346C28.1291 22.7894 27.5157 23.1481 26.8456 23.385L27.1789 24.3278L27.5123 25.2706C28.4193 24.9499 29.2466 24.4654 29.9609 23.8543L29.3108 23.0944ZM27.1789 24.3278H26.1789V28.0837H27.1789H28.1789V24.3278H27.1789ZM27.1789 28.0837V27.0837H22.6838V28.0837V29.0837H27.1789V28.0837ZM22.6838 28.0837H23.6838V24.3278H22.6838H21.6838V28.0837H22.6838ZM22.6838 24.3278L23.0171 23.385C22.3464 23.1479 21.7325 22.7893 21.2012 22.3346L20.551 23.0944L19.9008 23.8542C20.6156 24.4659 21.4436 24.95 22.3505 25.2706L22.6838 24.3278ZM20.551 23.0944L20.0509 22.2285L16.796 24.1084L17.2961 24.9743L17.7962 25.8403L21.0511 23.9604L20.551 23.0944ZM17.2961 24.9743L18.1622 24.4745L15.9152 20.5809L15.049 21.0807L14.1829 21.5806L16.43 25.4742L17.2961 24.9743ZM15.049 21.0807L15.5492 21.9467L18.8021 20.0678L18.302 19.2018L17.8018 18.3359L14.5489 20.2148L15.049 21.0807ZM18.302 19.2018L19.2854 19.0204C19.2224 18.679 19.1887 18.328 19.1887 17.9704H18.1887H17.1887C17.1887 18.4538 17.2342 18.9263 17.3186 19.3833L18.302 19.2018ZM18.1887 17.9704L19.1887 17.9704C19.1887 17.6141 19.223 17.2635 19.2863 16.9205L18.3029 16.739L17.3196 16.5574C17.2354 17.0131 17.1887 17.4853 17.1887 17.9703L18.1887 17.9704ZM18.3029 16.739L18.803 15.873L15.5491 13.9941L15.049 14.86L14.549 15.726L17.8029 17.6049L18.3029 16.739ZM15.049 14.86L15.9151 15.36L18.1622 11.4674L17.2961 10.9675L16.4301 10.4675L14.183 14.3601L15.049 14.86ZM17.2961 10.9675L16.7963 11.8336L20.0521 13.7125L20.552 12.8464L21.0518 11.9802L17.7959 10.1013L17.2961 10.9675ZM20.552 12.8464L21.202 13.6063C21.7337 13.1515 22.3472 12.7926 23.0171 12.5558L22.6838 11.613L22.3505 10.6702C21.4434 10.9908 20.6161 11.4756 19.9019 12.0865L20.552 12.8464ZM22.6838 11.613H23.6838V7.85712H22.6838H21.6838V11.613H22.6838ZM22.6838 7.85712V8.85712H27.1789V7.85712V6.85712H22.6838V7.85712ZM27.1789 7.85712H26.1789V11.613H27.1789H28.1789V7.85712H27.1789ZM24.9309 13.9255L24.9308 12.9255C22.1447 12.9257 19.8862 15.1842 19.886 17.9703L20.886 17.9704L21.886 17.9705C21.8861 16.2888 23.2492 14.9256 24.931 14.9255L24.9309 13.9255ZM20.886 17.9704H19.886C19.886 20.7566 22.1443 23.016 24.9308 23.0163L24.9309 22.0163L24.931 21.0163C23.2494 21.0161 21.886 19.6524 21.886 17.9704H20.886ZM24.9309 22.0163V23.0163C27.7174 23.0163 29.9768 20.7569 29.9768 17.9704H28.9768H27.9768C27.9768 19.6523 26.6128 21.0163 24.9309 21.0163V22.0163ZM28.9768 17.9704L29.9768 17.9703C29.9765 15.1838 27.717 12.9255 24.9309 12.9255V13.9255V14.9255C26.6129 14.9255 27.9766 16.2889 27.9768 17.9705L28.9768 17.9704Z" fill="black" mask="url(#path-3-outside-2_13_7444)"/>
<defs>
<filter id="filter0_d_13_7444" x="-0.00170898" y="0" width="43.3426" height="51" filterUnits="userSpaceOnUse" color-interpolation-filters="sRGB">
<feFlood flood-opacity="0" result="BackgroundImageFix"/>
<feColorMatrix in="SourceAlpha" type="matrix" values="0 0 0 0 0 0 0 0 0 0 0 0 0 0 0 0 0 0 127 0" result="hardAlpha"/>
<feOffset dy="1"/>
<feComposite in2="hardAlpha" operator="out"/>
<feColorMatrix type="matrix" values="0 0 0 0 0 0 0 0 0 0 0 0 0 0 0 0 0 0 1 0"/>
<feBlend mode="normal" in2="BackgroundImageFix" result="effect1_dropShadow_13_7444"/>
<feBlend mode="normal" in="SourceGraphic" in2="effect1_dropShadow_13_7444" result="shape"/>
</filter>
</defs>
</svg>
