<svg width="24" height="24" viewBox="0 0 24 24" fill="none" xmlns="http://www.w3.org/2000/svg">
<path d="M16.0577 9.99998C16.2705 9.99998 16.4487 9.92818 16.5923 9.7846C16.7359 9.64102 16.8077 9.46282 16.8077 9.25C16.8077 9.03718 16.7359 8.85898 16.5923 8.7154C16.4487 8.5718 16.2705 8.5 16.0577 8.5H12.75C12.5371 8.5 12.3589 8.5718 12.2154 8.7154C12.0718 8.85898 12 9.03718 12 9.25C12 9.46282 12.0718 9.64102 12.2154 9.7846C12.3589 9.92818 12.5371 9.99998 12.75 9.99998H16.0577ZM16.0577 15.5C16.2705 15.5 16.4487 15.4282 16.5923 15.2846C16.7359 15.141 16.8077 14.9628 16.8077 14.75C16.8077 14.5371 16.7359 14.3589 16.5923 14.2154C16.4487 14.0718 16.2705 14 16.0577 14H12.75C12.5371 14 12.3589 14.0718 12.2154 14.2154C12.0718 14.3589 12 14.5371 12 14.75C12 14.9628 12.0718 15.141 12.2154 15.2846C12.3589 15.4282 12.5371 15.5 12.75 15.5H16.0577ZM8.99998 10.8654C9.44741 10.8654 9.82849 10.708 10.1432 10.3932C10.458 10.0785 10.6153 9.69742 10.6153 9.25C10.6153 8.80257 10.458 8.42148 10.1432 8.10675C9.82849 7.792 9.44741 7.63462 8.99998 7.63462C8.55254 7.63462 8.17146 7.792 7.85672 8.10675C7.54199 8.42148 7.38462 8.80257 7.38462 9.25C7.38462 9.69742 7.54199 10.0785 7.85672 10.3932C8.17146 10.708 8.55254 10.8654 8.99998 10.8654ZM8.99998 16.3653C9.44741 16.3653 9.82849 16.208 10.1432 15.8932C10.458 15.5785 10.6153 15.1974 10.6153 14.75C10.6153 14.3025 10.458 13.9214 10.1432 13.6067C9.82849 13.292 9.44741 13.1346 8.99998 13.1346C8.55254 13.1346 8.17146 13.292 7.85672 13.6067C7.54199 13.9214 7.38462 14.3025 7.38462 14.75C7.38462 15.1974 7.54199 15.5785 7.85672 15.8932C8.17146 16.208 8.55254 16.3653 8.99998 16.3653ZM5.3077 20.5C4.80257 20.5 4.375 20.325 4.025 19.975C3.675 19.625 3.5 19.1974 3.5 18.6923V5.3077C3.5 4.80257 3.675 4.375 4.025 4.025C4.375 3.675 4.80257 3.5 5.3077 3.5H18.6923C19.1974 3.5 19.625 3.675 19.975 4.025C20.325 4.375 20.5 4.80257 20.5 5.3077V18.6923C20.5 19.1974 20.325 19.625 19.975 19.975C19.625 20.325 19.1974 20.5 18.6923 20.5H5.3077ZM5.3077 19H18.6923C18.7692 19 18.8397 18.9679 18.9038 18.9038C18.9679 18.8397 19 18.7692 19 18.6923V5.3077C19 5.23077 18.9679 5.16024 18.9038 5.09613C18.8397 5.03203 18.7692 4.99997 18.6923 4.99997H5.3077C5.23077 4.99997 5.16024 5.03203 5.09612 5.09613C5.03202 5.16024 4.99997 5.23077 4.99997 5.3077V18.6923C4.99997 18.7692 5.03202 18.8397 5.09612 18.9038C5.16024 18.9679 5.23077 19 5.3077 19Z" fill="#E64A56"/>
</svg>
