<svg width="48" height="48" viewBox="0 0 48 48" fill="none" xmlns="http://www.w3.org/2000/svg">
<path d="M43.9984 30.4614C43.9984 30.4614 43.9984 30.4614 43.9984 30.4514C43.9984 30.4514 43.9984 30.4314 43.9984 30.4214C43.9884 30.0314 43.8084 29.6714 43.4884 29.4314L37.8384 25.1514L32.4184 20.9614C32.1884 20.7814 31.9184 20.6914 31.6284 20.6914C31.2884 20.6914 30.9484 20.8314 30.7084 21.0714C30.4684 21.3114 30.3284 21.6414 30.3284 21.9914V23.7014C30.3284 23.7014 30.3084 23.7814 30.3084 23.8214V24.5814H21.1284C20.5984 24.5814 20.1684 25.0114 20.1684 25.5414V27.2914C20.1684 27.2914 20.1484 27.3514 20.1484 27.3814V37.1814C20.1484 37.7114 20.5784 38.1414 21.1084 38.1414H30.3184V40.7414C30.3184 41.0914 30.4384 41.4114 30.6884 41.6614C30.9284 41.9014 31.2684 42.0414 31.6084 42.0414C31.8984 42.0414 32.1684 41.9514 32.3984 41.7714L37.8284 37.5814L43.4784 33.3114C43.8384 33.0414 44.0384 32.7714 44.0084 30.4514L43.9984 30.4614ZM31.2884 25.5614V21.9914C31.2784 21.9314 31.2884 21.8714 31.3284 21.8314C31.3284 21.8214 31.3484 21.8114 31.3584 21.7914C31.3884 21.7614 31.4184 21.7314 31.4484 21.7114C31.4484 21.7114 31.4684 21.7014 31.4784 21.6914C31.5184 21.6714 31.5684 21.6614 31.6184 21.6614C31.6184 21.6614 31.6184 21.6614 31.6284 21.6614C31.6984 21.6614 31.7584 21.6814 31.8184 21.7314L37.2484 25.9214L39.9384 27.9514L42.9084 30.2014C42.9484 30.2314 42.9884 30.2714 43.0084 30.3214C43.0284 30.3614 43.0384 30.4114 43.0384 30.4614C43.0384 30.5614 42.9984 30.6514 42.9084 30.7214L37.2584 35.0014L31.8284 39.1914C31.7684 39.2414 31.7084 39.2514 31.6384 39.2614C31.5884 39.2614 31.5384 39.2614 31.4884 39.2314C31.4784 39.2314 31.4684 39.2214 31.4584 39.2114C31.4184 39.1914 31.3884 39.1614 31.3684 39.1314C31.3684 39.1214 31.3484 39.1114 31.3384 39.0914C31.3084 39.0414 31.2884 38.9914 31.2884 38.9314V35.3614H31.2984H21.1284V25.5614H31.2984H31.2884Z" fill="black"/>
<path d="M28.02 22.97C28.55 22.97 28.98 22.54 28.98 22.01V12.21C28.98 11.98 28.9 11.76 28.75 11.58L27.6 10.24C27.6 10.24 27.58 10.23 27.57 10.22C27.5 10.15 27.42 10.1 27.34 10.05C27.31 10.03 27.29 10.01 27.25 9.99C27.13 9.94 27 9.91 26.87 9.91H18.82V8.64C18.82 8.43 18.75 8.22 18.62 8.05L17.46 6.54C17.46 6.54 17.37 6.47 17.33 6.43C17.32 6.42 17.31 6.4 17.3 6.38C17.26 6.34 17.21 6.33 17.17 6.29C17.15 6.29 17.14 6.27 17.12 6.26C16.9 6.1 16.65 6 16.38 6C16.09 6 15.82 6.09 15.59 6.27L10.16 10.46L4.51 14.73C4.18 14.98 4 15.35 4 15.76C4 16.1 4.13 16.41 4.36 16.64L4.52 16.83C4.52 16.83 4.6 16.91 4.64 16.95L11.28 22.38L16.73 26.59C16.96 26.77 17.23 26.86 17.52 26.86C17.86 26.86 18.2 26.72 18.44 26.48C18.68 26.24 18.82 25.91 18.82 25.56V22.96H28.02V22.97ZM10.75 11.23L14.02 8.71L16.18 7.04C16.24 7 16.3 6.98 16.37 6.97C16.42 6.97 16.47 6.97 16.52 7C16.53 7 16.54 7.01 16.55 7.02C16.59 7.04 16.62 7.07 16.64 7.1C16.64 7.11 16.66 7.12 16.67 7.14C16.7 7.19 16.72 7.24 16.72 7.3V10.87H26.88V20.67H16.71L16.72 24.24C16.72 24.3 16.7 24.36 16.67 24.4C16.67 24.41 16.65 24.42 16.64 24.44C16.61 24.47 16.58 24.5 16.55 24.52C16.55 24.52 16.53 24.53 16.52 24.54C16.47 24.56 16.42 24.57 16.37 24.57C16.3 24.57 16.24 24.55 16.18 24.5L10.75 20.31L5.1 16.03C5.01 15.96 4.97 15.87 4.97 15.77C4.97 15.72 4.98 15.67 5 15.63C5.02 15.59 5.05 15.54 5.1 15.51L7.37 13.79L10.75 11.23Z" fill="black"/>
<path d="M5.09094 15.5087C5.09094 15.5087 5.01094 15.5787 4.99094 15.6287C4.97094 15.6787 4.96094 15.7187 4.96094 15.7687C4.96094 15.8687 5.00094 15.9587 5.09094 16.0287L10.7409 20.3088L16.1709 24.4987C16.2309 24.5487 16.3009 24.5588 16.3609 24.5688C16.4109 24.5688 16.4609 24.5687 16.5109 24.5387C16.5209 24.5387 16.5309 24.5287 16.5409 24.5187C16.5809 24.4987 16.6109 24.4687 16.6309 24.4387C16.6309 24.4287 16.6509 24.4188 16.6609 24.3988C16.6909 24.3488 16.7109 24.2987 16.7109 24.2387V20.6687H16.7009H26.8709V10.8688H16.7009V7.29875C16.7109 7.23875 16.7009 7.18875 16.6609 7.13875C16.6609 7.12875 16.6409 7.11875 16.6309 7.09875C16.6009 7.06875 16.5709 7.03875 16.5409 7.01875C16.5409 7.01875 16.5209 7.00875 16.5109 6.99875C16.4609 6.97875 16.4109 6.96875 16.3609 6.96875C16.3009 6.96875 16.2309 6.98875 16.1709 7.03875L14.0109 8.70875L10.7409 11.2287L7.36094 13.7888L5.09094 15.5087Z" fill="#6DC6D5"/>
<path d="M21.1211 35.3602H31.2911L31.2811 38.9302C31.2811 38.9902 31.3011 39.0402 31.3311 39.0902C31.3311 39.1002 31.3511 39.1102 31.3611 39.1302C31.3911 39.1602 31.4211 39.1902 31.4511 39.2102C31.4511 39.2102 31.4711 39.2202 31.4811 39.2302C31.5311 39.2502 31.5811 39.2602 31.6311 39.2602C31.6911 39.2602 31.7611 39.2402 31.8211 39.1902L37.2511 35.0002L42.9011 30.7202C42.9911 30.6502 43.0311 30.5602 43.0311 30.4602C43.0311 30.4102 43.0211 30.3602 43.0011 30.3202C42.9811 30.2802 42.9511 30.2302 42.9011 30.2002L39.9311 27.9502L37.2511 25.9202L31.8211 21.7302C31.7611 21.6802 31.6911 21.6702 31.6311 21.6602C31.5811 21.6602 31.5311 21.6602 31.4811 21.6902C31.4711 21.6902 31.4611 21.7002 31.4511 21.7102C31.4111 21.7302 31.3811 21.7602 31.3611 21.7902C31.3611 21.8002 31.3411 21.8102 31.3311 21.8302C31.3011 21.8802 31.2811 21.9302 31.2811 21.9902V25.5602H21.1211V35.3602Z" fill="#FFD249"/>
</svg>
