<svg width="48" height="48" viewBox="0 0 48 48" fill="none" xmlns="http://www.w3.org/2000/svg">
<path d="M22.7489 33.8903C23.1889 33.8903 23.5489 33.5303 23.5489 33.0903V12.6303C23.5489 10.5303 21.8389 8.82031 19.7389 8.82031C17.9289 8.82031 16.4289 10.0803 16.0289 11.7503C15.6489 11.6603 15.2489 11.6103 14.8489 11.6103C11.9689 11.6103 9.62891 14.1003 9.62891 17.1803C9.62891 17.3103 9.64891 17.4303 9.65891 17.5503C9.63891 17.7303 9.62891 17.9203 9.62891 18.1103C9.62891 19.8503 10.3689 21.4003 11.5389 22.4203C11.7789 22.6303 12.0389 22.8103 12.3089 22.9703C12.2789 23.0103 12.2489 23.0503 12.2189 23.0903C12.0389 23.3703 11.8789 23.6603 11.7589 23.9703C11.5689 24.4403 11.4389 24.9403 11.3889 25.4703C11.3689 25.6503 11.3589 25.8203 11.3589 26.0003C11.3589 26.1603 11.3589 26.3203 11.3789 26.4703C11.3689 26.6203 11.3589 26.7703 11.3589 26.9303C11.3589 29.7503 13.4989 32.0403 16.1489 32.0403C16.4889 32.0403 16.8189 32.0003 17.1389 31.9303C17.6689 33.0903 18.8389 33.9003 20.1889 33.9003H22.7489V33.8903ZM15.7989 12.6503C15.8689 12.6703 15.9489 12.6803 16.0189 12.6803H16.0389C16.1789 12.7103 17.8189 13.0603 18.3789 14.6503C18.4489 14.8403 18.6289 14.9603 18.8189 14.9603C18.8689 14.9603 18.9189 14.9603 18.9689 14.9303C19.2089 14.8503 19.3389 14.5803 19.2489 14.3403C18.7589 12.9403 17.6489 12.2803 16.9089 11.9803C16.9089 11.9803 16.9089 11.9703 16.9089 11.9603C17.2189 10.6603 18.3689 9.74031 19.7189 9.74031C21.3089 9.74031 22.5989 11.0303 22.5989 12.6203V18.4703C22.4589 18.3103 22.3089 18.1603 22.1389 18.0103C21.9689 17.8703 21.7789 17.7703 21.5889 17.6703C21.0989 16.7403 21.5689 15.9303 21.5889 15.8903C21.7189 15.6703 21.6489 15.3903 21.4389 15.2503C21.2189 15.1103 20.9289 15.1803 20.7989 15.4003C20.7689 15.4403 20.2989 16.2503 20.4989 17.2903C19.9689 17.2003 19.3889 17.1803 18.7489 17.2803C18.4989 17.3203 18.3189 17.5503 18.3589 17.8103C18.3989 18.0603 18.6289 18.2403 18.8889 18.2003C20.0189 18.0403 20.9189 18.2103 21.5689 18.7203C22.4989 19.4603 22.6189 20.6803 22.6189 20.7103V32.0103H20.1989C19.2489 32.0103 18.3789 31.4503 17.9889 30.5903C17.9789 30.5703 17.9589 30.5503 17.9489 30.5303C17.9489 30.5103 17.9489 30.5003 17.9489 30.4803C17.9289 30.3803 17.3989 28.1103 19.1089 27.4303C19.3489 27.3303 19.4589 27.0603 19.3689 26.8303C19.2689 26.5903 18.9989 26.4803 18.7689 26.5703C17.1189 27.2303 16.8489 28.9103 16.9589 30.0803C16.6989 30.1403 16.4389 30.1703 16.1689 30.1703C14.0389 30.1703 12.3089 28.3003 12.3089 25.9903C12.3089 24.8303 12.7389 23.7603 13.5089 22.9603C13.7189 22.7403 13.8089 22.4403 13.7589 22.1403C13.6989 21.8403 13.4989 21.5903 13.2289 21.4703C11.6189 20.7503 10.5689 19.0603 10.5689 17.1803C10.5689 14.6203 12.4989 12.5403 14.8589 12.5403C15.1789 12.5403 15.5089 12.5803 15.8189 12.6603L15.7989 12.6503Z" fill="black"/>
<path d="M29.5188 22.7683C29.6888 22.6383 29.8288 22.4883 29.9188 22.3183C30.0088 22.1483 30.0588 21.9683 30.0588 21.7883C30.0588 21.6083 30.0088 21.4283 29.9188 21.2583C29.8288 21.0883 29.6888 20.9383 29.5188 20.8083C29.3488 20.6783 29.1388 20.5783 28.9188 20.5083C28.8688 20.4883 28.8088 20.4883 28.7688 20.4883C28.5988 20.4883 28.4788 20.5783 28.4288 20.6283C28.2988 20.7483 28.2188 20.9383 28.2188 21.1283V23.1883C28.4287 23.1883 28.7388 23.1483 28.9288 23.0883C29.1588 23.0183 29.3588 22.9183 29.5288 22.7883L29.5188 22.7683Z" fill="#FAE553"/>
<path d="M27.2714 24.1016H25.6914V32.0316H27.2714V24.1016Z" fill="#FAE553"/>
<path d="M25.6914 23.1683H27.2814V21.3083V21.0983C27.2814 20.6383 27.4714 20.2083 27.8014 19.9083C28.1814 19.5583 28.7114 19.4383 29.2014 19.5983C29.5314 19.6983 29.8214 19.8483 30.0814 20.0483C30.3614 20.2583 30.5814 20.5083 30.7414 20.7983C30.9114 21.1083 31.0014 21.4383 31.0014 21.7783C31.0014 22.1183 30.9114 22.4583 30.7414 22.7583C30.5814 23.0483 30.3614 23.2983 30.0814 23.5083C29.8214 23.6983 29.5214 23.8483 29.2014 23.9583C28.9414 24.0383 28.6614 24.0883 28.3714 24.0983C28.3514 24.0983 28.3414 24.0983 28.3214 24.0983H28.2714H28.2414H28.2114V32.0283H29.2714C29.7514 32.0283 30.1414 31.6083 30.1414 31.0983V28.6683C30.1414 27.9483 30.5414 27.2983 31.1914 26.9683C34.4314 25.3383 36.4414 22.2583 36.4414 18.9483C36.4414 13.8683 31.8114 9.73828 26.1114 9.73828C25.9714 9.73828 25.8314 9.73828 25.6914 9.73828V23.1483V23.1683Z" fill="#FAE553"/>
<path d="M10.5395 17.1783C10.5395 19.0683 11.5795 20.7483 13.1995 21.4683C13.4795 21.5883 13.6795 21.8383 13.7295 22.1383C13.7895 22.4383 13.6995 22.7483 13.4795 22.9583C12.6995 23.7583 12.2795 24.8283 12.2795 25.9883C12.2795 28.2883 14.0095 30.1683 16.1395 30.1683C16.4095 30.1683 16.6695 30.1383 16.9295 30.0783C16.8195 28.9083 17.0995 27.2283 18.7395 26.5683C18.9795 26.4683 19.2495 26.5883 19.3395 26.8283C19.4395 27.0683 19.3195 27.3383 19.0795 27.4283C17.3695 28.1183 17.8995 30.3883 17.9195 30.4783C17.9195 30.4983 17.9195 30.5083 17.9195 30.5283C17.9295 30.5483 17.9495 30.5683 17.9595 30.5883C18.3495 31.4483 19.2195 32.0083 20.1695 32.0083H22.5895V20.7083C22.5895 20.7083 22.4695 19.4583 21.5395 18.7183C20.8995 18.2083 19.9895 18.0283 18.8595 18.1983C18.6095 18.2383 18.3695 18.0583 18.3295 17.8083C18.2895 17.5583 18.4695 17.3183 18.7195 17.2783C19.3595 17.1883 19.9395 17.1983 20.4695 17.2883C20.2795 16.2483 20.7495 15.4383 20.7695 15.3983C20.8995 15.1783 21.1895 15.1083 21.4095 15.2483C21.6295 15.3783 21.6995 15.6683 21.5595 15.8883C21.5395 15.9283 21.0695 16.7383 21.5595 17.6683C21.7495 17.7683 21.9395 17.8783 22.1095 18.0083C22.2895 18.1483 22.4395 18.3083 22.5695 18.4683V12.6183C22.5695 11.0283 21.2795 9.73828 19.6895 9.73828C18.3495 9.73828 17.1895 10.6483 16.8795 11.9583C16.8795 11.9583 16.8795 11.9683 16.8795 11.9783C17.6195 12.2783 18.7295 12.9383 19.2195 14.3383C19.3095 14.5783 19.1795 14.8483 18.9395 14.9283C18.8895 14.9483 18.8395 14.9583 18.7895 14.9583C18.5995 14.9583 18.4195 14.8383 18.3495 14.6483C17.7895 13.0483 16.1495 12.6983 16.0095 12.6783H15.9895C15.9195 12.6783 15.8395 12.6783 15.7695 12.6483C15.4595 12.5683 15.1295 12.5283 14.8095 12.5283C12.4395 12.5283 10.5195 14.6083 10.5195 17.1683L10.5395 17.1783ZM14.7495 15.5483C14.5995 15.6283 13.3295 16.3383 13.9495 18.3283C14.0295 18.5683 13.8895 18.8383 13.6395 18.9083C13.5895 18.9183 13.5495 18.9283 13.4995 18.9283C13.2995 18.9283 13.1195 18.7983 13.0595 18.5983C12.3595 16.3483 13.5895 15.0683 14.3395 14.7083C14.5695 14.5983 14.8495 14.6883 14.9595 14.9183C15.0695 15.1483 14.9795 15.4283 14.7495 15.5383V15.5483ZM17.3995 21.0383C18.0695 22.5083 17.4595 24.0883 15.8595 24.9583C15.7895 24.9983 15.7095 25.0183 15.6395 25.0183C15.4795 25.0183 15.3195 24.9283 15.2295 24.7783C15.1095 24.5583 15.1895 24.2683 15.4095 24.1483C16.5695 23.5183 17.0095 22.4483 16.5495 21.4283C16.4395 21.1983 16.5495 20.9183 16.7795 20.8083C17.0095 20.6983 17.2895 20.8083 17.3995 21.0383Z" fill="#E59BC4"/>
<path d="M37.2695 17.6803C36.5695 12.6903 31.8495 8.82031 26.1195 8.82031C25.9395 8.82031 25.7595 8.82031 25.5795 8.83031C25.1195 8.85031 24.7695 9.25031 24.7695 9.73031V32.9603C24.7695 33.4703 25.1795 33.8903 25.6795 33.8903H29.3295C29.7095 33.8903 30.0595 33.7703 30.3495 33.5703C30.5395 33.4403 30.7095 33.2703 30.8395 33.0703C31.0395 32.7703 31.1495 32.4203 31.1495 32.0303V29.6003C31.1495 29.4103 31.1995 29.2403 31.2995 29.0903C31.3495 29.0203 31.4095 28.9503 31.4695 28.8903C31.5295 28.8303 31.6095 28.7803 31.6895 28.7403C32.1295 28.5203 32.5395 28.2803 32.9395 28.0203C33.1395 27.8903 33.3295 27.7503 33.5195 27.6103C33.8995 27.3203 34.2495 27.0203 34.5895 26.6903C36.4195 24.8903 37.5295 22.5103 37.5295 19.8903C37.5295 19.1303 37.4295 18.3903 37.2495 17.6803H37.2695ZM25.6895 24.1003H27.2795V32.0303H25.6895V24.1003ZM31.1895 26.9903C30.5395 27.3203 30.1395 27.9703 30.1395 28.6903V31.1203C30.1395 31.6303 29.7495 32.0503 29.2695 32.0503H28.2095V24.1203H28.3295C28.3295 24.1203 28.3595 24.1203 28.3795 24.1203C28.6595 24.1103 28.9395 24.0603 29.2095 23.9803C29.5395 23.8803 29.8295 23.7303 30.0895 23.5303C30.3695 23.3203 30.5895 23.0703 30.7495 22.7803C30.9195 22.4803 31.0095 22.1403 31.0095 21.8003C31.0095 21.4603 30.9195 21.1203 30.7495 20.8203C30.5895 20.5403 30.3695 20.2803 30.0895 20.0703C29.8295 19.8803 29.5295 19.7303 29.2095 19.6203C28.7195 19.4703 28.1895 19.5803 27.8095 19.9303C27.4795 20.2303 27.2895 20.6603 27.2895 21.1203V23.1803H25.6995V9.77031C25.8395 9.77031 25.9795 9.77031 26.1195 9.77031C31.8095 9.77031 36.4495 13.9003 36.4495 18.9803C36.4495 22.2903 34.4395 25.3703 31.1995 27.0003L31.1895 26.9903ZM28.2095 23.1703V21.1103C28.2095 20.9203 28.2895 20.7303 28.4195 20.6103C28.4695 20.5603 28.5895 20.4703 28.7595 20.4703C28.8095 20.4703 28.8595 20.4703 28.9095 20.4903C29.1395 20.5603 29.3395 20.6603 29.5095 20.7903C29.6795 20.9203 29.8195 21.0703 29.9095 21.2403C29.9995 21.4103 30.0495 21.5903 30.0495 21.7703C30.0495 21.9503 29.9995 22.1303 29.9095 22.3003C29.8195 22.4703 29.6795 22.6203 29.5095 22.7503C29.3395 22.8803 29.1295 22.9803 28.9095 23.0503C28.7195 23.1103 28.3995 23.1403 28.1995 23.1503L28.2095 23.1703Z" fill="black"/>
<path d="M23.39 41.1898H24.88C25.65 41.1898 26.27 40.5698 26.27 39.7998V39.3398H22V39.7998C22 40.5698 22.62 41.1898 23.39 41.1898Z" fill="#9E9D98"/>
<path d="M21.7511 41.4317C21.4311 41.1117 21.2111 40.7117 21.1211 40.2617C21.2111 40.7117 21.4411 41.1217 21.7511 41.4317Z" fill="#9E9D98"/>
<path d="M28.3092 35.6211H19.9492V37.2911C19.9492 37.9011 20.4492 38.4011 21.0592 38.4011C21.0792 38.4011 21.0992 38.4111 21.1292 38.4111C21.1292 38.4111 21.1492 38.4111 21.1592 38.4111H26.8892C26.8892 38.4111 26.9792 38.4211 27.0192 38.4411C27.0792 38.4311 27.1292 38.4111 27.1892 38.4111C27.7992 38.4111 28.2992 37.9111 28.2992 37.3011V35.6311L28.3092 35.6211Z" fill="#9E9D98"/>
<path d="M27.1495 40.2617C27.0595 40.7117 26.8295 41.1217 26.5195 41.4317C26.8395 41.1117 27.0595 40.7117 27.1495 40.2617Z" fill="#9E9D98"/>
<path d="M29.0095 34.6914H19.2495C19.1195 34.6914 19.0195 34.7914 19.0195 34.9214V38.1814C19.0195 39.3114 19.9295 40.2214 21.0595 40.2214V40.6814C21.0595 41.6414 21.6395 42.4714 22.4795 42.8214C22.7595 42.9414 23.0595 43.0014 23.3795 43.0014H24.8695C26.1495 43.0014 27.1895 41.9614 27.1895 40.6814V40.2214C28.3195 40.2214 29.2295 39.3114 29.2295 38.1814V34.9214C29.2295 34.7914 29.1295 34.6914 28.9995 34.6914H29.0095ZM26.2595 39.3414V39.8014C26.2595 40.5714 25.6395 41.1914 24.8695 41.1914H23.3795C22.6095 41.1914 21.9895 40.5714 21.9895 39.8014V39.3414H26.2595ZM27.1895 38.4014C27.1295 38.4014 27.0795 38.4214 27.0195 38.4314C26.9795 38.4214 26.9395 38.4014 26.8895 38.4014H21.1595C21.1595 38.4014 21.1395 38.4014 21.1295 38.4014C21.1095 38.4014 21.0895 38.3914 21.0595 38.3914C20.4495 38.3914 19.9495 37.8914 19.9495 37.2814V35.6114H28.3095V37.2814C28.3095 37.8914 27.8095 38.3914 27.1995 38.3914L27.1895 38.4014ZM26.5095 41.4314C26.0895 41.8514 25.5095 42.1114 24.8695 42.1114H23.3795C22.7395 42.1114 22.1595 41.8514 21.7395 41.4314C21.4195 41.1114 21.1995 40.7114 21.1095 40.2614C21.1995 40.7114 21.4295 41.1214 21.7395 41.4314C22.1595 41.8514 22.7395 42.1114 23.3795 42.1114H24.8695C25.5095 42.1114 26.0895 41.8514 26.5095 41.4314C26.8295 41.1114 27.0495 40.7114 27.1395 40.2614C27.0495 40.7114 26.8195 41.1214 26.5095 41.4314Z" fill="black"/>
<path d="M25.5108 6.71C25.7708 6.71 25.9708 6.5 25.9708 6.25V3.46C25.9708 3.2 25.7608 3 25.5108 3C25.2608 3 25.0508 3.21 25.0508 3.46V6.25C25.0508 6.51 25.2608 6.71 25.5108 6.71Z" fill="black"/>
<path d="M33.8182 7.83109C33.8682 7.85109 33.9182 7.86109 33.9782 7.86109C34.1682 7.86109 34.3482 7.74109 34.4182 7.55109L35.3482 4.93109C35.4382 4.69109 35.3082 4.42109 35.0682 4.34109C34.8282 4.26109 34.5582 4.38109 34.4782 4.62109L33.5482 7.24109C33.4582 7.48109 33.5882 7.75109 33.8282 7.83109H33.8182Z" fill="black"/>
<path d="M42.5382 11.3889C42.4082 11.1689 42.1182 11.0889 41.9082 11.2189L39.4982 12.6189C39.2782 12.7489 39.1982 13.0289 39.3282 13.2489C39.4182 13.3989 39.5682 13.4789 39.7282 13.4789C39.8082 13.4789 39.8882 13.4589 39.9582 13.4189L42.3682 12.0189C42.5882 11.8889 42.6682 11.6089 42.5382 11.3889Z" fill="black"/>
<path d="M43.9219 20.7305H41.1319C40.8719 20.7305 40.6719 20.9505 40.6719 21.2005C40.6719 21.4605 40.8819 21.6605 41.1319 21.6605H43.9219C44.1819 21.6605 44.3819 21.4405 44.3819 21.1905C44.3819 20.9305 44.1719 20.7305 43.9219 20.7305Z" fill="black"/>
<path d="M38.1604 27.9088C38.0104 27.6988 37.7204 27.6588 37.5104 27.8088C37.3004 27.9588 37.2604 28.2488 37.4104 28.4588L39.0504 30.7088C39.1404 30.8388 39.2804 30.8988 39.4304 30.8988C39.5304 30.8988 39.6204 30.8688 39.7004 30.8088C39.9104 30.6588 39.9504 30.3688 39.8004 30.1588L38.1604 27.9088Z" fill="black"/>
<path d="M14.3396 14.7208C13.5896 15.0808 12.3596 16.3608 13.0596 18.6108C13.1196 18.8108 13.3096 18.9408 13.4996 18.9408C13.5496 18.9408 13.5896 18.9408 13.6396 18.9208C13.8796 18.8408 14.0196 18.5808 13.9496 18.3408C13.3296 16.3508 14.5996 15.6408 14.7496 15.5608C14.9796 15.4508 15.0696 15.1708 14.9596 14.9408C14.8496 14.7108 14.5696 14.6108 14.3396 14.7308V14.7208Z" fill="black"/>
<path d="M16.5599 21.4286C17.0299 22.4486 16.5799 23.5086 15.4199 24.1486C15.1999 24.2686 15.1099 24.5586 15.2399 24.7786C15.3199 24.9286 15.4799 25.0186 15.6499 25.0186C15.7299 25.0186 15.7999 24.9986 15.8699 24.9586C17.4599 24.0886 18.0799 22.5086 17.4099 21.0386C17.2999 20.8086 17.0199 20.6986 16.7899 20.8086C16.5599 20.9186 16.4499 21.1886 16.5599 21.4286Z" fill="black"/>
</svg>
