<svg width="42" height="49" viewBox="0 0 42 49" fill="none" xmlns="http://www.w3.org/2000/svg">
<path d="M23.4404 1C33.3517 1 41.3867 9.03502 41.3867 18.9463C41.3866 25.7395 37.2692 31.5906 31.5928 34.6309C31.572 34.642 31.559 34.656 31.5527 34.666C31.5501 34.6703 31.5492 34.6736 31.5488 34.6748V46.4053C31.5488 47.8382 30.3871 49 28.9541 49H17.9277C16.4948 49 15.333 47.8382 15.333 46.4053V39.9619C15.332 39.9598 15.3263 39.9504 15.3115 39.9375C15.2773 39.9079 15.2227 39.8861 15.165 39.8896C14.863 39.9087 14.5584 39.9189 14.252 39.9189H11.2246C7.64228 39.9189 4.73838 37.0149 4.73828 33.4326V30.8379H2.59961C1.07286 30.8379 0.0042603 29.5866 0.000976562 28.2412L0 28.2432V26.875L0.298828 27.043C0.347357 26.9512 0.401691 26.8603 0.462891 26.7715L4.73828 20.5645V18.9463C4.73828 8.96185 13.6049 1.0002 23.4404 1ZM16.7861 47.0234C16.8261 47.097 16.8729 47.1664 16.9258 47.2305C16.8729 47.1664 16.8261 47.097 16.7861 47.0234ZM15.8008 38.7266C15.8883 38.7662 15.9714 38.8142 16.0488 38.8691C15.9713 38.8142 15.8883 38.7662 15.8008 38.7266ZM2.59961 29.541H4.73828V29.54H2.59961V29.541ZM4.79492 20.4873C4.77459 20.5126 4.75957 20.5417 4.75 20.5723L5.80566 21.2998L4.79492 20.4873ZM15.3291 4.30664H15.3301H15.3291Z" fill="black"/>
<mask id="path-2-outside-1_13_7394" maskUnits="userSpaceOnUse" x="-0.969299" y="0" width="43" height="48" fill="black">
<rect fill="white" x="-0.969299" width="43" height="48"/>
<path d="M23.4399 1C32.6345 1.0002 40.0882 8.45386 40.0884 17.6484C40.0884 23.9619 36.2165 29.4533 30.8137 32.2757C30.4726 32.4539 30.2505 32.8026 30.2505 33.1875V45.4053C30.2505 45.9575 29.8027 46.4052 29.2505 46.4053H17.6284C17.0763 46.4051 16.6284 45.9574 16.6284 45.4053V38.3242C16.6284 37.7719 16.1807 37.3242 15.6284 37.3242H10.0337C7.82475 37.324 6.03367 35.5332 6.03367 33.3242V29.2432C6.03367 28.6909 5.58595 28.2432 5.03367 28.2432H2.03242C1.22684 28.2432 0.751912 27.3393 1.20888 26.6759L5.80515 20.0029L5.81402 19.9919C5.95619 19.8145 6.03367 19.5939 6.03367 19.3665V17.6484C6.03379 8.45374 14.2452 1 23.4399 1Z"/>
</mask>
<path d="M23.4399 1C32.6345 1.0002 40.0882 8.45386 40.0884 17.6484C40.0884 23.9619 36.2165 29.4533 30.8137 32.2757C30.4726 32.4539 30.2505 32.8026 30.2505 33.1875V45.4053C30.2505 45.9575 29.8027 46.4052 29.2505 46.4053H17.6284C17.0763 46.4051 16.6284 45.9574 16.6284 45.4053V38.3242C16.6284 37.7719 16.1807 37.3242 15.6284 37.3242H10.0337C7.82475 37.324 6.03367 35.5332 6.03367 33.3242V29.2432C6.03367 28.6909 5.58595 28.2432 5.03367 28.2432H2.03242C1.22684 28.2432 0.751912 27.3393 1.20888 26.6759L5.80515 20.0029L5.81402 19.9919C5.95619 19.8145 6.03367 19.5939 6.03367 19.3665V17.6484C6.03379 8.45374 14.2452 1 23.4399 1Z" fill="#D6E33E"/>
<path d="M23.4399 1L23.4399 0H23.4399V1ZM40.0884 17.6484L41.0884 17.6484L41.0884 17.6484L40.0884 17.6484ZM29.2505 46.4053L29.2505 47.4053L29.2505 47.4053L29.2505 46.4053ZM17.6284 46.4053L17.628 47.4053H17.6284V46.4053ZM10.0337 37.3242L10.0336 38.3242H10.0337V37.3242ZM5.80515 20.0029L5.02481 19.3776C5.00971 19.3964 4.9953 19.4158 4.98161 19.4357L5.80515 20.0029ZM6.03367 17.6484L5.03367 17.6484V17.6484H6.03367ZM5.81402 19.9919L5.03367 19.3665L5.81402 19.9919ZM30.8137 32.2757L31.2768 33.1621L30.8137 32.2757ZM23.4399 1L23.4399 2C32.0822 2.00019 39.0882 9.00616 39.0884 17.6484L40.0884 17.6484L41.0884 17.6484C41.0882 7.90157 33.1868 0.000211198 23.4399 2.3476e-10L23.4399 1ZM40.0884 17.6484H39.0884C39.0884 23.5379 35.4718 28.7141 30.3507 31.3894L30.8137 32.2757L31.2768 33.1621C36.9611 30.1926 41.0884 24.3859 41.0884 17.6484H40.0884ZM30.2505 33.1875H29.2505V45.4053H30.2505H31.2505V33.1875H30.2505ZM30.2505 45.4053H29.2505L29.2504 45.4053L29.2505 46.4053L29.2505 47.4053C30.3549 47.4052 31.2505 46.5099 31.2505 45.4053H30.2505ZM29.2505 46.4053V45.4053H17.6284V46.4053V47.4053H29.2505V46.4053ZM17.6284 46.4053L17.6288 45.4053L17.6284 45.4053H16.6284H15.6284C15.6284 46.5101 16.5243 47.4049 17.628 47.4053L17.6284 46.4053ZM16.6284 45.4053H17.6284V38.3242H16.6284H15.6284V45.4053H16.6284ZM15.6284 37.3242V36.3242H10.0337V37.3242V38.3242H15.6284V37.3242ZM10.0337 37.3242L10.0338 36.3242C8.37694 36.324 7.03367 34.9808 7.03367 33.3242H6.03367H5.03367C5.03367 36.0856 7.27255 38.3239 10.0336 38.3242L10.0337 37.3242ZM6.03367 33.3242H7.03367V29.2432H6.03367H5.03367V33.3242H6.03367ZM5.03367 28.2432V27.2432H2.03242V28.2432V29.2432H5.03367V28.2432ZM1.20888 26.6759L2.03242 27.2432L6.6287 20.5702L5.80515 20.0029L4.98161 19.4357L0.385329 26.1087L1.20888 26.6759ZM5.80515 20.0029L6.5855 20.6283L6.59436 20.6172L5.81402 19.9919L5.03367 19.3665L5.02481 19.3776L5.80515 20.0029ZM6.03367 19.3665H7.03367V17.6484H6.03367H5.03367V19.3665H6.03367ZM6.03367 17.6484L7.03367 17.6485C7.03379 9.06259 14.7392 2 23.4399 2V1V0C13.7512 0 5.0338 7.84489 5.03367 17.6484L6.03367 17.6484ZM5.81402 19.9919L6.59436 20.6172C6.87872 20.2624 7.03367 19.8212 7.03367 19.3665H6.03367H5.03367L5.03367 19.3665L5.81402 19.9919ZM2.03242 28.2432V27.2432L2.03242 27.2432L1.20888 26.6759L0.385329 26.1087C-0.528597 27.4355 0.421267 29.2432 2.03242 29.2432V28.2432ZM6.03367 29.2432H7.03367C7.03367 28.1386 6.13824 27.2432 5.03367 27.2432V28.2432V29.2432L5.03367 29.2432H6.03367ZM16.6284 38.3242H17.6284C17.6284 37.2196 16.733 36.3242 15.6284 36.3242V37.3242V38.3242L15.6284 38.3242H16.6284ZM30.8137 32.2757L30.3507 31.3894C29.697 31.7309 29.2505 32.4108 29.2505 33.1875H30.2505H31.2505C31.2505 33.1875 31.2505 33.1875 31.2505 33.1876C31.2505 33.1877 31.2504 33.1878 31.2504 33.1879C31.2504 33.1881 31.2504 33.1881 31.2504 33.1879C31.2506 33.1875 31.2511 33.1858 31.2529 33.183C31.2566 33.1769 31.2643 33.1686 31.2768 33.1621L30.8137 32.2757Z" fill="black" mask="url(#path-2-outside-1_13_7394)"/>
<mask id="path-4-outside-2_13_7394" maskUnits="userSpaceOnUse" x="14.1152" y="6.05405" width="23" height="21" fill="black">
<rect fill="white" x="14.1152" y="6.05405" width="23" height="21"/>
<path d="M24.196 9.46811C22.8774 9.46812 21.5883 9.85955 20.4919 10.5921L20.2897 10.7328C19.2906 11.4552 18.5099 12.4414 18.0368 13.5833L17.946 13.8138C17.5167 14.9695 17.4158 16.2235 17.6569 17.4359C17.9142 18.7291 18.5497 19.9166 19.4821 20.849C20.4145 21.7813 21.602 22.4169 22.8952 22.6742C24.1075 22.9153 25.3616 22.8144 26.5173 22.3851L26.7477 22.2943C27.8895 21.8213 28.876 21.0411 29.5983 20.0423L29.7399 19.8392C30.2602 19.0606 30.6065 18.1845 30.7643 17.2699H27.8317L31.7634 11.5941L35.696 17.2699H33.2048C33.0292 18.6637 32.5329 20.0033 31.7468 21.18L31.5544 21.4564C30.5704 22.8171 29.227 23.8804 27.6716 24.5247L27.3581 24.6478C25.8888 25.1936 24.3031 25.3496 22.7556 25.1009L22.4245 25.0414C20.7731 24.7129 19.2479 23.9321 18.0173 22.7894L17.7751 22.556C16.5845 21.3654 15.7494 19.8694 15.361 18.2357L15.2897 17.9066C14.9613 16.2552 15.0985 14.5473 15.6833 12.973L15.8063 12.6595C16.4507 11.1041 17.514 9.76069 18.8747 8.7767L19.1511 8.58432C20.6444 7.58658 22.4 7.05405 24.196 7.05405V9.46811ZM23.196 8.11752C21.9521 8.27267 20.7566 8.71485 19.7067 9.41635C18.3779 10.3043 17.3418 11.5658 16.7302 13.0423C16.1186 14.5188 15.9585 16.1438 16.2702 17.7113C16.582 19.2788 17.352 20.7188 18.4821 21.849C19.6123 22.9791 21.0522 23.7491 22.6198 24.0609C24.1873 24.3726 25.8122 24.2125 27.2888 23.6009C28.7653 22.9893 30.0268 21.9532 30.9147 20.6244C31.5908 19.6125 32.0235 18.4652 32.1931 17.2699H31.7751C31.6085 18.383 31.2015 19.4513 30.571 20.3949C29.7285 21.6557 28.5305 22.6378 27.1296 23.2181C25.7287 23.7983 24.1871 23.9504 22.6999 23.6546C21.2128 23.3587 19.8463 22.6291 18.7741 21.557C17.7019 20.4848 16.9723 19.1183 16.6765 17.6312C16.3806 16.144 16.5328 14.6024 17.113 13.2015C17.6933 11.8006 18.6754 10.6026 19.9362 9.7601C20.9179 9.10416 22.0342 8.68737 23.196 8.53452V8.11752Z"/>
</mask>
<path d="M24.196 9.46811C22.8774 9.46812 21.5883 9.85955 20.4919 10.5921L20.2897 10.7328C19.2906 11.4552 18.5099 12.4414 18.0368 13.5833L17.946 13.8138C17.5167 14.9695 17.4158 16.2235 17.6569 17.4359C17.9142 18.7291 18.5497 19.9166 19.4821 20.849C20.4145 21.7813 21.602 22.4169 22.8952 22.6742C24.1075 22.9153 25.3616 22.8144 26.5173 22.3851L26.7477 22.2943C27.8895 21.8213 28.876 21.0411 29.5983 20.0423L29.7399 19.8392C30.2602 19.0606 30.6065 18.1845 30.7643 17.2699H27.8317L31.7634 11.5941L35.696 17.2699H33.2048C33.0292 18.6637 32.5329 20.0033 31.7468 21.18L31.5544 21.4564C30.5704 22.8171 29.227 23.8804 27.6716 24.5247L27.3581 24.6478C25.8888 25.1936 24.3031 25.3496 22.7556 25.1009L22.4245 25.0414C20.7731 24.7129 19.2479 23.9321 18.0173 22.7894L17.7751 22.556C16.5845 21.3654 15.7494 19.8694 15.361 18.2357L15.2897 17.9066C14.9613 16.2552 15.0985 14.5473 15.6833 12.973L15.8063 12.6595C16.4507 11.1041 17.514 9.76069 18.8747 8.7767L19.1511 8.58432C20.6444 7.58658 22.4 7.05405 24.196 7.05405V9.46811ZM23.196 8.11752C21.9521 8.27267 20.7566 8.71485 19.7067 9.41635C18.3779 10.3043 17.3418 11.5658 16.7302 13.0423C16.1186 14.5188 15.9585 16.1438 16.2702 17.7113C16.582 19.2788 17.352 20.7188 18.4821 21.849C19.6123 22.9791 21.0522 23.7491 22.6198 24.0609C24.1873 24.3726 25.8122 24.2125 27.2888 23.6009C28.7653 22.9893 30.0268 21.9532 30.9147 20.6244C31.5908 19.6125 32.0235 18.4652 32.1931 17.2699H31.7751C31.6085 18.383 31.2015 19.4513 30.571 20.3949C29.7285 21.6557 28.5305 22.6378 27.1296 23.2181C25.7287 23.7983 24.1871 23.9504 22.6999 23.6546C21.2128 23.3587 19.8463 22.6291 18.7741 21.557C17.7019 20.4848 16.9723 19.1183 16.6765 17.6312C16.3806 16.144 16.5328 14.6024 17.113 13.2015C17.6933 11.8006 18.6754 10.6026 19.9362 9.7601C20.9179 9.10416 22.0342 8.68737 23.196 8.53452V8.11752Z" fill="#44C2F0"/>
<path d="M24.196 9.46811L24.196 10.4681C24.7483 10.4681 25.196 10.0204 25.196 9.46811H24.196ZM20.4919 10.5921L19.9363 9.76066C19.9311 9.76414 19.926 9.76766 19.9208 9.77123L20.4919 10.5921ZM20.2897 10.7328L19.7187 9.91185C19.7137 9.91532 19.7087 9.91884 19.7038 9.9224L20.2897 10.7328ZM18.0368 13.5833L17.113 13.2006C17.1107 13.2059 17.1086 13.2113 17.1064 13.2167L18.0368 13.5833ZM17.946 13.8138L17.0156 13.4472C17.0132 13.4533 17.0108 13.4595 17.0086 13.4656L17.946 13.8138ZM17.6569 17.4359L16.6761 17.631L16.6761 17.631L17.6569 17.4359ZM19.4821 20.849L18.775 21.5561L18.775 21.5561L19.4821 20.849ZM22.8952 22.6742L22.7001 23.6549L22.7001 23.6549L22.8952 22.6742ZM26.5173 22.3851L26.8654 23.3225C26.8716 23.3202 26.8778 23.3179 26.8839 23.3155L26.5173 22.3851ZM26.7477 22.2943L27.1144 23.2246C27.1198 23.2225 27.1251 23.2204 27.1305 23.2181L26.7477 22.2943ZM29.5983 20.0423L30.4086 20.6284C30.412 20.6237 30.4154 20.6189 30.4187 20.6142L29.5983 20.0423ZM29.7399 19.8392L30.5603 20.4111C30.564 20.4057 30.5678 20.4002 30.5714 20.3947L29.7399 19.8392ZM30.7643 17.2699L31.7498 17.44C31.7999 17.1493 31.7192 16.8513 31.5292 16.6257C31.3392 16.4001 31.0593 16.2699 30.7643 16.2699V17.2699ZM27.8317 17.2699L27.0097 16.7004C26.7979 17.0062 26.7733 17.4043 26.9459 17.7339C27.1185 18.0634 27.4597 18.2699 27.8317 18.2699V17.2699ZM31.7634 11.5941L32.5853 11.0246C32.3985 10.7549 32.0913 10.5941 31.7633 10.5941C31.4353 10.5941 31.1281 10.755 30.9413 11.0247L31.7634 11.5941ZM35.696 17.2699V18.2699C36.068 18.2699 36.4093 18.0634 36.5819 17.7338C36.7544 17.4042 36.7298 17.0061 36.518 16.7003L35.696 17.2699ZM33.2048 17.2699V16.2699C32.7008 16.2699 32.2756 16.6449 32.2126 17.1449L33.2048 17.2699ZM31.7468 21.18L32.5675 21.7513C32.5711 21.7461 32.5747 21.7409 32.5783 21.7356L31.7468 21.18ZM31.5544 21.4564L32.3647 22.0424C32.3682 22.0375 32.3717 22.0326 32.3751 22.0277L31.5544 21.4564ZM27.6716 24.5247L28.037 25.4556C28.0428 25.4533 28.0485 25.451 28.0543 25.4486L27.6716 24.5247ZM27.3581 24.6478L27.7063 25.5852C27.7121 25.5831 27.7178 25.5809 27.7235 25.5787L27.3581 24.6478ZM22.7556 25.1009L22.5785 26.0851C22.5846 26.0862 22.5908 26.0873 22.5969 26.0883L22.7556 25.1009ZM22.4245 25.0414L22.2294 26.0221C22.2354 26.0233 22.2414 26.0245 22.2474 26.0255L22.4245 25.0414ZM18.0173 22.7894L17.3234 23.5094C17.3278 23.5137 17.3323 23.518 17.3368 23.5222L18.0173 22.7894ZM17.7751 22.556L17.068 23.2631C17.0723 23.2675 17.0767 23.2718 17.0812 23.2761L17.7751 22.556ZM15.361 18.2357L14.3837 18.4474C14.3851 18.4539 14.3866 18.4605 14.3881 18.467L15.361 18.2357ZM15.2897 17.9066L14.3089 18.1017C14.3101 18.1072 14.3112 18.1128 14.3124 18.1183L15.2897 17.9066ZM15.6833 12.973L14.7524 12.6076C14.7502 12.6133 14.748 12.619 14.7459 12.6248L15.6833 12.973ZM15.8063 12.6595L14.8825 12.2768C14.8801 12.2825 14.8778 12.2883 14.8755 12.2941L15.8063 12.6595ZM18.8747 8.7767L18.3034 7.95598C18.2985 7.9594 18.2936 7.96287 18.2887 7.96638L18.8747 8.7767ZM19.1511 8.58432L18.5955 7.75283C18.5902 7.75637 18.585 7.75996 18.5797 7.76359L19.1511 8.58432ZM24.196 7.05405H25.196C25.196 6.78883 25.0906 6.53448 24.9031 6.34694C24.7156 6.1594 24.4612 6.05405 24.196 6.05405L24.196 7.05405ZM23.196 8.11752H24.196C24.196 7.83074 24.0729 7.55776 23.8579 7.36793C23.6429 7.17811 23.3568 7.08972 23.0722 7.12521L23.196 8.11752ZM19.7067 9.41635L19.1512 8.58488L19.1512 8.58488L19.7067 9.41635ZM16.7302 13.0423L15.8063 12.6596L15.8063 12.6596L16.7302 13.0423ZM16.2702 17.7113L15.2894 17.9063L15.2894 17.9064L16.2702 17.7113ZM18.4821 21.849L17.775 22.5561L17.775 22.5561L18.4821 21.849ZM22.6198 24.0609L22.4247 25.0417L22.4248 25.0417L22.6198 24.0609ZM27.2888 23.6009L27.6714 24.5248L27.6715 24.5248L27.2888 23.6009ZM30.9147 20.6244L31.7462 21.1799L31.7462 21.1799L30.9147 20.6244ZM32.1931 17.2699L33.1831 17.4103C33.2238 17.1235 33.1381 16.8331 32.9482 16.6143C32.7583 16.3955 32.4828 16.2699 32.1931 16.2699V17.2699ZM31.7751 17.2699V16.2699C31.28 16.2699 30.8594 16.6322 30.7861 17.1219L31.7751 17.2699ZM30.571 20.3949L31.4024 20.9504L31.4025 20.9504L30.571 20.3949ZM27.1296 23.2181L27.5122 24.142L27.5123 24.142L27.1296 23.2181ZM22.6999 23.6546L22.5048 24.6354L22.5048 24.6354L22.6999 23.6546ZM18.7741 21.557L18.067 22.2641L18.067 22.2641L18.7741 21.557ZM16.6765 17.6312L15.6957 17.8263L15.6957 17.8263L16.6765 17.6312ZM17.113 13.2015L16.1891 12.8188L16.1891 12.8189L17.113 13.2015ZM19.9362 9.7601L19.3806 8.92863L19.3806 8.92864L19.9362 9.7601ZM23.196 8.53452L23.3264 9.52597C23.824 9.4605 24.196 9.03638 24.196 8.53452H23.196ZM24.196 9.46811L24.196 8.46811C22.6794 8.46812 21.197 8.91831 19.9363 9.76066L20.4919 10.5921L21.0475 11.4236C21.9796 10.8008 23.0754 10.4681 24.196 10.4681L24.196 9.46811ZM20.4919 10.5921L19.9208 9.77123L19.7187 9.91185L20.2897 10.7328L20.8608 11.5537L21.0629 11.413L20.4919 10.5921ZM20.2897 10.7328L19.7038 9.9224C18.5549 10.7531 17.6571 11.8872 17.113 13.2006L18.0368 13.5833L18.9607 13.9661C19.3628 12.9955 20.0263 12.1572 20.8757 11.5431L20.2897 10.7328ZM18.0368 13.5833L17.1064 13.2167L17.0156 13.4472L17.946 13.8138L18.8764 14.1804L18.9672 13.95L18.0368 13.5833ZM17.946 13.8138L17.0086 13.4656C16.5149 14.7947 16.3988 16.2368 16.6761 17.631L17.6569 17.4359L18.6377 17.2408C18.4327 16.2103 18.5185 15.1444 18.8834 14.162L17.946 13.8138ZM17.6569 17.4359L16.6761 17.631C16.9721 19.1186 17.7031 20.4841 18.775 21.5561L19.4821 20.849L20.1892 20.1419C19.3964 19.349 18.8563 18.3397 18.6377 17.2408L17.6569 17.4359ZM19.4821 20.849L18.775 21.5561C19.847 22.628 21.2125 23.359 22.7001 23.6549L22.8952 22.6742L23.0903 21.6934C21.9914 21.4748 20.982 20.9347 20.1892 20.1419L19.4821 20.849ZM22.8952 22.6742L22.7001 23.6549C24.0943 23.9323 25.5364 23.8162 26.8654 23.3225L26.5173 22.3851L26.1691 21.4477C25.1867 21.8125 24.1208 21.8984 23.0903 21.6934L22.8952 22.6742ZM26.5173 22.3851L26.8839 23.3155L27.1144 23.2246L26.7477 22.2943L26.3811 21.3639L26.1506 21.4547L26.5173 22.3851ZM26.7477 22.2943L27.1305 23.2181C28.4433 22.6742 29.5778 21.7771 30.4086 20.6284L29.5983 20.0423L28.788 19.4563C28.1741 20.3051 27.3357 20.9683 26.365 21.3704L26.7477 22.2943ZM29.5983 20.0423L30.4187 20.6142L30.5603 20.4111L29.7399 19.8392L28.9196 19.2673L28.778 19.4705L29.5983 20.0423ZM29.7399 19.8392L30.5714 20.3947C31.1703 19.4983 31.5684 18.4906 31.7498 17.44L30.7643 17.2699L29.7789 17.0998C29.6445 17.8783 29.35 18.6228 28.9084 19.2837L29.7399 19.8392ZM30.7643 17.2699V16.2699H27.8317V17.2699V18.2699H30.7643V17.2699ZM27.8317 17.2699L28.6538 17.8393L32.5854 12.1635L31.7634 11.5941L30.9413 11.0247L27.0097 16.7004L27.8317 17.2699ZM31.7634 11.5941L30.9414 12.1636L34.874 17.8394L35.696 17.2699L36.518 16.7003L32.5853 11.0246L31.7634 11.5941ZM35.696 17.2699V16.2699H33.2048V17.2699V18.2699H35.696V17.2699ZM33.2048 17.2699L32.2126 17.1449C32.0563 18.3857 31.6146 19.5778 30.9153 20.6245L31.7468 21.18L32.5783 21.7356C33.4513 20.4289 34.0021 18.9416 34.1969 17.3948L33.2048 17.2699ZM31.7468 21.18L30.926 20.6087L30.7337 20.8851L31.5544 21.4564L32.3751 22.0277L32.5675 21.7513L31.7468 21.18ZM31.5544 21.4564L30.7441 20.8704C29.8684 22.0814 28.6729 23.0275 27.2888 23.6009L27.6716 24.5247L28.0543 25.4486C29.7811 24.7333 31.2724 23.5529 32.3647 22.0424L31.5544 21.4564ZM27.6716 24.5247L27.3062 23.5939L26.9927 23.7169L27.3581 24.6478L27.7235 25.5787L28.037 25.4556L27.6716 24.5247ZM27.3581 24.6478L27.0099 23.7104C25.7025 24.196 24.2914 24.3349 22.9142 24.1136L22.7556 25.1009L22.5969 26.0883C24.3148 26.3643 26.0751 26.1911 27.7063 25.5852L27.3581 24.6478ZM22.7556 25.1009L22.9327 24.1167L22.6016 24.0572L22.4245 25.0414L22.2474 26.0255L22.5785 26.0851L22.7556 25.1009ZM22.4245 25.0414L22.6196 24.0606C21.1501 23.7683 19.7929 23.0735 18.6977 22.0566L18.0173 22.7894L17.3368 23.5222C18.703 24.7907 20.396 25.6575 22.2294 26.0221L22.4245 25.0414ZM18.0173 22.7894L18.7112 22.0693L18.469 21.8359L17.7751 22.556L17.0812 23.2761L17.3234 23.5094L18.0173 22.7894ZM17.7751 22.556L18.4822 21.8489C17.4225 20.7892 16.6795 19.4579 16.3339 18.0044L15.361 18.2357L14.3881 18.467C14.8194 20.2809 15.7465 21.9417 17.068 23.2631L17.7751 22.556ZM15.361 18.2357L16.3384 18.024L16.2671 17.6949L15.2897 17.9066L14.3124 18.1183L14.3837 18.4474L15.361 18.2357ZM15.2897 17.9066L16.2705 17.7115C15.9782 16.2418 16.1003 14.722 16.6207 13.3212L15.6833 12.973L14.7459 12.6248C14.0966 14.3725 13.9443 16.2685 14.3089 18.1017L15.2897 17.9066ZM15.6833 12.973L16.6141 13.3384L16.7372 13.0249L15.8063 12.6595L14.8755 12.2941L14.7524 12.6076L15.6833 12.973ZM15.8063 12.6595L16.7302 13.0422C17.3036 11.6582 18.2498 10.4627 19.4607 9.58703L18.8747 8.7767L18.2887 7.96638C16.7782 9.05868 15.5978 10.55 14.8825 12.2768L15.8063 12.6595ZM18.8747 8.7767L19.446 9.59743L19.7224 9.40505L19.1511 8.58432L18.5797 7.76359L18.3034 7.95598L18.8747 8.7767ZM19.1511 8.58432L19.7066 9.41581C21.0355 8.52794 22.5978 8.05405 24.196 8.05405L24.196 7.05405L24.196 6.05405C22.2023 6.05405 20.2533 6.64523 18.5955 7.75283L19.1511 8.58432ZM24.196 7.05405H23.196V9.46811H24.196H25.196V7.05405H24.196ZM23.196 8.11752L23.0722 7.12521C21.6749 7.2995 20.3313 7.79631 19.1512 8.58488L19.7067 9.41635L20.2623 10.2478C21.1819 9.63339 22.2293 9.24584 23.3198 9.10983L23.196 8.11752ZM19.7067 9.41635L19.1512 8.58488C17.6581 9.58253 16.4937 11.0002 15.8063 12.6596L16.7302 13.0423L17.654 13.425C18.1899 12.1315 19.0977 11.026 20.2623 10.2478L19.7067 9.41635ZM16.7302 13.0423L15.8063 12.6596C15.119 14.3189 14.9391 16.1449 15.2894 17.9063L16.2702 17.7113L17.251 17.5162C16.9779 16.1427 17.1181 14.7188 17.654 13.425L16.7302 13.0423ZM16.2702 17.7113L15.2894 17.9064C15.6398 19.668 16.5051 21.2861 17.775 22.5561L18.4821 21.849L19.1892 21.1419C18.1989 20.1515 17.5242 18.8897 17.251 17.5162L16.2702 17.7113ZM18.4821 21.849L17.775 22.5561C19.0449 23.826 20.6631 24.6913 22.4247 25.0417L22.6198 24.0609L22.8149 23.0801C21.4414 22.8069 20.1796 22.1322 19.1892 21.1419L18.4821 21.849ZM22.6198 24.0609L22.4248 25.0417C24.1862 25.392 26.0122 25.2121 27.6714 24.5248L27.2888 23.6009L26.9061 22.677C25.6123 23.213 24.1884 23.3532 22.8149 23.0801L22.6198 24.0609ZM27.2888 23.6009L27.6715 24.5248C29.3309 23.8374 30.7486 22.673 31.7462 21.1799L30.9147 20.6244L30.0833 20.0688C29.3051 21.2334 28.1996 22.1412 26.906 22.6771L27.2888 23.6009ZM30.9147 20.6244L31.7462 21.1799C32.507 20.0414 32.9929 18.7517 33.1831 17.4103L32.1931 17.2699L31.203 17.1294C31.0541 18.1786 30.6747 19.1837 30.0833 20.0688L30.9147 20.6244ZM32.1931 17.2699V16.2699H31.7751V17.2699V18.2699H32.1931V17.2699ZM31.7751 17.2699L30.7861 17.1219C30.6409 18.0919 30.2866 19.0205 29.7395 19.8393L30.571 20.3949L31.4025 20.9504C32.1163 19.882 32.5761 18.6741 32.7641 17.4179L31.7751 17.2699ZM30.571 20.3949L29.7395 19.8393C29.0071 20.9353 27.9654 21.7895 26.7469 22.2942L27.1296 23.2181L27.5123 24.142C29.0956 23.4862 30.4499 22.376 31.4024 20.9504L30.571 20.3949ZM27.1296 23.2181L26.7469 22.2942C25.5286 22.7988 24.188 22.9311 22.895 22.6738L22.6999 23.6546L22.5048 24.6354C24.1861 24.9698 25.9287 24.7978 27.5122 24.142L27.1296 23.2181ZM22.6999 23.6546L22.895 22.6739C21.6015 22.4165 20.4133 21.7819 19.4812 20.8499L18.7741 21.557L18.067 22.2641C19.2793 23.4763 20.824 24.301 22.5048 24.6354L22.6999 23.6546ZM18.7741 21.557L19.4812 20.8499C18.5491 19.9178 17.9146 18.7295 17.6572 17.4361L16.6765 17.6312L15.6957 17.8263C16.0301 19.5071 16.8548 21.0518 18.067 22.2641L18.7741 21.557ZM16.6765 17.6312L17.6572 17.4361C17.4 16.143 17.5323 14.8025 18.0369 13.5842L17.113 13.2015L16.1891 12.8189C15.5332 14.4023 15.3612 16.145 15.6957 17.8263L16.6765 17.6312ZM17.113 13.2015L18.0369 13.5842C18.5416 12.3656 19.3958 11.3239 20.4918 10.5916L19.9362 9.7601L19.3806 8.92864C17.9551 9.88118 16.8449 11.2355 16.1891 12.8188L17.113 13.2015ZM19.9362 9.7601L20.4918 10.5916C21.3449 10.0215 22.3155 9.65898 23.3264 9.52597L23.196 8.53452L23.0655 7.54306C21.7529 7.71577 20.4909 8.18678 19.3806 8.92863L19.9362 9.7601ZM23.196 8.53452H24.196V8.11752H23.196H22.196V8.53452H23.196Z" fill="black" mask="url(#path-4-outside-2_13_7394)"/>
</svg>
