<svg width="16" height="16" viewBox="0 0 16 16" fill="none" xmlns="http://www.w3.org/2000/svg">
<path d="M8.0026 10C7.92793 10 7.85556 9.98724 7.78551 9.96172C7.71545 9.9362 7.6498 9.89239 7.58856 9.83031L4.63734 6.83841C4.54254 6.7423 4.49681 6.62747 4.50017 6.49393C4.50352 6.36039 4.5526 6.24556 4.64742 6.14945C4.74222 6.05334 4.85716 6.00528 4.99224 6.00528C5.12731 6.00528 5.24225 6.05334 5.33705 6.14945L8.0026 8.85175L10.6782 6.13925C10.773 6.04314 10.8863 5.99678 11.018 6.00017C11.1497 6.00358 11.263 6.05334 11.3578 6.14945C11.4526 6.24556 11.5 6.36209 11.5 6.49904C11.5 6.63597 11.4526 6.7525 11.3578 6.84861L8.41664 9.83031C8.35539 9.89239 8.29079 9.9362 8.22283 9.96172C8.15488 9.98724 8.08147 10 8.0026 10Z" fill="white"/>
</svg>
