<svg width="24" height="25" viewBox="0 0 24 25" fill="none" xmlns="http://www.w3.org/2000/svg">
<g filter="url(#filter0_d_8406_211898)">
<path d="M6.43313 22.2178C6.14438 21.9291 6 21.579 6 21.1677C6 20.7563 6.14438 20.4063 6.43313 20.1176L14.5507 11.9999L6.43313 3.88233C6.14438 3.59361 6 3.24358 6 2.83223C6 2.42088 6.14438 2.07084 6.43313 1.78213C6.72184 1.49338 7.07188 1.349 7.48323 1.349C7.89458 1.349 8.24461 1.49338 8.53333 1.78213L17.4902 10.739C17.6768 10.9255 17.8084 11.1223 17.885 11.3293C17.9617 11.5362 18 11.7598 18 11.9999C18 12.2401 17.9617 12.4637 17.885 12.6706C17.8084 12.8776 17.6768 13.0744 17.4902 13.2609L8.53333 22.2178C8.24461 22.5065 7.89458 22.6509 7.48323 22.6509C7.07188 22.6509 6.72184 22.5065 6.43313 22.2178Z" fill="#7DAC4D"/>
<path d="M7.4834 0.848999C8.02604 0.84904 8.50355 1.04506 8.88672 1.4281L17.8438 10.3851C18.0714 10.6128 18.2474 10.8692 18.3535 11.1556L18.4189 11.3588C18.474 11.5649 18.5 11.7797 18.5 12.0004C18.5 12.2944 18.4525 12.577 18.3535 12.8441C18.2474 13.1306 18.0715 13.387 17.8438 13.6146L8.88672 22.5717C8.50354 22.9547 8.02607 23.1507 7.4834 23.1508C6.94053 23.1508 6.46237 22.955 6.0791 22.5717C5.69585 22.1884 5.5 21.7102 5.5 21.1674C5.50008 20.6247 5.69604 20.1472 6.0791 19.764L13.8428 11.9994L6.0791 4.23572V4.23474C5.69638 3.85166 5.50004 3.3748 5.5 2.8324C5.5 2.28953 5.69677 1.81136 6.08008 1.4281C6.46326 1.04513 6.94077 0.848999 7.4834 0.848999Z" stroke="#7DAC4D"/>
</g>
<defs>
<filter id="filter0_d_8406_211898" x="5" y="0.348999" width="14" height="24.3019" filterUnits="userSpaceOnUse" color-interpolation-filters="sRGB">
<feFlood flood-opacity="0" result="BackgroundImageFix"/>
<feColorMatrix in="SourceAlpha" type="matrix" values="0 0 0 0 0 0 0 0 0 0 0 0 0 0 0 0 0 0 127 0" result="hardAlpha"/>
<feOffset dy="1"/>
<feComposite in2="hardAlpha" operator="out"/>
<feColorMatrix type="matrix" values="0 0 0 0 0.0784314 0 0 0 0 0.219608 0 0 0 0 0.00392157 0 0 0 1 0"/>
<feBlend mode="normal" in2="BackgroundImageFix" result="effect1_dropShadow_8406_211898"/>
<feBlend mode="normal" in="SourceGraphic" in2="effect1_dropShadow_8406_211898" result="shape"/>
</filter>
</defs>
</svg>
