<svg width="16" height="12" viewBox="0 0 16 12" fill="none" xmlns="http://www.w3.org/2000/svg">
<path d="M16.0078 0.546875V1.38672H6.39844L3.50781 11.9531H2.43359L-0.0078125 5.97656L1.35938 5.33203L2.80469 8.84766L5.26562 0.546875H16.0078ZM12.8047 10.3711C12.8177 10.3711 12.8307 10.3646 12.8438 10.3516C12.8568 10.3385 12.8698 10.3255 12.8828 10.3125C12.8958 10.3125 12.9089 10.306 12.9219 10.293C12.9349 10.2669 12.9544 10.2474 12.9805 10.2344C12.9935 10.2214 13.0065 10.2083 13.0195 10.1953C13.0456 10.1693 13.0651 10.1497 13.0781 10.1367C13.0911 10.1107 13.1107 10.0911 13.1367 10.0781C13.1628 10.0521 13.1888 10.026 13.2148 10V10.332C13.1107 10.4883 13 10.625 12.8828 10.7422C12.7786 10.8464 12.6745 10.931 12.5703 10.9961C12.4661 11.0742 12.362 11.1328 12.2578 11.1719C12.1536 11.2109 12.0495 11.2305 11.9453 11.2305C11.8932 11.2305 11.8411 11.224 11.7891 11.2109C11.75 11.1979 11.7109 11.1849 11.6719 11.1719C11.6328 11.1589 11.5938 11.1393 11.5547 11.1133C11.5286 11.0872 11.5026 11.0612 11.4766 11.0352C11.4375 10.9961 11.4049 10.957 11.3789 10.918C11.3659 10.8659 11.3529 10.8073 11.3398 10.7422C11.3268 10.6901 11.3138 10.6315 11.3008 10.5664C11.3008 10.4883 11.3008 10.4102 11.3008 10.332C11.1576 10.4362 11.0273 10.5339 10.9102 10.625C10.793 10.7031 10.6953 10.7747 10.6172 10.8398C10.526 10.9049 10.4479 10.957 10.3828 10.9961C10.3307 11.0352 10.2852 11.0612 10.2461 11.0742C10.194 11.1003 10.1354 11.1263 10.0703 11.1523C10.0182 11.1654 9.96615 11.1784 9.91406 11.1914C9.84896 11.2044 9.78385 11.2174 9.71875 11.2305C9.66667 11.2305 9.61458 11.2305 9.5625 11.2305C9.51042 11.2305 9.45833 11.2305 9.40625 11.2305C9.36719 11.2174 9.32812 11.2109 9.28906 11.2109C9.23698 11.1979 9.19141 11.1849 9.15234 11.1719C9.11328 11.1589 9.07422 11.1458 9.03516 11.1328C8.99609 11.1198 8.95703 11.1068 8.91797 11.0938C8.87891 11.0677 8.84635 11.0417 8.82031 11.0156C8.78125 10.9896 8.74219 10.9635 8.70312 10.9375C8.67708 10.9115 8.65104 10.8854 8.625 10.8594C8.58594 10.8203 8.55339 10.7812 8.52734 10.7422C8.51432 10.7031 8.49479 10.6706 8.46875 10.6445C8.44271 10.6055 8.41667 10.5664 8.39062 10.5273C8.3776 10.4883 8.36458 10.4427 8.35156 10.3906C8.33854 10.3516 8.32552 10.3125 8.3125 10.2734C8.29948 10.2214 8.28646 10.1693 8.27344 10.1172C8.26042 10.0781 8.25391 10.0326 8.25391 9.98047C8.25391 9.92839 8.25391 9.8763 8.25391 9.82422C8.25391 9.78516 8.25391 9.74609 8.25391 9.70703C8.25391 9.66797 8.26042 9.62891 8.27344 9.58984C8.27344 9.5638 8.27344 9.53776 8.27344 9.51172C8.28646 9.47266 8.29948 9.43359 8.3125 9.39453C8.32552 9.36849 8.33854 9.34245 8.35156 9.31641C8.36458 9.27734 8.3776 9.23828 8.39062 9.19922C8.41667 9.17318 8.4362 9.14714 8.44922 9.12109C8.46224 9.09505 8.47526 9.0625 8.48828 9.02344C8.51432 8.9974 8.54036 8.97135 8.56641 8.94531C8.59245 8.91927 8.61849 8.88672 8.64453 8.84766C8.67057 8.82161 8.69661 8.79557 8.72266 8.76953C8.7487 8.74349 8.78125 8.71745 8.82031 8.69141C8.84635 8.66536 8.87891 8.63932 8.91797 8.61328C8.95703 8.58724 8.99609 8.55469 9.03516 8.51562C9.07422 8.48958 9.11328 8.47005 9.15234 8.45703C9.19141 8.43099 9.23047 8.40495 9.26953 8.37891C9.3737 8.3138 9.4974 8.2487 9.64062 8.18359C9.78385 8.10547 9.93359 8.03385 10.0898 7.96875C10.2591 7.89062 10.4414 7.81901 10.6367 7.75391C10.8451 7.67578 11.0664 7.59115 11.3008 7.5V7.28516C11.3008 7.22005 11.2943 7.15495 11.2812 7.08984C11.2812 7.02474 11.2812 6.96615 11.2812 6.91406C11.2682 6.84896 11.2552 6.79036 11.2422 6.73828C11.2422 6.6862 11.2357 6.64062 11.2227 6.60156C11.2096 6.5625 11.1966 6.52344 11.1836 6.48438C11.1706 6.43229 11.1576 6.38672 11.1445 6.34766C11.1315 6.32161 11.112 6.29557 11.0859 6.26953C11.0729 6.23047 11.0534 6.19792 11.0273 6.17188C11.0143 6.13281 10.9948 6.10677 10.9688 6.09375C10.9427 6.06771 10.9167 6.04167 10.8906 6.01562C10.8516 6.0026 10.819 5.98958 10.793 5.97656C10.7669 5.96354 10.7409 5.95052 10.7148 5.9375C10.6758 5.92448 10.6367 5.91146 10.5977 5.89844C10.5716 5.88542 10.5456 5.87891 10.5195 5.87891C10.4805 5.87891 10.4414 5.87891 10.4023 5.87891C10.3633 5.86589 10.3242 5.85938 10.2852 5.85938C10.2461 5.85938 10.207 5.85938 10.168 5.85938C10.1419 5.85938 10.1159 5.86589 10.0898 5.87891C10.0638 5.87891 10.0378 5.88542 10.0117 5.89844C9.98568 5.89844 9.95964 5.90495 9.93359 5.91797C9.90755 5.93099 9.88151 5.94401 9.85547 5.95703C9.84245 5.97005 9.82292 5.97656 9.79688 5.97656C9.77083 5.98958 9.74479 6.00911 9.71875 6.03516C9.70573 6.04818 9.69271 6.0612 9.67969 6.07422C9.66667 6.08724 9.64714 6.10026 9.62109 6.11328C9.60807 6.1263 9.59505 6.14583 9.58203 6.17188C9.56901 6.1849 9.55599 6.20443 9.54297 6.23047C9.52995 6.24349 9.52344 6.26302 9.52344 6.28906C9.51042 6.30208 9.4974 6.32161 9.48438 6.34766C9.48438 6.36068 9.47786 6.38021 9.46484 6.40625C9.46484 6.41927 9.45833 6.4388 9.44531 6.46484C9.44531 6.49089 9.44531 6.51693 9.44531 6.54297L9.46484 6.875C9.46484 6.91406 9.45833 6.95964 9.44531 7.01172C9.44531 7.05078 9.4388 7.08333 9.42578 7.10938C9.42578 7.14844 9.41276 7.1875 9.38672 7.22656C9.3737 7.2526 9.35417 7.27865 9.32812 7.30469C9.30208 7.31771 9.27604 7.33724 9.25 7.36328C9.22396 7.3763 9.19792 7.38932 9.17188 7.40234C9.14583 7.42839 9.11328 7.44792 9.07422 7.46094C9.03516 7.46094 8.99609 7.46094 8.95703 7.46094C8.91797 7.46094 8.87891 7.46094 8.83984 7.46094C8.8138 7.44792 8.78776 7.42839 8.76172 7.40234C8.73568 7.38932 8.70964 7.3763 8.68359 7.36328C8.65755 7.33724 8.63151 7.31771 8.60547 7.30469C8.57943 7.26562 8.55339 7.23307 8.52734 7.20703C8.51432 7.16797 8.5013 7.13542 8.48828 7.10938C8.48828 7.07031 8.48177 7.03125 8.46875 6.99219C8.46875 6.95312 8.46875 6.91406 8.46875 6.875C8.46875 6.83594 8.46875 6.79688 8.46875 6.75781C8.48177 6.70573 8.48828 6.66016 8.48828 6.62109C8.5013 6.58203 8.51432 6.54297 8.52734 6.50391C8.55339 6.46484 8.57943 6.41927 8.60547 6.36719C8.61849 6.32812 8.63802 6.28906 8.66406 6.25C8.6901 6.21094 8.72266 6.17188 8.76172 6.13281C8.78776 6.09375 8.82031 6.0612 8.85938 6.03516C8.89844 5.99609 8.94401 5.96354 8.99609 5.9375C9.03516 5.89844 9.07422 5.86589 9.11328 5.83984C9.16536 5.80078 9.21745 5.76823 9.26953 5.74219C9.32161 5.71615 9.3737 5.69661 9.42578 5.68359C9.49089 5.65755 9.55599 5.63151 9.62109 5.60547C9.67318 5.59245 9.73177 5.57943 9.79688 5.56641C9.86198 5.55339 9.92708 5.54036 9.99219 5.52734C10.0703 5.51432 10.1484 5.50781 10.2266 5.50781C10.3047 5.49479 10.3828 5.48828 10.4609 5.48828C10.5651 5.48828 10.6628 5.49479 10.7539 5.50781C10.8581 5.50781 10.9557 5.52083 11.0469 5.54688C11.138 5.5599 11.2227 5.57943 11.3008 5.60547C11.3789 5.63151 11.457 5.65755 11.5352 5.68359C11.6133 5.70964 11.6784 5.7487 11.7305 5.80078C11.7956 5.83984 11.8542 5.88542 11.9062 5.9375C11.9583 5.98958 12.0039 6.04818 12.043 6.11328C12.0951 6.17839 12.1406 6.25 12.1797 6.32812C12.1927 6.36719 12.2057 6.41927 12.2188 6.48438C12.2318 6.54948 12.2448 6.6276 12.2578 6.71875C12.2708 6.79688 12.2773 6.89453 12.2773 7.01172C12.2773 7.11589 12.2773 7.23307 12.2773 7.36328V9.21875C12.2773 9.28385 12.2773 9.34896 12.2773 9.41406C12.2773 9.46615 12.2773 9.51823 12.2773 9.57031C12.2773 9.63542 12.2773 9.69401 12.2773 9.74609C12.2773 9.78516 12.2773 9.82422 12.2773 9.86328C12.2773 9.90234 12.2773 9.94141 12.2773 9.98047C12.2904 10.0065 12.2969 10.0326 12.2969 10.0586C12.2969 10.0846 12.2969 10.1107 12.2969 10.1367C12.2969 10.1497 12.2969 10.1628 12.2969 10.1758C12.3099 10.2148 12.3164 10.2474 12.3164 10.2734C12.3294 10.2865 12.3424 10.306 12.3555 10.332C12.3555 10.3581 12.362 10.3776 12.375 10.3906C12.388 10.4036 12.401 10.4167 12.4141 10.4297C12.4271 10.4297 12.4336 10.4362 12.4336 10.4492C12.4466 10.4492 12.4596 10.4557 12.4727 10.4688C12.4857 10.4688 12.4987 10.4753 12.5117 10.4883C12.5247 10.4883 12.5443 10.4883 12.5703 10.4883C12.5833 10.4883 12.5898 10.4883 12.5898 10.4883C12.6029 10.4753 12.6159 10.4688 12.6289 10.4688C12.6419 10.4688 12.6484 10.4688 12.6484 10.4688C12.6615 10.4688 12.668 10.4688 12.668 10.4688C12.681 10.4557 12.694 10.4492 12.707 10.4492C12.7201 10.4362 12.7266 10.4297 12.7266 10.4297C12.7396 10.4297 12.7526 10.4297 12.7656 10.4297C12.7786 10.4167 12.7917 10.4036 12.8047 10.3906V10.3711ZM11.3008 9.94141V7.85156C11.2227 7.89062 11.1445 7.92318 11.0664 7.94922C11.0013 7.97526 10.9362 8.0013 10.8711 8.02734C10.806 8.05339 10.7474 8.07943 10.6953 8.10547C10.6432 8.13151 10.5977 8.15104 10.5586 8.16406C10.5065 8.1901 10.4609 8.21615 10.4219 8.24219C10.3828 8.25521 10.3438 8.26823 10.3047 8.28125C10.2656 8.30729 10.2331 8.32682 10.207 8.33984C10.181 8.35286 10.1615 8.36589 10.1484 8.37891C10.0573 8.41797 9.97917 8.46354 9.91406 8.51562C9.84896 8.55469 9.78385 8.59375 9.71875 8.63281C9.66667 8.6849 9.61458 8.73698 9.5625 8.78906C9.52344 8.82812 9.48438 8.8737 9.44531 8.92578C9.41927 8.96484 9.39323 9.01042 9.36719 9.0625C9.34115 9.11458 9.32161 9.16667 9.30859 9.21875C9.29557 9.27083 9.28255 9.32292 9.26953 9.375C9.25651 9.42708 9.25 9.48568 9.25 9.55078C9.25 9.57682 9.25 9.60938 9.25 9.64844C9.26302 9.67448 9.26953 9.70703 9.26953 9.74609C9.28255 9.77214 9.28906 9.80469 9.28906 9.84375C9.30208 9.88281 9.3151 9.91536 9.32812 9.94141C9.34115 9.98047 9.35417 10.013 9.36719 10.0391C9.38021 10.0651 9.39323 10.0911 9.40625 10.1172C9.41927 10.1432 9.43229 10.1693 9.44531 10.1953C9.47135 10.2083 9.49089 10.2279 9.50391 10.2539C9.52995 10.2799 9.54948 10.306 9.5625 10.332C9.58854 10.3451 9.61458 10.3581 9.64062 10.3711C9.65365 10.3971 9.67318 10.4167 9.69922 10.4297C9.72526 10.4427 9.75781 10.4557 9.79688 10.4688C9.8099 10.4818 9.82943 10.4948 9.85547 10.5078C9.88151 10.5078 9.90755 10.5143 9.93359 10.5273C9.95964 10.5404 9.98568 10.5469 10.0117 10.5469C10.0508 10.5469 10.0833 10.5469 10.1094 10.5469C10.1875 10.5469 10.2656 10.5339 10.3438 10.5078C10.4349 10.4818 10.5326 10.4492 10.6367 10.4102C10.7279 10.3581 10.8255 10.293 10.9297 10.2148C11.0469 10.1367 11.1706 10.0456 11.3008 9.94141Z" fill="black"/>
</svg>
