<svg width="11" height="10" viewBox="0 0 11 10" fill="none" xmlns="http://www.w3.org/2000/svg">
<path d="M5.13 8.14823L2.53573 9.71273C2.43913 9.76915 2.34232 9.79288 2.24529 9.78391C2.14825 9.77493 2.06041 9.74223 1.98175 9.6858C1.90311 9.62938 1.84242 9.55564 1.79967 9.46459C1.75692 9.37355 1.75008 9.27288 1.77915 9.1626L2.46778 6.21697L0.177445 4.2344C0.091956 4.16002 0.0374582 4.0739 0.013952 3.97601C-0.00955423 3.87812 -0.00335806 3.78301 0.0325403 3.69069C0.0684497 3.59835 0.120174 3.52291 0.187714 3.46435C0.255254 3.40579 0.347584 3.36753 0.464704 3.34958L3.48728 3.08541L4.66066 0.303914C4.7034 0.200476 4.76816 0.12396 4.85493 0.0743696C4.94171 0.0247898 5.0334 0 5.13 0C5.2266 0 5.31829 0.0247898 5.40507 0.0743696C5.49184 0.12396 5.5566 0.200476 5.59934 0.303914L6.77272 3.08541L9.79529 3.34958C9.91241 3.36753 10.0047 3.40579 10.0723 3.46435C10.1398 3.52291 10.1916 3.59835 10.2275 3.69069C10.2634 3.78301 10.2696 3.87812 10.246 3.97601C10.2225 4.0739 10.168 4.16002 10.0826 4.2344L7.79222 6.21697L8.48085 9.1626C8.50992 9.27288 8.50308 9.37355 8.46033 9.46459C8.41758 9.55564 8.35689 9.62938 8.27825 9.6858C8.19959 9.74223 8.11175 9.77493 8.01471 9.78391C7.91768 9.79288 7.82087 9.76915 7.72427 9.71273L5.13 8.14823Z" fill="white"/>
</svg>
