<svg width="48" height="48" viewBox="0 0 48 48" fill="none" xmlns="http://www.w3.org/2000/svg">
<path d="M43.35 18.43L30.71 5.14C30.57 4.99 30.4 4.89 30.22 4.82C29.32 4.24 28.13 4.28 27.33 5.05C24.59 7.65 24.42 11.93 26.85 14.77C26.56 14.91 26.29 15.08 26.05 15.31L20.61 20.48C17 16.88 11.15 16.77 7.43001 20.3C6.82001 20.88 6.47001 21.66 6.45001 22.5C6.45001 22.79 6.49001 23.08 6.56001 23.35C6.58001 23.72 6.71001 24.07 6.97001 24.35L7.15001 24.54C7.21001 24.61 7.25001 24.69 7.32001 24.75L11.86 29.52L4.37001 40.17C3.84001 40.92 3.92001 41.94 4.55001 42.6C4.73001 42.79 4.95001 42.94 5.19001 43.04L5.21001 43.14C5.68001 43.42 6.19001 43.56 6.71001 43.56C7.23001 43.56 7.79002 43.41 8.27002 43.11L18.58 36.6L22.51 40.74C22.57 40.8 22.64 40.85 22.7 40.9L23.25 41.48C23.87 42.13 24.7 42.46 25.54 42.46C26.32 42.46 27.1 42.17 27.71 41.59C31.49 38 31.64 32 28.05 28.22L27.87 28.03L34.03 22.17C35.31 23.17 36.84 23.71 38.39 23.71C40.15 23.71 41.9 23.06 43.27 21.76C43.73 21.33 43.99 20.74 44 20.11C44.02 19.48 43.78 18.88 43.35 18.42V18.43ZM6.11001 41.59C5.97001 41.68 5.79001 41.66 5.67001 41.54C5.56001 41.42 5.54001 41.24 5.64001 41.1L12.87 30.82L16.74 34.89L6.11001 41.6V41.59ZM8.44001 23.68C8.15001 23.38 8.00001 22.98 8.01001 22.56C8.02001 22.14 8.19001 21.75 8.50001 21.46C11.62 18.5 16.55 18.6 19.55 21.66C18.84 22.84 18.96 24.4 19.95 25.45L22.12 27.73C22.74 28.38 23.57 28.71 24.41 28.71C24.92 28.71 25.44 28.57 25.9 28.32L26.15 28.59C27.6 30.11 28.37 32.11 28.32 34.22C28.27 36.32 27.4 38.28 25.87 39.73C25.24 40.33 24.24 40.3 23.64 39.67L8.44001 23.68ZM27.12 16.45C27.37 16.22 27.68 16.1 28.01 16.05L31.9 20.15C31.84 20.47 31.71 20.78 31.46 21.02L25.49 26.7C24.86 27.3 23.86 27.27 23.26 26.64L21.09 24.36C20.49 23.73 20.52 22.73 21.15 22.13L27.12 16.45ZM29.52 6.22L41.46 18.78C41.6 18.93 41.68 19.13 41.68 19.34C41.68 19.55 41.59 19.75 41.43 19.89C40.36 20.91 38.93 21.47 37.49 21.41C36.02 21.37 34.65 20.77 33.63 19.7L28.2 13.99C26.1 11.79 26.19 8.29 28.4 6.19C28.55 6.05 28.75 5.97 28.94 5.97C29.15 5.97 29.36 6.05 29.51 6.21L29.52 6.22Z" fill="black"/>
<path d="M25.87 39.72C27.39 38.27 28.26 36.31 28.32 34.21C28.37 32.11 27.6 30.11 26.15 28.58L25.9 28.31C25.43 28.56 24.92 28.7 24.41 28.7C23.58 28.7 22.74 28.37 22.12 27.72L19.95 25.44C18.95 24.39 18.83 22.83 19.55 21.65C16.55 18.59 11.62 18.48 8.49999 21.45C8.19999 21.74 8.01999 22.13 8.00999 22.55C7.99999 22.97 8.14999 23.37 8.43999 23.67L23.64 39.66C24.24 40.29 25.24 40.32 25.87 39.72Z" fill="#F3AF1C"/>
<path d="M21.09 24.36L23.26 26.64C23.86 27.27 24.86 27.3 25.49 26.7L31.46 21.02C31.71 20.78 31.84 20.47 31.9 20.15L28.01 16.05C27.68 16.09 27.37 16.21 27.12 16.45L21.15 22.13C20.52 22.73 20.49 23.73 21.09 24.36Z" fill="#F3AF1C"/>
<path d="M28.41 6.19C26.21 8.29 26.12 11.78 28.21 13.99L33.64 19.7C34.65 20.77 36.03 21.38 37.5 21.41C38.94 21.48 40.37 20.91 41.44 19.89C41.59 19.74 41.68 19.55 41.69 19.34C41.69 19.13 41.62 18.93 41.47 18.78L29.53 6.22C29.37 6.06 29.17 5.98 28.96 5.98C28.76 5.98 28.57 6.05 28.42 6.2L28.41 6.19Z" fill="#F3AF1C"/>
<path d="M16.74 34.88L12.87 30.81L5.64 41.09C5.55 41.22 5.56 41.41 5.67 41.53C5.79 41.65 5.97 41.67 6.11 41.58L16.74 34.87V34.88Z" fill="#D9D9D9"/>
</svg>
