<svg width="48" height="48" viewBox="0 0 48 48" fill="none" xmlns="http://www.w3.org/2000/svg">
<g clip-path="url(#clip0_13_7412)">
<path d="M17.08 9.72C17.08 9.72 17.0994 9.73941 17.0994 9.75882" stroke="#8BD7F8" stroke-linecap="round" stroke-linejoin="round"/>
<path d="M5.82001 10.21C5.82001 11.55 6.34001 12.8 7.28001 13.75C8.08001 14.55 9.09001 15.04 10.2 15.18C10.97 15.27 11.64 15.84 11.9 16.61C12.15 17.32 11.99 18.08 11.48 18.58L6.79001 23.27C6.32001 23.74 6.32001 24.51 6.79001 24.98L10.28 28.47C10.58 27.9 10.96 27.39 11.42 26.93C12.63 25.72 14.23 25.06 15.94 25.06C16.46 25.06 16.98 25.12 17.48 25.24C17.73 25.3 17.97 25.38 18.21 25.47C18.45 25.56 18.68 25.66 18.91 25.78C19.14 25.9 19.35 26.03 19.57 26.18C19.99 26.47 20.38 26.82 20.74 27.21C20.92 27.41 21.08 27.62 21.24 27.84C22.93 30.26 22.65 33.64 20.64 35.8C20.14 36.34 19.57 36.77 18.94 37.11L22.43 40.6C22.55 40.72 22.69 40.81 22.83 40.87C23.12 40.99 23.45 40.99 23.74 40.87C23.89 40.81 24.02 40.72 24.14 40.6L28.83 35.91C29.17 35.57 29.63 35.38 30.13 35.38C31.17 35.38 32.11 36.2 32.23 37.2C32.37 38.31 32.86 39.32 33.66 40.12C34.6 41.06 35.86 41.58 37.2 41.58C38.54 41.58 39.79 41.06 40.74 40.12C41.68 39.18 42.2 37.92 42.2 36.58C42.2 35.24 41.68 33.99 40.74 33.04C39.94 32.24 38.93 31.75 37.82 31.61C37.05 31.52 36.38 30.95 36.12 30.18C35.87 29.47 36.03 28.71 36.54 28.21L41.23 23.52C41.7 23.05 41.7 22.28 41.23 21.81L39.33 19.91L38.11 18.69L37.87 18.45C37.87 18.45 37.8 18.41 37.76 18.41C37.72 18.41 37.67 18.43 37.65 18.48C37.51 18.73 37.35 18.97 37.18 19.2C37.01 19.43 36.81 19.65 36.61 19.86C35.4 21.07 33.8 21.73 32.09 21.73C29.99 21.73 28.05 20.72 26.8 18.94C26.59 18.64 26.41 18.32 26.26 17.99C25.96 17.33 25.78 16.63 25.72 15.93C25.57 14.16 26.15 12.33 27.41 10.99C27.91 10.46 28.48 10.02 29.11 9.69L25.62 6.2C25.38 5.96 25.07 5.84 24.76 5.84C24.45 5.84 24.14 5.96 23.9 6.2L19.21 10.89C18.87 11.23 18.41 11.42 17.91 11.42C16.87 11.42 15.93 10.6 15.81 9.6C15.67 8.49 15.18 7.48 14.38 6.68C13.44 5.74 12.18 5.22 10.84 5.22C9.50001 5.22 8.25001 5.74 7.30001 6.68C6.36001 7.62 5.84001 8.88 5.84001 10.22L5.82001 10.21Z" fill="#8BD7F8"/>
<path d="M43.39 36.57C43.39 34.91 42.74 33.35 41.57 32.18C40.58 31.19 39.33 30.58 37.94 30.41C37.77 30.39 37.61 30.3 37.48 30.16L42.05 25.59C42.51 25.13 42.76 24.52 42.76 23.88V22.67C42.76 22.02 42.51 21.41 42.05 20.96L38.69 17.6C38.43 17.34 38.1 17.2 37.74 17.2C37.25 17.2 36.8 17.46 36.56 17.89C36.33 18.3 36.05 18.67 35.71 19.01C34.73 19.99 33.43 20.53 32.05 20.53C30.33 20.53 28.76 19.7 27.76 18.26C27.29 17.58 27.02 16.8 26.93 16C27.05 14.92 27.49 13.86 28.26 13.04C28.66 12.61 29.13 12.25 29.64 11.98C29.98 11.8 30.22 11.47 30.27 11.09C30.31 10.81 30.25 10.02 30.27 9.88001C30.33 9.50001 30.2 9.11001 29.93 8.84001L26.44 5.35001C25.98 4.89001 25.37 4.64001 24.73 4.64001C24.08 4.64001 23.47 4.89001 23.02 5.35001L18.33 10.04C18.26 10.11 18.17 10.15 18.08 10.18C18.03 10.2 17.97 10.21 17.91 10.21C17.91 10.21 17.89 10.21 17.88 10.21C17.87 10.21 17.85 10.21 17.84 10.21C17.76 10.21 17.68 10.19 17.6 10.16C17.49 10.12 17.38 10.06 17.29 9.99001C17.22 9.93001 17.15 9.85001 17.1 9.77001C17.1 9.76001 17.08 9.75001 17.08 9.73001C17.03 9.65001 17 9.56001 16.98 9.46001C16.81 8.08001 16.2 6.82001 15.21 5.83001C14.04 4.66001 12.48 4.01001 10.82 4.01001C9.15998 4.01001 7.59999 4.66001 6.42999 5.83001C5.25999 7.00001 4.60999 8.56001 4.60999 10.22C4.60999 10.43 4.64999 10.62 4.66999 10.83C4.64999 11.03 4.60999 11.23 4.60999 11.44C4.60999 13.1 5.25999 14.66 6.42999 15.83C7.41999 16.82 8.66999 17.43 10.06 17.6C10.23 17.62 10.39 17.71 10.52 17.85L5.94999 22.42C5.48999 22.88 5.23998 23.49 5.23998 24.13V25.34C5.23998 25.99 5.48999 26.6 5.94999 27.05L9.43998 30.54C9.66998 30.77 9.97999 30.9 10.3 30.9C10.36 30.9 10.42 30.9 10.48 30.89C10.86 30.83 11.19 30.6 11.37 30.26C11.61 29.8 11.92 29.38 12.29 29.01C13.27 28.03 14.57 27.49 15.95 27.49C17.67 27.49 19.23 28.32 20.24 29.75C20.71 30.43 20.98 31.21 21.08 32.02C20.96 33.1 20.52 34.15 19.75 34.98C19.35 35.41 18.88 35.77 18.37 36.04C18.03 36.22 17.79 36.55 17.74 36.93C17.7 37.21 17.76 38 17.74 38.14C17.68 38.52 17.81 38.91 18.08 39.18L21.57 42.67C22.03 43.13 22.64 43.38 23.28 43.38C23.92 43.38 24.54 43.13 24.99 42.67L29.68 37.98C29.79 37.87 29.95 37.8 30.12 37.8C30.54 37.8 30.97 38.16 31.02 38.55C31.19 39.93 31.8 41.19 32.79 42.18C33.96 43.35 35.52 44 37.18 44C38.84 44 40.4 43.35 41.57 42.18C42.74 41.01 43.39 39.45 43.39 37.79C43.39 37.58 43.35 37.39 43.33 37.18C43.35 36.98 43.39 36.78 43.39 36.57ZM14.36 6.68001C15.16 7.48001 15.65 8.49001 15.79 9.60001C15.91 10.6 16.86 11.42 17.89 11.42C18.39 11.42 18.85 11.23 19.19 10.89L23.88 6.20001C24.12 5.96001 24.43 5.84001 24.74 5.84001C25.05 5.84001 25.36 5.96001 25.6 6.20001L29.09 9.69001C28.46 10.02 27.89 10.46 27.39 10.99C26.13 12.34 25.55 14.16 25.7 15.93C25.76 16.64 25.94 17.34 26.24 17.99C26.39 18.32 26.57 18.64 26.78 18.94C28.02 20.72 29.97 21.73 32.07 21.73C33.78 21.73 35.38 21.07 36.59 19.86C36.8 19.65 36.99 19.43 37.16 19.2C37.33 18.97 37.49 18.73 37.63 18.48C37.66 18.44 37.7 18.42 37.74 18.41C37.78 18.41 37.82 18.41 37.85 18.45L38.09 18.69L39.31 19.91L41.21 21.81C41.68 22.28 41.68 23.05 41.21 23.52L36.52 28.21C36.02 28.71 35.86 29.47 36.1 30.18C36.37 30.96 37.04 31.52 37.8 31.61C38.91 31.75 39.92 32.24 40.72 33.04C41.66 33.98 42.18 35.24 42.18 36.58C42.18 37.92 41.66 39.17 40.72 40.12C39.78 41.06 38.52 41.58 37.18 41.58C35.84 41.58 34.59 41.06 33.64 40.12C32.84 39.32 32.35 38.31 32.21 37.2C32.09 36.2 31.14 35.38 30.11 35.38C29.61 35.38 29.15 35.57 28.81 35.91L24.12 40.6C24 40.72 23.86 40.81 23.72 40.87C23.43 40.99 23.1 40.99 22.81 40.87C22.66 40.81 22.53 40.72 22.41 40.6L18.92 37.11C19.55 36.78 20.13 36.34 20.62 35.8C22.63 33.64 22.91 30.26 21.22 27.84C21.06 27.62 20.9 27.41 20.72 27.21C20.37 26.81 19.98 26.47 19.55 26.18C19.34 26.03 19.12 25.9 18.89 25.78C18.66 25.66 18.43 25.56 18.19 25.47C17.95 25.38 17.71 25.3 17.46 25.24C16.96 25.12 16.45 25.06 15.92 25.06C14.21 25.06 12.61 25.72 11.4 26.93C10.94 27.39 10.56 27.91 10.26 28.47L6.76999 24.98C6.29999 24.51 6.29999 23.74 6.76999 23.27L11.46 18.58C11.96 18.08 12.12 17.32 11.88 16.61C11.61 15.83 10.94 15.27 10.18 15.18C9.06999 15.04 8.05999 14.55 7.25999 13.75C6.31999 12.81 5.79999 11.55 5.79999 10.21C5.79999 8.87001 6.31999 7.62001 7.25999 6.67001C8.19999 5.73001 9.45999 5.21001 10.8 5.21001C12.14 5.21001 13.39 5.73001 14.34 6.67001L14.36 6.68001Z" fill="black"/>
</g>
<defs>
<clipPath id="clip0_13_7412">
<rect width="48" height="48" fill="white"/>
</clipPath>
</defs>
</svg>
