<svg width="61" height="63" viewBox="0 0 61 63" fill="none" xmlns="http://www.w3.org/2000/svg">
<path d="M1.96484 41.5439C1.96484 41.5439 1.96484 41.6158 1.96484 41.6518C1.96484 42.1554 2.1627 42.6231 2.52245 42.9829L17.452 57.9124C17.8297 58.2901 18.3514 58.488 18.891 58.47C19.4306 58.434 19.9163 58.1822 20.258 57.7505L38.8211 30.0679C39.0189 29.8161 39.3247 29.6542 39.6485 29.6362C39.9722 29.6182 40.296 29.7441 40.5299 29.96L47.6888 36.993C48.1925 37.4967 48.894 37.6586 49.5775 37.4427C50.2431 37.2269 50.7287 36.6873 50.8726 36.0037L53.8046 20.9842L56.6286 4.52577C56.7365 3.89621 56.5386 3.30262 56.107 2.87093C55.6753 2.43923 55.0637 2.24136 54.4521 2.34929L37.9577 5.17332L22.9562 8.10526C22.2546 8.23117 21.733 8.71683 21.5172 9.40035C21.3013 10.0839 21.4812 10.7854 21.9668 11.289L28.9999 18.448C29.2338 18.6819 29.3597 19.0056 29.3237 19.3294C29.3057 19.6532 29.1438 19.959 28.892 20.1568L2.68434 40.1768C2.25264 40.5186 2.00082 41.0042 1.96484 41.5439Z" fill="#8F92C7"/>
<path d="M54.0387 0.0689623L37.5263 2.91097L22.5069 5.84292C20.996 6.13072 19.7549 7.24594 19.3052 8.72091C18.8375 10.1959 19.2332 11.7968 20.3125 12.912L26.446 19.1536L1.5874 38.2203C0.652055 38.9577 0.0764589 40.073 0.00450929 41.2601C-0.0494529 42.4473 0.382242 43.6165 1.22765 44.4619L16.1392 59.3914L18.6215 61.8737C19.377 62.6292 20.4202 63.0249 21.4995 62.9709C22.5787 62.917 23.568 62.3953 24.2335 61.5499L41.9691 34.6408L48.7684 41.3321C49.7577 42.3034 51.1967 42.6632 52.5278 42.2494C53.8588 41.8357 54.8481 40.7385 55.1 39.3715L58.1938 23.5425L60.8919 7.80355C60.9638 7.40782 61 7.03009 61 6.65235C61 3.66644 59.0032 1.00431 56.0173 0.194874L55.6935 0.104935H55.6398C55.1179 -0.0029899 54.5603 -0.0389625 54.0207 0.0509745L54.0387 0.0689623ZM28.8923 20.1429C29.1441 19.9451 29.306 19.6393 29.324 19.3155C29.36 18.9917 29.2341 18.6679 29.0002 18.4341L21.9673 11.2751C21.4815 10.7715 21.3018 10.07 21.5176 9.38644C21.7335 8.7209 22.2729 8.23525 22.9564 8.09135L37.9579 5.1594L54.4524 2.33538C55.064 2.22745 55.6576 2.42531 56.1072 2.85701C56.5389 3.28871 56.7368 3.88229 56.6289 4.51185L53.8049 20.9703L50.8729 35.9898C50.747 36.6913 50.2613 37.213 49.5778 37.4288C48.8943 37.6447 48.1928 37.4648 47.6891 36.9791L40.5301 29.9461C40.2963 29.7122 39.9725 29.6043 39.6488 29.6223C39.325 29.6403 39.0192 29.8022 38.8213 30.054L20.5821 57.5927C20.2403 58.0244 19.7547 58.2762 19.2151 58.3122C18.6754 58.3482 18.1538 58.1503 17.7761 57.7546L2.84652 42.843C2.48677 42.4833 2.28891 42.0156 2.28891 41.512C2.28891 41.476 2.28891 41.44 2.28891 41.404C2.32488 40.8644 2.57671 40.3787 3.00841 40.037L28.8923 20.1429Z" fill="black"/>
</svg>
