<svg width="22" height="23" viewBox="0 0 22 23" fill="none" xmlns="http://www.w3.org/2000/svg">
<path d="M5.60938 2.5C5.42188 2.5 5.27344 2.4375 5.16406 2.3125C5.05469 2.1875 5 2.04687 5 1.89062C5 1.71875 5.05469 1.57812 5.16406 1.46875C5.27344 1.35938 5.42188 1.30469 5.60938 1.30469H21.1953C21.3828 1.30469 21.5312 1.35938 21.6406 1.46875C21.75 1.57812 21.8047 1.71875 21.8047 1.89062C21.8047 2.07812 21.75 2.22656 21.6406 2.33594C21.5312 2.44531 21.3828 2.5 21.1953 2.5H5.60938ZM1.39062 0.695312C1.73438 0.695312 2.02344 0.8125 2.25781 1.04688C2.49219 1.28125 2.60938 1.5625 2.60938 1.89062C2.60938 2.23437 2.49219 2.52344 2.25781 2.75781C2.02344 2.99219 1.73438 3.10938 1.39062 3.10938C1.0625 3.10938 0.78125 2.99219 0.546875 2.75781C0.3125 2.52344 0.195312 2.23437 0.195312 1.89062C0.195312 1.5625 0.3125 1.28125 0.546875 1.04688C0.78125 0.8125 1.0625 0.695312 1.39062 0.695312ZM21.1953 7.89062C21.3516 7.89062 21.4922 7.95312 21.6172 8.07812C21.7422 8.20312 21.8047 8.34375 21.8047 8.5C21.8047 8.6875 21.75 8.83594 21.6406 8.94531C21.5312 9.05469 21.3828 9.10938 21.1953 9.10938H10.3906C10.2188 9.10938 10.0781 9.05469 9.96875 8.94531C9.85938 8.83594 9.80469 8.6875 9.80469 8.5C9.80469 8.3125 9.85938 8.16406 9.96875 8.05469C10.0781 7.94531 10.2188 7.89062 10.3906 7.89062H21.1953ZM5 8.5C5 8.17188 5.11719 7.89062 5.35156 7.65625C5.58594 7.42188 5.86719 7.30469 6.19531 7.30469C6.52344 7.30469 6.80469 7.42188 7.03906 7.65625C7.27344 7.89062 7.39062 8.17188 7.39062 8.5C7.39062 8.82812 7.27344 9.10938 7.03906 9.34375C6.80469 9.57812 6.52344 9.69531 6.19531 9.69531C5.86719 9.69531 5.58594 9.57812 5.35156 9.34375C5.11719 9.10938 5 8.82812 5 8.5ZM21.1953 13.8438C21.3828 13.8438 21.5312 13.9062 21.6406 14.0312C21.75 14.1562 21.8047 14.2891 21.8047 14.4297C21.8047 14.6172 21.75 14.7656 21.6406 14.875C21.5312 14.9844 21.3828 15.0391 21.1953 15.0391H5.60938C5.42188 15.0391 5.27344 14.9844 5.16406 14.875C5.05469 14.7656 5 14.6172 5 14.4297C5 14.2578 5.05469 14.1172 5.16406 14.0078C5.27344 13.8984 5.42188 13.8438 5.60938 13.8438H21.1953ZM2.60938 14.4297C2.60938 14.1016 2.49219 13.8203 2.25781 13.5859C2.02344 13.3516 1.73438 13.2344 1.39062 13.2344C1.0625 13.2344 0.78125 13.3516 0.546875 13.5859C0.3125 13.8203 0.195312 14.1016 0.195312 14.4297C0.195312 14.7734 0.3125 15.0625 0.546875 15.2969C0.78125 15.5312 1.0625 15.6484 1.39062 15.6484C1.73438 15.6484 2.02344 15.5312 2.25781 15.2969C2.49219 15.0625 2.60938 14.7734 2.60938 14.4297ZM21.1953 20.5C21.3516 20.5 21.4922 20.5547 21.6172 20.6641C21.7422 20.7734 21.8047 20.9219 21.8047 21.1094C21.8047 21.2812 21.75 21.4219 21.6406 21.5312C21.5312 21.6406 21.3828 21.6953 21.1953 21.6953H10.3906C10.2188 21.6953 10.0781 21.6406 9.96875 21.5312C9.85938 21.4219 9.80469 21.2812 9.80469 21.1094C9.80469 20.9219 9.85938 20.7734 9.96875 20.6641C10.0781 20.5547 10.2188 20.5 10.3906 20.5H21.1953ZM7.39062 21.1094C7.39062 20.7656 7.27344 20.4766 7.03906 20.2422C6.80469 20.0078 6.52344 19.8906 6.19531 19.8906C5.86719 19.8906 5.58594 20.0078 5.35156 20.2422C5.11719 20.4766 5 20.7656 5 21.1094C5 21.4375 5.11719 21.7188 5.35156 21.9531C5.58594 22.1875 5.86719 22.3047 6.19531 22.3047C6.52344 22.3047 6.80469 22.1875 7.03906 21.9531C7.27344 21.7188 7.39062 21.4375 7.39062 21.1094Z" fill="#013369"/>
</svg>
