<?xml version="1.0" encoding="UTF-8"?>
<svg xmlns="http://www.w3.org/2000/svg" width="145.48mm" height="21.07mm" viewBox="0 0 412.39 59.72">
  <defs>
    <style>
      .cls-1 {
        stroke: #000;
      }

      .cls-1, .cls-2 {
        fill: none;
        stroke-miterlimit: 10;
      }

      .cls-2 {
        stroke: #ec008c;
      }

      .cls-3 {
        fill: #ec008c;
        stroke-width: 0px;
      }
    </style>
  </defs>
  <g id="Content">
    <rect class="cls-1" x="8.13" y="12.09" width="170.08" height="47.13"/>
    <rect class="cls-1" x="241.81" y="12.09" width="170.08" height="47.13"/>
  </g>
  <g id="anno">
    <path class="cls-3" d="M233.91,36.69c.46.47,1.08.72,1.78.72.79,0,1.24-.45,1.24-1,0-.61-.44-1.02-1.2-1.02-.55,0-1,.17-1.4.55l-.99-.27v-3.81h4.58v1.22h-3.19v1.67c.35-.31.89-.55,1.5-.55,1.13,0,2.14.8,2.14,2.15s-1.06,2.3-2.67,2.3c-1.16,0-2-.38-2.57-1l.78-.96Z"/>
    <path class="cls-3" d="M1.27,36.69c.46.47,1.08.72,1.78.72.79,0,1.24-.45,1.24-1,0-.61-.44-1.02-1.2-1.02-.55,0-1,.17-1.4.55l-.99-.27v-3.81h4.58v1.22h-3.19v1.67c.35-.31.89-.55,1.5-.55,1.13,0,2.14.8,2.14,2.15s-1.06,2.3-2.67,2.3c-1.16,0-2-.38-2.57-1l.78-.96Z"/>
    <path class="cls-3" d="M248.77,8.33v-1.12c2.73-2.01,3.53-2.7,3.53-3.52,0-.58-.53-.87-1.09-.87-.75,0-1.33.3-1.78.77l-.81-.94c.65-.75,1.64-1.09,2.57-1.09,1.42,0,2.55.8,2.55,2.13,0,1.14-.94,2.13-2.73,3.39h2.78v1.25h-5.02Z"/>
    <g>
      <path class="cls-3" d="M248.16,38.53v-4.84l-1.1,1.13-.81-.85,2.1-2.11h1.24v6.67h-1.43Z"/>
      <path class="cls-3" d="M253.35,31.76c1.9,0,2.76,1.72,2.76,3.44s-.86,3.45-2.76,3.45-2.76-1.73-2.76-3.45.85-3.44,2.76-3.44ZM253.35,33.02c-.96,0-1.32.95-1.32,2.18s.36,2.19,1.32,2.19,1.31-.96,1.31-2.19-.36-2.18-1.31-2.18Z"/>
    </g>
    <g>
      <path class="cls-3" d="M330.26,38.53v-4.84l-1.1,1.13-.81-.85,2.1-2.11h1.24v6.67h-1.43Z"/>
      <path class="cls-3" d="M332.82,38.53v-1.12c2.73-2.01,3.53-2.7,3.53-3.52,0-.58-.53-.87-1.09-.87-.75,0-1.33.3-1.78.77l-.81-.94c.65-.75,1.64-1.09,2.57-1.09,1.42,0,2.55.8,2.55,2.13,0,1.14-.94,2.13-2.73,3.39h2.78v1.25h-5.02Z"/>
      <path class="cls-3" d="M339.62,36.69c.46.47,1.08.72,1.78.72.79,0,1.24-.45,1.24-1,0-.61-.44-1.02-1.2-1.02-.55,0-1,.17-1.4.55l-.99-.27v-3.81h4.58v1.22h-3.19v1.67c.35-.31.89-.55,1.5-.55,1.13,0,2.14.8,2.14,2.15s-1.06,2.3-2.67,2.3c-1.16,0-2-.38-2.57-1l.78-.96Z"/>
    </g>
    <path class="cls-3" d="M149.67,8.53l2.39-5.42h-3.36v-1.25h5.01v.99l-2.48,5.68h-1.56Z"/>
    <g>
      <path class="cls-3" d="M330.77,8.33v-1.12c2.73-2.01,3.53-2.7,3.53-3.52,0-.58-.53-.87-1.09-.87-.75,0-1.33.3-1.78.77l-.81-.94c.65-.75,1.64-1.09,2.57-1.09,1.42,0,2.55.8,2.55,2.13,0,1.14-.94,2.13-2.73,3.39h2.78v1.25h-5.02Z"/>
      <path class="cls-3" d="M337.57,6.49c.46.47,1.08.72,1.78.72.79,0,1.24-.45,1.24-1,0-.61-.44-1.02-1.2-1.02-.55,0-1,.17-1.4.55l-.99-.27V1.66h4.58v1.22h-3.19v1.67c.35-.31.89-.55,1.5-.55,1.13,0,2.14.8,2.14,2.15s-1.06,2.3-2.67,2.3c-1.16,0-2-.38-2.57-1l.78-.96Z"/>
    </g>
    <g>
      <path class="cls-3" d="M60.52,8.53v-1.12c2.73-2.01,3.53-2.7,3.53-3.52,0-.58-.53-.87-1.09-.87-.75,0-1.33.3-1.78.77l-.81-.94c.65-.75,1.64-1.09,2.57-1.09,1.42,0,2.55.8,2.55,2.13,0,1.14-.94,2.13-2.73,3.39h2.78v1.25h-5.02Z"/>
      <path class="cls-3" d="M69.15,1.76c1.9,0,2.76,1.72,2.76,3.44s-.86,3.45-2.76,3.45-2.76-1.73-2.76-3.45.85-3.44,2.76-3.44ZM69.15,3.02c-.96,0-1.32.95-1.32,2.18s.36,2.19,1.32,2.19,1.31-.96,1.31-2.19-.36-2.18-1.31-2.18Z"/>
    </g>
    <g>
      <path class="cls-3" d="M59.91,38.53v-4.84l-1.1,1.13-.81-.85,2.1-2.11h1.24v6.67h-1.43Z"/>
      <path class="cls-3" d="M65.1,31.76c1.9,0,2.76,1.72,2.76,3.44s-.86,3.45-2.76,3.45-2.76-1.73-2.76-3.45.85-3.44,2.76-3.44ZM65.1,33.02c-.96,0-1.32.95-1.32,2.18s.36,2.19,1.32,2.19,1.31-.96,1.31-2.19-.36-2.18-1.31-2.18Z"/>
      <path class="cls-3" d="M71.3,31.76c1.9,0,2.76,1.72,2.76,3.44s-.86,3.45-2.76,3.45-2.76-1.73-2.76-3.45.85-3.44,2.76-3.44ZM71.3,33.02c-.96,0-1.32.95-1.32,2.18s.36,2.19,1.32,2.19,1.31-.96,1.31-2.19-.36-2.18-1.31-2.18Z"/>
    </g>
    <g>
      <path class="cls-3" d="M146.15,36.65c.46.48,1.19.76,1.84.76.81,0,1.26-.35,1.26-.86,0-.54-.41-.79-1.34-.79-.28,0-.73,0-.83,0v-1.24c.12,0,.57,0,.83,0,.74,0,1.23-.24,1.23-.74,0-.53-.54-.8-1.24-.8-.65,0-1.23.25-1.7.7l-.7-.88c.54-.61,1.38-1.06,2.55-1.06,1.56,0,2.52.7,2.52,1.81,0,.84-.72,1.39-1.46,1.52.68.07,1.56.6,1.56,1.6,0,1.15-1.03,1.96-2.63,1.96-1.23,0-2.14-.47-2.63-1.07l.74-.93Z"/>
      <path class="cls-3" d="M152.35,36.69c.46.47,1.08.72,1.78.72.79,0,1.24-.45,1.24-1,0-.61-.44-1.02-1.2-1.02-.55,0-1,.17-1.4.55l-.99-.27v-3.81h4.58v1.22h-3.19v1.67c.35-.31.89-.55,1.5-.55,1.13,0,2.14.8,2.14,2.15s-1.06,2.3-2.67,2.3c-1.16,0-2-.38-2.57-1l.78-.96Z"/>
    </g>
    <line class="cls-2" x1="260.79" y1="12.09" x2="260.79" y2="59.22"/>
    <line class="cls-2" x1="124.17" y1="12.09" x2="124.17" y2="59.22"/>
  </g>
</svg>