<?xml version="1.0" encoding="UTF-8"?>
<svg id="base" xmlns="http://www.w3.org/2000/svg" width="12.13pc" height="5.32pc" viewBox="0 0 145.62 63.83">
  <defs>
    <style>
      .cls-1, .cls-2 {
        fill: none;
        stroke: #000;
        stroke-miterlimit: 10;
      }

      .cls-3 {
        stroke-width: 0px;
      }

      .cls-2 {
        stroke-width: .5px;
      }
    </style>
  </defs>
  <rect class="cls-1" x="12.5" y=".5" width="47.83" height="48"/>
  <rect class="cls-1" x="60.34" y=".5" width="84.78" height="48"/>
  <line class="cls-2" x1="3" y1="29.66" x2="3" y2="48.5"/>
  <line class="cls-2" x1="3" y1=".5" x2="3" y2="19.34"/>
  <line class="cls-2" x1="6" y1=".5" y2=".5"/>
  <line class="cls-2" x1="6" y1="48.5" y2="48.5"/>
  <line class="cls-2" x1="107.77" y1="57.98" x2="145.12" y2="57.98"/>
  <line class="cls-2" x1="42.58" y1="57.98" x2="97.81" y2="57.98"/>
  <line class="cls-2" x1="12.5" y1="57.98" x2="31.8" y2="57.98"/>
  <line class="cls-2" x1="145.12" y1="54.98" x2="145.12" y2="60.98"/>
  <line class="cls-2" x1="60.34" y1="54.98" x2="60.34" y2="60.98"/>
  <line class="cls-2" x1="12.5" y1="54.98" x2="12.5" y2="60.98"/>
  <path class="cls-3" d="M34.99,60.22l-.15.68h-.68l1.32-6h.68l-.5,2.28c.36-.45.85-.73,1.43-.73,1,0,1.68.66,1.68,1.79,0,1.41-.87,2.77-2.28,2.77-.68,0-1.22-.32-1.51-.79ZM38.07,58.37c0-.81-.5-1.31-1.22-1.31-.55,0-1.04.34-1.33.74l-.42,1.92c.22.39.68.7,1.31.7.99,0,1.66-1,1.66-2.04Z"/>
  <path class="cls-3" d="M4.37,23.77l.15-.68h.68l-.96,4.35h-.68l.14-.62c-.36.45-.85.73-1.43.73-.99,0-1.68-.66-1.68-1.79,0-1.41.87-2.77,2.28-2.77.68,0,1.22.31,1.51.79ZM1.29,25.62c0,.81.5,1.31,1.22,1.31.55,0,1.04-.34,1.33-.74l.42-1.92c-.22-.39-.68-.7-1.31-.7-.99,0-1.66,1-1.66,2.04Z"/>
  <g>
    <path class="cls-3" d="M35.39,23.12l.15-.68h.68l-.96,4.35h-.68l.14-.62c-.36.45-.85.73-1.43.73-.99,0-1.68-.66-1.68-1.79,0-1.41.87-2.77,2.28-2.77.68,0,1.22.31,1.51.79ZM32.31,24.98c0,.81.5,1.31,1.22,1.31.55,0,1.04-.34,1.33-.74l.42-1.92c-.22-.39-.68-.7-1.31-.7-.99,0-1.66,1-1.66,2.04Z"/>
    <path class="cls-3" d="M37.44,26.1l-.15.68h-.68l1.32-6h.68l-.5,2.28c.36-.45.85-.73,1.43-.73,1,0,1.68.66,1.68,1.79,0,1.41-.87,2.77-2.28,2.77-.68,0-1.22-.32-1.51-.79ZM40.51,24.25c0-.81-.5-1.31-1.22-1.31-.55,0-1.04.34-1.33.74l-.42,1.92c.22.39.68.7,1.31.7.99,0,1.66-1,1.66-2.04Z"/>
  </g>
  <g>
    <path class="cls-3" d="M102.06,23.12l.15-.68h.68l-.96,4.35h-.67l.13-.62c-.36.45-.85.73-1.43.73-.99,0-1.68-.66-1.68-1.79,0-1.41.87-2.77,2.28-2.77.67,0,1.22.31,1.51.79ZM98.98,24.98c0,.81.5,1.31,1.21,1.31.55,0,1.04-.34,1.33-.74l.42-1.92c-.22-.39-.68-.7-1.31-.7-.99,0-1.66,1-1.66,2.04Z"/>
    <path class="cls-3" d="M103.45,24.95c0-1.43,1.08-2.62,2.45-2.62.8,0,1.33.31,1.63.81l-.51.39c-.22-.4-.65-.59-1.1-.59-1.09,0-1.76.96-1.76,2.01,0,.89.59,1.35,1.36,1.35.46,0,.85-.22,1.11-.52l.38.46c-.37.38-.86.67-1.55.67-1.17,0-2-.73-2-1.95Z"/>
  </g>
  <path class="cls-3" d="M100.71,59.07c0-1.43,1.08-2.62,2.45-2.62.8,0,1.33.31,1.63.81l-.51.39c-.22-.4-.65-.59-1.1-.59-1.09,0-1.76.96-1.76,2.01,0,.89.59,1.35,1.36,1.35.46,0,.85-.22,1.11-.52l.38.46c-.37.38-.86.67-1.55.67-1.17,0-2-.73-2-1.95Z"/>
</svg>