<?xml version="1.0" encoding="UTF-8"?>
<svg id="base" xmlns="http://www.w3.org/2000/svg" width="134.59" height="29.91" viewBox="0 0 134.59 29.91">
  <defs>
    <style>
      .cls-1 {
        fill: none;
        stroke: #008ccc;
        stroke-miterlimit: 10;
      }

      .cls-2, .cls-3 {
        stroke-width: 0px;
      }

      .cls-3 {
        fill: #008ccc;
      }
    </style>
  </defs>
  <g>
    <path class="cls-2" d="M4.19,26.01v-2.03H.38v-.83l3.43-5.15h1.37v5.1h1.13v.88h-1.13v2.03h-1ZM4.19,18.94l-2.81,4.17h2.81v-4.17Z"/>
    <path class="cls-2" d="M12.01,28.4c-1.08-1.48-1.69-3.37-1.69-5.3s.61-3.81,1.69-5.3l.54.41c-.77,1.52-1.25,2.89-1.25,4.89s.48,3.37,1.25,4.88l-.54.42Z"/>
    <path class="cls-2" d="M13.42,26.01v-.79c2.88-2.27,4.44-3.6,4.44-4.98,0-1.02-.84-1.46-1.67-1.46-.96,0-1.7.41-2.17,1.01l-.61-.64c.61-.8,1.65-1.26,2.78-1.26,1.33,0,2.69.76,2.69,2.35s-1.65,3.12-3.89,4.88h3.92v.89h-5.49Z"/>
    <path class="cls-2" d="M27.63,22.42h-3.26v-.55h3.26v-3.26h.55v3.26h3.26v.55h-3.26v3.26h-.55v-3.26Z"/>
    <path class="cls-2" d="M38.17,26.01v-6.68l-1.28,1.36-.6-.61,2-2.06h.88v8h-1Z"/>
    <path class="cls-2" d="M40.89,24.87l.61-.66c.53.67,1.22,1.06,2.21,1.06,1.09,0,1.85-.74,1.85-1.72,0-1.05-.76-1.73-1.83-1.73-.71,0-1.31.23-1.85.76l-.73-.25v-4.32h4.89v.89h-3.9v2.78c.38-.38,1.07-.72,1.87-.72,1.33,0,2.54.91,2.54,2.55s-1.24,2.64-2.84,2.64c-1.35,0-2.22-.49-2.82-1.28Z"/>
    <path class="cls-2" d="M47.38,27.98c.78-1.51,1.26-2.89,1.26-4.88s-.48-3.37-1.26-4.89l.54-.41c1.09,1.49,1.7,3.37,1.7,5.3s-.61,3.83-1.7,5.3l-.54-.42Z"/>
    <path class="cls-2" d="M54.7,21.35v-.55h7.08v.55h-7.08ZM54.7,23.48v-.55h7.08v.55h-7.08Z"/>
    <path class="cls-2" d="M70.55,26.01v-2.03h-3.8v-.83l3.43-5.15h1.37v5.1h1.13v.88h-1.13v2.03h-1ZM70.55,18.94l-2.81,4.17h2.81v-4.17Z"/>
    <path class="cls-2" d="M77.39,22.14c0-.4.36-.76.76-.76s.76.36.76.76-.36.76-.76.76-.76-.36-.76-.76Z"/>
    <path class="cls-2" d="M83.92,26.01v-.79c2.88-2.27,4.44-3.6,4.44-4.98,0-1.02-.84-1.46-1.67-1.46-.96,0-1.7.41-2.17,1.01l-.61-.64c.61-.8,1.65-1.26,2.78-1.26,1.33,0,2.69.76,2.69,2.35s-1.65,3.12-3.89,4.88h3.92v.89h-5.49Z"/>
    <path class="cls-2" d="M98.14,22.42h-3.26v-.55h3.26v-3.26h.55v3.26h3.26v.55h-3.26v3.26h-.55v-3.26Z"/>
    <path class="cls-2" d="M110.72,26.01v-2.03h-3.8v-.83l3.43-5.15h1.37v5.1h1.13v.88h-1.13v2.03h-1ZM110.72,18.94l-2.81,4.17h2.81v-4.17Z"/>
    <path class="cls-2" d="M117.58,22.14c0-.4.36-.76.76-.76s.75.36.75.76-.36.76-.75.76-.76-.36-.76-.76Z"/>
    <path class="cls-2" d="M125.58,26.01v-6.68l-1.28,1.36-.6-.61,2-2.06h.88v8h-1Z"/>
    <path class="cls-2" d="M128.3,24.87l.61-.66c.53.67,1.22,1.06,2.21,1.06,1.09,0,1.85-.74,1.85-1.72,0-1.05-.76-1.73-1.83-1.73-.71,0-1.31.23-1.85.76l-.73-.25v-4.32h4.89v.89h-3.9v2.78c.38-.38,1.07-.72,1.87-.72,1.33,0,2.54.91,2.54,2.55s-1.24,2.64-2.84,2.64c-1.36,0-2.22-.49-2.82-1.28Z"/>
  </g>
  <g>
    <path class="cls-1" d="M2.85,17.71C2.85,8.2,11.51.5,22.19.5c9.08,0,16.69,5.56,18.78,13.06"/>
    <polygon class="cls-3" points="37.99 12.05 40.73 12.73 43.11 11.23 41.53 17.71 37.99 12.05"/>
  </g>
  <g>
    <path class="cls-1" d="M2.85,17.71c0-4.15,3.06-7.52,6.83-7.52,2.42,0,4.55,1.39,5.76,3.48"/>
    <polygon class="cls-3" points="12.18 12.64 14.98 12.9 17.12 11.07 16.51 17.71 12.18 12.64"/>
  </g>
</svg>