<svg width="18" height="14" viewBox="0 0 18 14" fill="none" xmlns="http://www.w3.org/2000/svg">
<path d="M7.35938 0.511719C7.46354 0.511719 7.55469 0.53125 7.63281 0.570312C7.71094 0.596354 7.78255 0.641927 7.84766 0.707031C7.89974 0.772135 7.9388 0.84375 7.96484 0.921875C8.00391 1 8.02344 1.08464 8.02344 1.17578C8.02344 1.26693 8.00391 1.35156 7.96484 1.42969C7.9388 1.50781 7.89974 1.58594 7.84766 1.66406L2.96484 6.56641H16.6367C16.7279 6.56641 16.8125 6.58594 16.8906 6.625C16.9688 6.65104 17.0404 6.69661 17.1055 6.76172C17.1836 6.82682 17.2422 6.89844 17.2812 6.97656C17.3203 7.05469 17.3398 7.14583 17.3398 7.25C17.3398 7.34115 17.3203 7.42578 17.2812 7.50391C17.2552 7.58203 17.2096 7.65365 17.1445 7.71875C17.0794 7.78385 17.0013 7.83594 16.9102 7.875C16.832 7.90104 16.7409 7.91406 16.6367 7.91406H2.96484L7.86719 12.8164C7.93229 12.8815 7.97786 12.9596 8.00391 13.0508C8.04297 13.1289 8.0625 13.2135 8.0625 13.3047C8.0625 13.3958 8.04297 13.4805 8.00391 13.5586C7.97786 13.6367 7.93229 13.7083 7.86719 13.7734C7.8151 13.8385 7.75 13.8906 7.67188 13.9297C7.59375 13.9557 7.5026 13.9688 7.39844 13.9688C7.30729 13.9818 7.22266 13.9753 7.14453 13.9492C7.06641 13.9102 6.99479 13.8516 6.92969 13.7734L0.855469 7.69922C0.777344 7.63411 0.71875 7.5625 0.679688 7.48438C0.653646 7.40625 0.640625 7.32161 0.640625 7.23047C0.640625 7.1263 0.653646 7.03516 0.679688 6.95703C0.71875 6.87891 0.770833 6.80729 0.835938 6.74219L6.89062 0.707031C6.95573 0.641927 7.02734 0.596354 7.10547 0.570312C7.18359 0.53125 7.26823 0.511719 7.35938 0.511719Z" fill="#013369"/>
</svg>
