<svg width="724" height="56" viewBox="0 0 724 56" fill="none" xmlns="http://www.w3.org/2000/svg">
<path  d="M452.676 35.0463L452.324 35.3393L451.992 34.9487L453.008 34.1284H453.555V37.2729H452.891V35.4565V35.1635L452.91 34.8315C452.858 34.8836 452.812 34.9291 452.773 34.9682C452.734 35.0073 452.702 35.0333 452.676 35.0463ZM452.832 43.1128V43.1323H454.18V43.6987H452.012V43.23L452.793 42.4487C452.91 42.3315 453.001 42.2339 453.066 42.1557C453.145 42.0646 453.203 41.993 453.242 41.9409C453.281 41.9018 453.314 41.8627 453.34 41.8237C453.366 41.7716 453.385 41.726 453.398 41.6869C453.411 41.6479 453.424 41.6088 453.437 41.5698C453.451 41.5307 453.457 41.4916 453.457 41.4526C453.457 41.3875 453.444 41.3354 453.418 41.2963C453.405 41.2442 453.379 41.1987 453.34 41.1596C453.314 41.1336 453.275 41.114 453.223 41.101C453.184 41.088 453.132 41.0815 453.066 41.0815C453.001 41.0815 452.936 41.088 452.871 41.101C452.819 41.114 452.767 41.1336 452.715 41.1596C452.663 41.1856 452.604 41.2182 452.539 41.2573C452.487 41.2963 452.428 41.3419 452.363 41.394L451.992 40.9643C452.07 40.8992 452.142 40.8471 452.207 40.808C452.272 40.756 452.331 40.7169 452.383 40.6909C452.435 40.6648 452.487 40.6453 452.539 40.6323C452.591 40.6062 452.65 40.5867 452.715 40.5737C452.78 40.5606 452.845 40.5476 452.91 40.5346C452.975 40.5216 453.047 40.5151 453.125 40.5151C453.216 40.5151 453.301 40.5281 453.379 40.5541C453.47 40.5672 453.555 40.5932 453.633 40.6323C453.711 40.6713 453.776 40.7169 453.828 40.769C453.893 40.808 453.945 40.8601 453.984 40.9252C454.023 40.9903 454.049 41.0619 454.062 41.1401C454.089 41.2182 454.102 41.2963 454.102 41.3744C454.102 41.4396 454.095 41.5112 454.082 41.5893C454.069 41.6544 454.049 41.7195 454.023 41.7846C453.997 41.8367 453.965 41.8953 453.926 41.9604C453.887 42.0255 453.841 42.0906 453.789 42.1557C453.737 42.2339 453.665 42.3185 453.574 42.4096C453.483 42.5008 453.366 42.6115 453.223 42.7417L452.832 43.1128ZM453.398 48.4643C453.529 48.4773 453.639 48.5034 453.73 48.5424C453.822 48.5815 453.9 48.6271 453.965 48.6792C454.03 48.7443 454.076 48.8224 454.102 48.9135C454.141 48.9917 454.16 49.0828 454.16 49.187C454.16 49.3302 454.134 49.4604 454.082 49.5776C454.03 49.6948 453.952 49.799 453.848 49.8901C453.73 49.9682 453.594 50.0333 453.437 50.0854C453.281 50.1245 453.105 50.144 452.91 50.144C452.741 50.144 452.578 50.131 452.422 50.105C452.279 50.0659 452.135 50.0203 451.992 49.9682V49.4214C452.057 49.4474 452.122 49.4734 452.187 49.4995C452.253 49.5255 452.324 49.5451 452.402 49.5581C452.467 49.5711 452.533 49.5841 452.598 49.5971C452.676 49.6102 452.754 49.6167 452.832 49.6167C452.936 49.6167 453.027 49.6102 453.105 49.5971C453.197 49.5711 453.268 49.5385 453.32 49.4995C453.372 49.4604 453.411 49.4148 453.437 49.3628C453.464 49.2977 453.477 49.226 453.477 49.1479C453.477 49.0698 453.457 49.0047 453.418 48.9526C453.392 48.9005 453.353 48.8615 453.301 48.8354C453.236 48.8094 453.151 48.7898 453.047 48.7768C452.956 48.7508 452.845 48.7378 452.715 48.7378H452.48V48.23H452.715C452.832 48.23 452.936 48.2234 453.027 48.2104C453.118 48.1974 453.19 48.1714 453.242 48.1323C453.307 48.1063 453.353 48.0672 453.379 48.0151C453.405 47.963 453.418 47.8979 453.418 47.8198C453.418 47.7026 453.379 47.6115 453.301 47.5464C453.236 47.4813 453.125 47.4487 452.969 47.4487C452.917 47.4487 452.865 47.4552 452.812 47.4682C452.76 47.4813 452.708 47.4943 452.656 47.5073C452.604 47.5203 452.546 47.5464 452.48 47.5854C452.428 47.6115 452.37 47.644 452.305 47.6831L452.012 47.2339C452.155 47.1297 452.311 47.0516 452.48 46.9995C452.65 46.9474 452.832 46.9214 453.027 46.9214C453.184 46.9214 453.327 46.9409 453.457 46.98C453.587 47.006 453.698 47.0516 453.789 47.1167C453.88 47.1818 453.945 47.2599 453.984 47.351C454.036 47.4422 454.062 47.5464 454.062 47.6635C454.062 47.7677 454.049 47.8589 454.023 47.937C453.997 48.0151 453.952 48.0932 453.887 48.1714C453.835 48.2365 453.763 48.2951 453.672 48.3471C453.594 48.3862 453.503 48.4188 453.398 48.4448V48.4643ZM467.402 35.144C467.572 35.144 467.715 35.2026 467.832 35.3198C467.949 35.4369 468.008 35.5737 468.008 35.7299C468.008 35.8992 467.949 36.0424 467.832 36.1596C467.715 36.2768 467.572 36.3354 467.402 36.3354H457.402C457.233 36.3354 457.09 36.2768 456.973 36.1596C456.868 36.0424 456.816 35.8992 456.816 35.7299C456.816 35.5737 456.868 35.4369 456.973 35.3198C457.09 35.2026 457.233 35.144 457.402 35.144H467.402ZM467.402 41.5112C467.572 41.5112 467.715 41.5698 467.832 41.6869C467.949 41.8041 468.008 41.9474 468.008 42.1167C468.008 42.2859 467.949 42.4292 467.832 42.5464C467.715 42.6635 467.572 42.7221 467.402 42.7221H457.402C457.233 42.7221 457.09 42.6635 456.973 42.5464C456.868 42.4292 456.816 42.2859 456.816 42.1167C456.816 41.9474 456.868 41.8041 456.973 41.6869C457.09 41.5698 457.233 41.5112 457.402 41.5112H467.402ZM467.402 47.9174C467.572 47.9174 467.715 47.976 467.832 48.0932C467.949 48.2104 468.008 48.3536 468.008 48.5229C468.008 48.6922 467.949 48.8354 467.832 48.9526C467.715 49.0698 467.572 49.1284 467.402 49.1284H457.402C457.233 49.1284 457.09 49.0698 456.973 48.9526C456.868 48.8354 456.816 48.6922 456.816 48.5229C456.816 48.3536 456.868 48.2104 456.973 48.0932C457.09 47.976 457.233 47.9174 457.402 47.9174H467.402Z" fill="#8A909D"/>
<path  d="M452.676 7.04633L452.324 7.33929L451.992 6.94867L453.008 6.12836H453.555V9.27289H452.891V7.45648V7.16351L452.91 6.83148C452.858 6.88357 452.812 6.92914 452.773 6.9682C452.734 7.00726 452.702 7.03331 452.676 7.04633ZM452.832 15.1128V15.1323H454.18V15.6987H452.012V15.23L452.793 14.4487C452.91 14.3315 453.001 14.2339 453.066 14.1557C453.145 14.0646 453.203 13.993 453.242 13.9409C453.281 13.9018 453.314 13.8627 453.34 13.8237C453.366 13.7716 453.385 13.726 453.398 13.6869C453.411 13.6479 453.424 13.6088 453.437 13.5698C453.451 13.5307 453.457 13.4916 453.457 13.4526C453.457 13.3875 453.444 13.3354 453.418 13.2963C453.405 13.2442 453.379 13.1987 453.34 13.1596C453.314 13.1336 453.275 13.114 453.223 13.101C453.184 13.088 453.132 13.0815 453.066 13.0815C453.001 13.0815 452.936 13.088 452.871 13.101C452.819 13.114 452.767 13.1336 452.715 13.1596C452.663 13.1856 452.604 13.2182 452.539 13.2573C452.487 13.2963 452.428 13.3419 452.363 13.394L451.992 12.9643C452.07 12.8992 452.142 12.8471 452.207 12.808C452.272 12.756 452.331 12.7169 452.383 12.6909C452.435 12.6648 452.487 12.6453 452.539 12.6323C452.591 12.6062 452.65 12.5867 452.715 12.5737C452.78 12.5606 452.845 12.5476 452.91 12.5346C452.975 12.5216 453.047 12.5151 453.125 12.5151C453.216 12.5151 453.301 12.5281 453.379 12.5541C453.47 12.5672 453.555 12.5932 453.633 12.6323C453.711 12.6713 453.776 12.7169 453.828 12.769C453.893 12.808 453.945 12.8601 453.984 12.9252C454.023 12.9903 454.049 13.0619 454.062 13.1401C454.089 13.2182 454.102 13.2963 454.102 13.3744C454.102 13.4396 454.095 13.5112 454.082 13.5893C454.069 13.6544 454.049 13.7195 454.023 13.7846C453.997 13.8367 453.965 13.8953 453.926 13.9604C453.887 14.0255 453.841 14.0906 453.789 14.1557C453.737 14.2339 453.665 14.3185 453.574 14.4096C453.483 14.5008 453.366 14.6115 453.223 14.7417L452.832 15.1128ZM453.398 20.4643C453.529 20.4773 453.639 20.5034 453.73 20.5424C453.822 20.5815 453.9 20.6271 453.965 20.6792C454.03 20.7443 454.076 20.8224 454.102 20.9135C454.141 20.9917 454.16 21.0828 454.16 21.187C454.16 21.3302 454.134 21.4604 454.082 21.5776C454.03 21.6948 453.952 21.799 453.848 21.8901C453.73 21.9682 453.594 22.0333 453.437 22.0854C453.281 22.1245 453.105 22.144 452.91 22.144C452.741 22.144 452.578 22.131 452.422 22.105C452.279 22.0659 452.135 22.0203 451.992 21.9682V21.4214C452.057 21.4474 452.122 21.4734 452.187 21.4995C452.253 21.5255 452.324 21.5451 452.402 21.5581C452.467 21.5711 452.533 21.5841 452.598 21.5971C452.676 21.6102 452.754 21.6167 452.832 21.6167C452.936 21.6167 453.027 21.6102 453.105 21.5971C453.197 21.5711 453.268 21.5385 453.32 21.4995C453.372 21.4604 453.411 21.4148 453.437 21.3628C453.464 21.2977 453.477 21.226 453.477 21.1479C453.477 21.0698 453.457 21.0047 453.418 20.9526C453.392 20.9005 453.353 20.8615 453.301 20.8354C453.236 20.8094 453.151 20.7898 453.047 20.7768C452.956 20.7508 452.845 20.7378 452.715 20.7378H452.48V20.23H452.715C452.832 20.23 452.936 20.2234 453.027 20.2104C453.118 20.1974 453.19 20.1714 453.242 20.1323C453.307 20.1063 453.353 20.0672 453.379 20.0151C453.405 19.963 453.418 19.8979 453.418 19.8198C453.418 19.7026 453.379 19.6115 453.301 19.5464C453.236 19.4813 453.125 19.4487 452.969 19.4487C452.917 19.4487 452.865 19.4552 452.812 19.4682C452.76 19.4813 452.708 19.4943 452.656 19.5073C452.604 19.5203 452.546 19.5464 452.48 19.5854C452.428 19.6115 452.37 19.644 452.305 19.6831L452.012 19.2339C452.155 19.1297 452.311 19.0516 452.48 18.9995C452.65 18.9474 452.832 18.9214 453.027 18.9214C453.184 18.9214 453.327 18.9409 453.457 18.98C453.587 19.006 453.698 19.0516 453.789 19.1167C453.88 19.1818 453.945 19.2599 453.984 19.351C454.036 19.4422 454.062 19.5464 454.062 19.6635C454.062 19.7677 454.049 19.8589 454.023 19.937C453.997 20.0151 453.952 20.0932 453.887 20.1714C453.835 20.2365 453.763 20.2951 453.672 20.3471C453.594 20.3862 453.503 20.4188 453.398 20.4448V20.4643ZM467.402 7.14398C467.572 7.14398 467.715 7.20258 467.832 7.31976C467.949 7.43695 468.008 7.57367 468.008 7.72992C468.008 7.89919 467.949 8.04242 467.832 8.15961C467.715 8.27679 467.572 8.33539 467.402 8.33539H457.402C457.233 8.33539 457.09 8.27679 456.973 8.15961C456.868 8.04242 456.816 7.89919 456.816 7.72992C456.816 7.57367 456.868 7.43695 456.973 7.31976C457.09 7.20258 457.233 7.14398 457.402 7.14398H467.402ZM467.402 13.5112C467.572 13.5112 467.715 13.5698 467.832 13.6869C467.949 13.8041 468.008 13.9474 468.008 14.1167C468.008 14.2859 467.949 14.4292 467.832 14.5464C467.715 14.6635 467.572 14.7221 467.402 14.7221H457.402C457.233 14.7221 457.09 14.6635 456.973 14.5464C456.868 14.4292 456.816 14.2859 456.816 14.1167C456.816 13.9474 456.868 13.8041 456.973 13.6869C457.09 13.5698 457.233 13.5112 457.402 13.5112H467.402ZM467.402 19.9174C467.572 19.9174 467.715 19.976 467.832 20.0932C467.949 20.2104 468.008 20.3536 468.008 20.5229C468.008 20.6922 467.949 20.8354 467.832 20.9526C467.715 21.0698 467.572 21.1284 467.402 21.1284H457.402C457.233 21.1284 457.09 21.0698 456.973 20.9526C456.868 20.8354 456.816 20.6922 456.816 20.5229C456.816 20.3536 456.868 20.2104 456.973 20.0932C457.09 19.976 457.233 19.9174 457.402 19.9174H467.402Z" fill="#1E2B45"/>
<path  id="path-bold"  d="M16.8222 13.3919C17.6815 13.7044 18.3326 14.1731 18.7753 14.7981C19.218 15.4231 19.4394 16.1979 19.4394 17.1223C19.4394 17.8645 19.3092 18.5286 19.0487 19.1145C18.8013 19.6875 18.4237 20.1822 17.9159 20.5989C17.4211 21.0156 16.8287 21.3281 16.1386 21.5364C15.4615 21.7447 14.6868 21.8489 13.8144 21.8489H8.11122V5.83331H12.7987C13.8534 5.83331 14.7584 5.91794 15.5136 6.08721C16.2818 6.24346 16.9133 6.48435 17.4081 6.80987C17.9029 7.14841 18.2805 7.58461 18.5409 8.11846C18.8013 8.65232 18.9315 9.27732 18.9315 9.99346C18.9315 10.4883 18.8599 10.944 18.7167 11.3607C18.5735 11.7773 18.3586 12.1484 18.0722 12.4739C17.9029 12.6692 17.7141 12.845 17.5058 13.0013C17.2974 13.1575 17.0696 13.2877 16.8222 13.3919ZM15.6698 11.8489C15.8912 11.6927 16.0539 11.4778 16.1581 11.2044C16.2753 10.9179 16.3339 10.5729 16.3339 10.1692C16.3339 9.81768 16.2688 9.5182 16.1386 9.27081C16.0214 9.01039 15.8391 8.80206 15.5917 8.64581C15.3183 8.47654 14.9537 8.35284 14.498 8.27471C14.0422 8.18357 13.5018 8.138 12.8768 8.138H10.6503V12.3567H13.1893C13.7753 12.3567 14.2701 12.3177 14.6737 12.2396C15.0904 12.1484 15.4224 12.0182 15.6698 11.8489ZM10.6503 14.6223V19.5638H13.4433C14.0162 19.5638 14.511 19.5117 14.9276 19.4075C15.3573 19.3033 15.7154 19.1471 16.0019 18.9388C16.2623 18.7304 16.4576 18.47 16.5878 18.1575C16.718 17.832 16.7831 17.4479 16.7831 17.0052C16.7831 16.5885 16.718 16.2369 16.5878 15.9505C16.4576 15.651 16.2558 15.4101 15.9823 15.2278C15.6959 15.0325 15.3248 14.8828 14.8691 14.7786C14.4263 14.6744 13.9055 14.6223 13.3065 14.6223H10.6503Z" fill="#1E2B45"/>
<path  id="path-italic" d="M47.8735 7.63329H44.0063L41.6039 20.3287H45.4712V21.9888H35.8813V20.3287H39.7485L42.1508 7.63329H38.2836V5.97314H47.8735V7.63329Z" fill="#1E2B45"/>
<path  id="path-underline" d="M62.1996 20.2452V21.8858H78.2152V20.2452H62.1996ZM70.0707 17.8623C70.4743 17.8623 70.8324 17.8103 71.1449 17.7061C71.4704 17.5889 71.7504 17.4196 71.9847 17.1983C72.2061 16.9769 72.3754 16.7035 72.4926 16.378C72.6097 16.0524 72.6683 15.6618 72.6683 15.2061V5.90918H74.7777V15.2061C74.7777 15.8571 74.6735 16.4301 74.4652 16.9248C74.2569 17.4196 73.9379 17.8428 73.5082 18.1944C73.0785 18.5459 72.5772 18.8129 72.0043 18.9952C71.4314 19.1774 70.7868 19.2686 70.0707 19.2686C69.3545 19.2686 68.7035 19.1774 68.1175 18.9952C67.5316 18.8129 67.0238 18.5459 66.5941 18.1944C66.1644 17.8428 65.8389 17.4196 65.6175 16.9248C65.4092 16.417 65.305 15.8441 65.305 15.2061V5.90918H67.4144V15.2061C67.4144 15.6488 67.473 16.0394 67.5902 16.378C67.7204 16.7035 67.9027 16.9769 68.1371 17.1983C68.3714 17.4196 68.6514 17.5889 68.9769 17.7061C69.3024 17.8103 69.667 17.8623 70.0707 17.8623Z" fill="#1E2B45"/>
<path  id="path-removeformat" d="M119.873 5.98047L119.279 8.73047H124.162L121.324 22.0195H124.625L127.463 8.73047H132.127L132.721 5.98047H119.873ZM135.141 21.7832L133.377 23.5352L131.623 21.7969L131.035 22.3848L132.787 24.1367L131.023 25.9004L131.623 26.4883L133.377 24.7363L135.141 26.5L135.74 25.9004L133.977 24.1367L135.729 22.3848L135.141 21.7832ZM116 24V25H130V24H116Z" fill="#1E2B45"/>
<path  id="path-forecolor" d="M157.058 17.201L158.708 22.019H160.996L155.364 5.98099H152.724L147.004 22.019H149.182L150.876 17.201H157.058ZM156.486 15.485H151.382L154.022 8.18099L156.486 15.485Z" fill="#1E2B45"/>
<path  id="path-forecolor-pulldown" d="M171 12L174.496 16L178 12H171Z" fill="#787878"/>
<path  id="rect3108" d="M185.5 4.5H204.5V23.5H185.5V4.5Z" fill="#E0E0E0" stroke="#1E2B45"/>
<path  id="path4254" d="M198.058 17.201L199.708 22.019H201.996L196.364 5.98099H193.724L188.004 22.019H190.182L191.876 17.201H198.058ZM197.486 15.485H192.382L195.022 8.18099L197.486 15.485Z" fill="#1E2B45"/>
<path  id="path-backcolor-pulldown" d="M212 12L215.496 16L219 12H212Z" fill="#787878"/>
<path  id="path-superscript" d="M245 5.93164C244.224 5.93164 243.175 6.18839 243.127 7.90039H243.832C243.864 7.37239 244.001 6.54883 244.977 6.54883C245.617 6.54883 246.096 7.00528 246.096 7.61328C246.096 8.06128 245.832 8.44442 245.328 8.73242L244.592 9.14844C243.408 9.82044 243.064 10.3555 243 11.6035H246.775V10.9082H243.791C243.863 10.4442 244.104 10.1242 244.816 9.74023L245.615 9.30859C246.407 8.87659 246.816 8.2917 246.816 7.5957C246.816 6.6117 246.072 5.93164 245 5.93164ZM231.203 8.23633L235.055 13.8906L230.984 19.7637H233.074L236 15.3418L238.883 19.7637H241.016L237.033 13.8027L240.906 8.23633H238.838L236.066 12.416L233.295 8.23633H231.203Z" fill="#1E2B45"/>
<path  id="path-subscript" d="M259.203 8.23633L263.055 13.8906L258.984 19.7637H261.074L264 15.3418L266.883 19.7637H269.016L265.033 13.8027L268.906 8.23633H266.838L264.066 12.416L261.295 8.23633H259.203ZM273 16.4629C272.224 16.4629 271.177 16.7177 271.129 18.4297H271.832C271.864 17.9017 272.001 17.0781 272.977 17.0781C273.617 17.0781 274.096 17.5346 274.096 18.1426C274.096 18.5906 273.832 18.9737 273.328 19.2617L272.592 19.6777C271.408 20.3497 271.064 20.8868 271 22.1348H274.775V21.4395H271.793C271.865 20.9755 272.104 20.6555 272.816 20.2715L273.615 19.8379C274.407 19.4059 274.816 18.823 274.816 18.127C274.816 17.143 274.072 16.4629 273 16.4629Z" fill="#1E2B45"/>
<path  id="path-justifyleft" d="M283 7V9H301V7H283ZM283 10V12H295V10H283ZM283 13V15H299V13H283ZM283 16V18H295V16H283ZM283 19V21H301V19H283Z" fill="#1E2B45"/>
<path  id="path-justifycenter" d="M311 7V9H329V7H311ZM314 10V12H326V10H314ZM312 13V15H328V13H312ZM314 16V18H326V16H314ZM311 19V21H329V19H311Z" fill="#1E2B45"/>
<path  id="path-justifyright" d="M339 7V9H357V7H339ZM345 10V12H357V10H345ZM341 13V15H357V13H341ZM345 16V18H357V16H345ZM339 19V21H357V19H339Z" fill="#1E2B45"/>
<path  id="path-justifyfull" d="M367 7V9H385V7H367ZM367 10V12H385V10H367ZM367 13V15H385V13H367ZM367 16V18H385V16H367ZM367 19V21H385V19H367Z" fill="#1E2B45"/>
<path  id="path-indent" d="M395 7V9H413V7H395ZM401 10V12H413V10H401ZM395 10.5V17.5L399 14.0039L395 10.5ZM401 13V15H413V13H401ZM401 16V18H413V16H401ZM395 19V21H413V19H395Z" fill="#1E2B45"/>
<path  id="path-outdent" d="M423 7V9H441V7H423ZM429 10V12H441V10H429ZM427 10.5L423 14.0039L427 17.5V10.5ZM429 13V15H441V13H429ZM429 16V18H441V16H429ZM423 19V21H441V19H423Z" fill="#1E2B45"/>
<path  id="path-insertunorderedlist" d="M495.402 7.14398C495.572 7.14398 495.715 7.20258 495.832 7.31976C495.949 7.43695 496.008 7.57367 496.008 7.72992C496.008 7.89919 495.949 8.04242 495.832 8.15961C495.715 8.27679 495.572 8.33539 495.402 8.33539H485.383C485.227 8.33539 485.09 8.27679 484.973 8.15961C484.855 8.04242 484.797 7.89919 484.797 7.72992C484.797 7.57367 484.855 7.43695 484.973 7.31976C485.09 7.20258 485.227 7.14398 485.383 7.14398H495.402ZM495.402 13.5112C495.572 13.5112 495.715 13.5698 495.832 13.6869C495.949 13.8041 496.008 13.9474 496.008 14.1167C496.008 14.2859 495.949 14.4292 495.832 14.5464C495.715 14.6635 495.572 14.7221 495.402 14.7221H485.383C485.227 14.7221 485.09 14.6635 484.973 14.5464C484.855 14.4292 484.797 14.2859 484.797 14.1167C484.797 13.9474 484.855 13.8041 484.973 13.6869C485.09 13.5698 485.227 13.5112 485.383 13.5112H495.402ZM495.402 19.9174C495.572 19.9174 495.715 19.976 495.832 20.0932C495.949 20.2104 496.008 20.3536 496.008 20.5229C496.008 20.6922 495.949 20.8354 495.832 20.9526C495.715 21.0698 495.572 21.1284 495.402 21.1284H485.383C485.227 21.1284 485.09 21.0698 484.973 20.9526C484.855 20.8354 484.797 20.6922 484.797 20.5229C484.797 20.3536 484.855 20.2104 484.973 20.0932C485.09 19.976 485.227 19.9174 485.383 19.9174H495.402ZM482.805 6.12836C482.909 6.12836 483 6.16742 483.078 6.24555C483.156 6.32367 483.195 6.42133 483.195 6.53851V8.94086C483.195 9.04502 483.156 9.13617 483.078 9.21429C483 9.29242 482.909 9.33148 482.805 9.33148H480.402C480.285 9.33148 480.187 9.29242 480.109 9.21429C480.031 9.13617 479.992 9.04502 479.992 8.94086V6.53851C479.992 6.42133 480.031 6.32367 480.109 6.24555C480.187 6.16742 480.285 6.12836 480.402 6.12836H482.805ZM482.805 12.5151C482.909 12.5151 483 12.5541 483.078 12.6323C483.156 12.7104 483.195 12.808 483.195 12.9252V15.3276C483.195 15.4318 483.156 15.5229 483.078 15.601C483 15.6792 482.909 15.7182 482.805 15.7182H480.402C480.285 15.7182 480.187 15.6792 480.109 15.601C480.031 15.5229 479.992 15.4318 479.992 15.3276V12.9252C479.992 12.808 480.031 12.7104 480.109 12.6323C480.187 12.5541 480.285 12.5151 480.402 12.5151H482.805ZM482.805 18.9409C482.909 18.9409 483 18.98 483.078 19.0581C483.156 19.1362 483.195 19.2273 483.195 19.3315V21.7339C483.195 21.851 483.156 21.9487 483.078 22.0268C483 22.105 482.909 22.144 482.805 22.144H480.402C480.285 22.144 480.187 22.105 480.109 22.0268C480.031 21.9487 479.992 21.851 479.992 21.7339V19.3315C479.992 19.2273 480.031 19.1362 480.109 19.0581C480.187 18.98 480.285 18.9409 480.402 18.9409H482.805Z" fill="#1E2B45"/>
<path  id="path-inserthorizontalrule" d="M507 13H525V15H507V13Z" fill="#1E2B45"/>
<path  id="rect4370" d="M534 6.5H554V21.5H534V6.5Z" fill="#E0E0E0" stroke="#1E2B45"/>
<path  id="path3937-7-7-3-8" d="M540 8.5L535.5 19.5C541.462 19.5 546.422 19.5 552.5 19.5L547 13.5L543.562 17.25L540 8.5Z" fill="#3C3C3C"/>
<path  id="path4428" d="M552.5 10.5C552.5 11.6046 551.605 12.5 550.5 12.5C549.395 12.5 548.5 11.6046 548.5 10.5C548.5 9.3954 549.395 8.5 550.5 8.5C551.605 8.5 552.5 9.3954 552.5 10.5Z" fill="#3C3C3C"/>
<path  id="path-insertimage-pulldown" d="M561 12.0001L564.496 16.0001L568 12.0001H561Z" fill="#787878"/>
<path  id="path-createlink-pulldown" d="M602 12L605.496 16L609 12H602Z" fill="#787878"/>
<path  id="path-source" d="M711.264 8.75781L707.947 19.2422H708.717L712.035 8.75781H711.264ZM707.359 12.3262L700.512 15.2246V16.1914L707.359 19.0898V17.9824L701.842 15.6875L707.359 13.4336V12.3262ZM712.641 12.3262V13.4336L718.158 15.7285L712.641 17.9824V19.0898L719.486 16.1914V15.2246L712.641 12.3262Z" fill="#1E2B45"/>
<path  id="path-redo" d="M686.254 9.1015L691.152 13.7422L686.254 18.2969V16.1484H675.512C674.595 16.1484 674.137 16.7213 674.137 17.8672V18.8984H672.848V13.6562C672.848 12.0521 673.65 11.25 675.254 11.25H686.254V9.1015Z" fill="#1E2B45"/>
<path  id="path-undo" d="M649.746 9.1015L644.848 13.7422L649.746 18.2968V16.1484H660.488C661.405 16.1484 661.863 16.7213 661.863 17.8672V18.8984H663.152V13.6562C663.152 12.0521 662.35 11.25 660.746 11.25H649.746V9.1015Z" fill="#1E2B45"/>
<path  id="path-strikethrough" d="M97.875 5.59375C94.355 5.59375 92.1875 7.4085 92.1875 10.3125C92.1875 11.2006 92.4142 11.9065 92.8438 12.5H97.2188L96.875 12.4062C94.939 11.8783 94.2188 11.2632 94.2188 10.0312C94.2188 8.40325 95.6565 7.3125 97.8125 7.3125C100.365 7.3125 101.791 8.4725 101.812 10.5625H103.75C103.728 7.4165 101.571 5.59375 97.875 5.59375ZM91 13.5V14.5H97.0781L99.3125 15.0938C101.336 15.6217 102.25 16.4335 102.25 17.6875C102.25 18.8315 101.632 20.5938 98.1562 20.5938C94.5263 20.5938 93.625 18.5343 93.625 16.9062V16.7812H91.6875C91.7535 21.3352 95.2593 22.4062 98.0312 22.4062C103.047 22.4062 104.312 19.458 104.312 17.5C104.312 16.2702 103.832 15.2441 102.949 14.5H105V13.5H101H93.9375H91Z" fill="#1E2B45"/>
<path  id="rect4023" d="M592.623 5.36001C591.92 4.65641 590.808 4.65641 590.104 5.36001L585.552 9.91201C584.849 10.6157 584.849 11.7275 585.552 12.4311L586.569 13.4476C587.273 14.1512 588.384 14.1512 589.088 13.4476L593.64 8.89561C594.344 8.19191 594.344 7.08011 593.64 6.37651L592.623 5.36001ZM583.431 14.5524C582.727 13.8488 581.616 13.8488 580.912 14.5524L576.36 19.1044C575.656 19.8081 575.656 20.9198 576.36 21.6235L577.377 22.6399C578.08 23.3436 579.192 23.3436 579.896 22.6399L584.448 18.0879C585.151 17.3843 585.151 16.2725 584.448 15.5689L583.431 14.5524Z" stroke="#1E2B45"/>
<path  id="rect4061" d="M588.975 9.6809L589.319 10.0249C589.616 10.3213 589.616 10.7986 589.319 11.0951L582.095 18.3191C581.799 18.6155 581.321 18.6155 581.025 18.319L580.681 17.975C580.385 17.6786 580.384 17.2013 580.681 16.9048L587.905 9.6809C588.201 9.3844 588.679 9.3844 588.975 9.6809Z" fill="#1E2B45"/>
<path  id="rect4023-8" d="M633.623 5.36C632.92 4.6564 631.808 4.6563 631.104 5.3601L626.552 9.9121C625.849 10.6157 625.849 11.7275 626.552 12.4311L627.569 13.4476C628.273 14.1512 629.384 14.1512 630.088 13.4476L634.64 8.8956C635.344 8.1919 635.344 7.0801 634.64 6.3765L633.623 5.36ZM624.431 14.5524C623.727 13.8488 622.616 13.8487 621.912 14.5524L617.36 19.1044C616.656 19.8081 616.656 20.9198 617.36 21.6235L618.377 22.6399C619.08 23.3436 620.192 23.3436 620.896 22.64L625.447 18.088C626.151 17.3843 626.151 16.2725 625.448 15.5689L624.431 14.5524Z" stroke="#1E2B45"/>
<path  id="rect4061-0" d="M629.968 9.66741C629.671 9.37101 629.203 9.37091 628.907 9.66741L625.637 12.9378L627.051 14.352L630.321 11.0816C630.618 10.7851 630.618 10.3174 630.321 10.021L629.968 9.66741ZM624.929 13.6449L621.681 16.8932C621.385 17.1896 621.385 17.6574 621.681 17.9538L622.035 18.3074C622.331 18.6038 622.799 18.6038 623.095 18.3074L626.344 15.0591L624.929 13.6449Z" fill="#1E2B45"/>
<path  id="path4333" d="M635.068 18.9517L633.304 20.7037L631.552 18.9637L630.964 19.5517L632.716 21.3037L630.952 23.0677L631.552 23.6557L633.304 21.9037L635.068 23.6677L635.668 23.0677L633.904 21.3037L635.656 19.5517L635.068 18.9517Z" fill="#1E2B45"/>
<path  id="path-bold-disabled" d="M16.8222 41.3919C17.6815 41.7044 18.3326 42.1731 18.7753 42.7981C19.218 43.4231 19.4394 44.1979 19.4394 45.1223C19.4394 45.8645 19.3092 46.5286 19.0487 47.1145C18.8013 47.6875 18.4237 48.1822 17.9159 48.5989C17.4211 49.0156 16.8287 49.3281 16.1386 49.5364C15.4615 49.7447 14.6868 49.8489 13.8144 49.8489H8.11122V33.8333H12.7987C13.8534 33.8333 14.7584 33.9179 15.5136 34.0872C16.2818 34.2435 16.9133 34.4844 17.4081 34.8099C17.9029 35.1484 18.2805 35.5846 18.5409 36.1185C18.8013 36.6523 18.9315 37.2773 18.9315 37.9935C18.9315 38.4883 18.8599 38.944 18.7167 39.3607C18.5735 39.7773 18.3586 40.1484 18.0722 40.4739C17.9029 40.6692 17.7141 40.845 17.5058 41.0013C17.2974 41.1575 17.0696 41.2877 16.8222 41.3919ZM15.6698 39.8489C15.8912 39.6927 16.0539 39.4778 16.1581 39.2044C16.2753 38.9179 16.3339 38.5729 16.3339 38.1692C16.3339 37.8177 16.2688 37.5182 16.1386 37.2708C16.0214 37.0104 15.8391 36.8021 15.5917 36.6458C15.3183 36.4765 14.9537 36.3528 14.498 36.2747C14.0422 36.1836 13.5018 36.138 12.8768 36.138H10.6503V40.3567H13.1893C13.7753 40.3567 14.2701 40.3177 14.6737 40.2396C15.0904 40.1484 15.4224 40.0182 15.6698 39.8489ZM10.6503 42.6223V47.5638H13.4433C14.0162 47.5638 14.511 47.5117 14.9276 47.4075C15.3573 47.3033 15.7154 47.1471 16.0019 46.9388C16.2623 46.7304 16.4576 46.47 16.5878 46.1575C16.718 45.832 16.7831 45.4479 16.7831 45.0052C16.7831 44.5885 16.718 44.2369 16.5878 43.9505C16.4576 43.651 16.2558 43.4101 15.9823 43.2278C15.6959 43.0325 15.3248 42.8828 14.8691 42.7786C14.4263 42.6744 13.9055 42.6223 13.3065 42.6223H10.6503Z" fill="#8A909D"/>
<path  id="path-italic-disabled" d="M47.8735 35.6333H44.0063L41.6039 48.3287H45.4712V49.9888H35.8813V48.3287H39.7485L42.1508 35.6333H38.2836V33.9731H47.8735V35.6333Z" fill="#8A909D"/>
<path  id="path-underline-disabled" d="M62.1996 49.2452V50.8858H78.2152V49.2452H62.1996ZM70.0707 46.8623C70.4743 46.8623 70.8324 46.8103 71.1449 46.7061C71.4704 46.5889 71.7504 46.4196 71.9847 46.1983C72.2061 45.9769 72.3754 45.7035 72.4926 45.378C72.6097 45.0524 72.6683 44.6618 72.6683 44.2061V34.9092H74.7777V44.2061C74.7777 44.8571 74.6735 45.4301 74.4652 45.9248C74.2569 46.4196 73.9379 46.8428 73.5082 47.1944C73.0785 47.5459 72.5772 47.8129 72.0043 47.9952C71.4314 48.1774 70.7868 48.2686 70.0707 48.2686C69.3545 48.2686 68.7035 48.1774 68.1175 47.9952C67.5316 47.8129 67.0238 47.5459 66.5941 47.1944C66.1644 46.8428 65.8389 46.4196 65.6175 45.9248C65.4092 45.417 65.305 44.8441 65.305 44.2061V34.9092H67.4144V44.2061C67.4144 44.6488 67.473 45.0394 67.5902 45.378C67.7204 45.7035 67.9027 45.9769 68.1371 46.1983C68.3714 46.4196 68.6514 46.5889 68.9769 46.7061C69.3024 46.8103 69.667 46.8623 70.0707 46.8623Z" fill="#8A909D"/>
<path  id="path-removeformat-disabled" opacity="0.5" d="M119.873 33.9805L119.279 36.7305H124.162L121.324 50.0195H124.625L127.463 36.7305H132.127L132.721 33.9805H119.873ZM135.141 49.7832L133.377 51.5352L131.623 49.7969L131.035 50.3848L132.787 52.1367L131.023 53.9004L131.623 54.4883L133.377 52.7363L135.141 54.5L135.74 53.9004L133.977 52.1367L135.729 50.3848L135.141 49.7832ZM116 52V53H130V52H116Z" fill="#1E2B45"/>
<path  id="path-forecolor-disabled" opacity="0.5" d="M157.058 45.201L158.708 50.019H160.996L155.364 33.981H152.724L147.004 50.019H149.182L150.876 45.201H157.058ZM156.486 43.485H151.382L154.022 36.181L156.486 43.485Z" fill="#1E2B45"/>
<path  id="path-forecolor-disabled-pulldown" d="M171 40L174.496 44L178 40H171Z" fill="#787878"/>
<path  id="rect3108-2" opacity="0.5" d="M185.5 32.5H204.5V51.5H185.5V32.5Z" fill="#E0E0E0" stroke="#1E2B45"/>
<path  id="path4254-1" opacity="0.5" d="M198.058 45.201L199.708 50.019H201.996L196.364 33.981H193.724L188.004 50.019H190.182L191.876 45.201H198.058ZM197.486 43.485H192.382L195.022 36.181L197.486 43.485Z" fill="#1E2B45"/>
<path  id="path-backcolor-disabled-pulldown" d="M212 40L215.496 44L219 40H212Z" fill="#787878"/>
<path  id="path-superscript-disabled" opacity="0.5" d="M245 33.9316C244.224 33.9316 243.175 34.1884 243.127 35.9004H243.832C243.864 35.3724 244.001 34.5488 244.977 34.5488C245.617 34.5488 246.096 35.0053 246.096 35.6133C246.096 36.0613 245.832 36.4444 245.328 36.7324L244.592 37.1484C243.408 37.8204 243.064 38.3555 243 39.6035H246.775V38.9082H243.791C243.863 38.4442 244.104 38.1242 244.816 37.7402L245.615 37.3086C246.407 36.8766 246.816 36.2917 246.816 35.5957C246.816 34.6117 246.072 33.9316 245 33.9316ZM231.203 36.2363L235.055 41.8906L230.984 47.7637H233.074L236 43.3418L238.883 47.7637H241.016L237.033 41.8027L240.906 36.2363H238.838L236.066 40.416L233.295 36.2363H231.203Z" fill="#1E2B45"/>
<path  id="path-subscript-disabled" opacity="0.5" d="M259.203 36.2363L263.055 41.8906L258.984 47.7637H261.074L264 43.3418L266.883 47.7637H269.016L265.033 41.8027L268.906 36.2363H266.838L264.066 40.416L261.295 36.2363H259.203ZM273 44.4629C272.224 44.4629 271.177 44.7177 271.129 46.4297H271.832C271.864 45.9017 272.001 45.0781 272.977 45.0781C273.617 45.0781 274.096 45.5346 274.096 46.1426C274.096 46.5906 273.832 46.9737 273.328 47.2617L272.592 47.6777C271.408 48.3497 271.064 48.8868 271 50.1348H274.775V49.4395H271.793C271.865 48.9755 272.104 48.6555 272.816 48.2715L273.615 47.8379C274.407 47.4059 274.816 46.823 274.816 46.127C274.816 45.143 274.072 44.4629 273 44.4629Z" fill="#1E2B45"/>
<path  id="path-justifyleft-disabled" opacity="0.5" d="M283 35V37H301V35H283ZM283 38V40H295V38H283ZM283 41V43H299V41H283ZM283 44V46H295V44H283ZM283 47V49H301V47H283Z" fill="#1E2B45"/>
<path  id="path-justifycenter-disabled" opacity="0.5" d="M311 35V37H329V35H311ZM314 38V40H326V38H314ZM312 41V43H328V41H312ZM314 44V46H326V44H314ZM311 47V49H329V47H311Z" fill="#1E2B45"/>
<path  id="path-justifyright-disabled" opacity="0.5" d="M339 35V37H357V35H339ZM345 38V40H357V38H345ZM341 41V43H357V41H341ZM345 44V46H357V44H345ZM339 47V49H357V47H339Z" fill="#1E2B45"/>
<path  id="path-justifyboth-disabled" opacity="0.5" d="M367 35V37H385V35H367ZM367 38V40H385V38H367ZM367 41V43H385V41H367ZM367 44V46H385V44H367ZM367 47V49H385V47H367Z" fill="#1E2B45"/>
<path  id="path-indent-disabled" opacity="0.5" d="M395 35V37H413V35H395ZM401 38V40H413V38H401ZM395 38.5V45.5L399 42.0039L395 38.5ZM401 41V43H413V41H401ZM401 44V46H413V44H401ZM395 47V49H413V47H395Z" fill="#1E2B45"/>
<path  id="rect3022-8-5-5-0-4-6" opacity="0.5" d="M423 35V37H441V35H423ZM429 38V40H441V38H429ZM427 38.5L423 42.0039L427 45.5V38.5ZM429 41V43H441V41H429ZM429 44V46H441V44H429ZM423 47V49H441V47H423Z" fill="#1E2B45"/>
<path  id="path-insertunorderedlist-disabled" d="M495.402 35.144C495.572 35.144 495.715 35.2026 495.832 35.3198C495.949 35.4369 496.008 35.5737 496.008 35.7299C496.008 35.8992 495.949 36.0424 495.832 36.1596C495.715 36.2768 495.572 36.3354 495.402 36.3354H485.383C485.227 36.3354 485.09 36.2768 484.973 36.1596C484.855 36.0424 484.797 35.8992 484.797 35.7299C484.797 35.5737 484.855 35.4369 484.973 35.3198C485.09 35.2026 485.227 35.144 485.383 35.144H495.402ZM495.402 41.5112C495.572 41.5112 495.715 41.5698 495.832 41.6869C495.949 41.8041 496.008 41.9474 496.008 42.1167C496.008 42.2859 495.949 42.4292 495.832 42.5464C495.715 42.6635 495.572 42.7221 495.402 42.7221H485.383C485.227 42.7221 485.09 42.6635 484.973 42.5464C484.855 42.4292 484.797 42.2859 484.797 42.1167C484.797 41.9474 484.855 41.8041 484.973 41.6869C485.09 41.5698 485.227 41.5112 485.383 41.5112H495.402ZM495.402 47.9174C495.572 47.9174 495.715 47.976 495.832 48.0932C495.949 48.2104 496.008 48.3536 496.008 48.5229C496.008 48.6922 495.949 48.8354 495.832 48.9526C495.715 49.0698 495.572 49.1284 495.402 49.1284H485.383C485.227 49.1284 485.09 49.0698 484.973 48.9526C484.855 48.8354 484.797 48.6922 484.797 48.5229C484.797 48.3536 484.855 48.2104 484.973 48.0932C485.09 47.976 485.227 47.9174 485.383 47.9174H495.402ZM482.805 34.1284C482.909 34.1284 483 34.1674 483.078 34.2455C483.156 34.3237 483.195 34.4213 483.195 34.5385V36.9409C483.195 37.045 483.156 37.1362 483.078 37.2143C483 37.2924 482.909 37.3315 482.805 37.3315H480.402C480.285 37.3315 480.187 37.2924 480.109 37.2143C480.031 37.1362 479.992 37.045 479.992 36.9409V34.5385C479.992 34.4213 480.031 34.3237 480.109 34.2455C480.187 34.1674 480.285 34.1284 480.402 34.1284H482.805ZM482.805 40.5151C482.909 40.5151 483 40.5541 483.078 40.6323C483.156 40.7104 483.195 40.808 483.195 40.9252V43.3276C483.195 43.4318 483.156 43.5229 483.078 43.601C483 43.6792 482.909 43.7182 482.805 43.7182H480.402C480.285 43.7182 480.187 43.6792 480.109 43.601C480.031 43.5229 479.992 43.4318 479.992 43.3276V40.9252C479.992 40.808 480.031 40.7104 480.109 40.6323C480.187 40.5541 480.285 40.5151 480.402 40.5151H482.805ZM482.805 46.9409C482.909 46.9409 483 46.98 483.078 47.0581C483.156 47.1362 483.195 47.2273 483.195 47.3315V49.7339C483.195 49.851 483.156 49.9487 483.078 50.0268C483 50.105 482.909 50.144 482.805 50.144H480.402C480.285 50.144 480.187 50.105 480.109 50.0268C480.031 49.9487 479.992 49.851 479.992 49.7339V47.3315C479.992 47.2273 480.031 47.1362 480.109 47.0581C480.187 46.98 480.285 46.9409 480.402 46.9409H482.805Z" fill="#8A909D"/>
<path  id="path-inserthorizontalrule-disabled" opacity="0.5" d="M507 41H525V43H507V41Z" fill="#1E2B45"/>
<path  id="rect4370-0" opacity="0.5" d="M534 34.5H554V49.5H534V34.5Z" fill="#E0E0E0" stroke="#1E2B45"/>
<path  id="path3937-7-7-3-8-4" opacity="0.5" d="M540 36.5L535.5 47.5C541.462 47.5 546.422 47.5 552.5 47.5L547 41.5L543.562 45.25L540 36.5Z" fill="#3C3C3C"/>
<path  id="path4428-1" opacity="0.5" d="M552.5 38.5C552.5 39.6046 551.605 40.5 550.5 40.5C549.395 40.5 548.5 39.6046 548.5 38.5C548.5 37.3954 549.395 36.5 550.5 36.5C551.605 36.5 552.5 37.3954 552.5 38.5Z" fill="#3C3C3C"/>
<path  id="path-insertimage-disabled-pulldown" d="M561 40.0001L564.496 44.0001L568 40.0001H561Z" fill="#787878"/>
<path  id="path-createlink-disabled-pulldown" d="M602 40L605.496 44L609 40H602Z" fill="#787878"/>
<path  id="path-source-disabled" opacity="0.5" d="M711.264 36.7578L707.947 47.2422H708.717L712.035 36.7578H711.264ZM707.359 40.3262L700.512 43.2246V44.1914L707.359 47.0898V45.9824L701.842 43.6875L707.359 41.4336V40.3262ZM712.641 40.3262V41.4336L718.158 43.7285L712.641 45.9824V47.0898L719.486 44.1914V43.2246L712.641 40.3262Z" fill="#1E2B45"/>
<path  id="path-redo-disabled" opacity="0.5" d="M686.254 37.1015L691.152 41.7422L686.254 46.2969V44.1484H675.512C674.595 44.1484 674.137 44.7213 674.137 45.8672V46.8984H672.848V41.6562C672.848 40.0521 673.65 39.25 675.254 39.25H686.254V37.1015Z" fill="#1E2B45"/>
<path  id="path-undo-disabled" opacity="0.5" d="M649.746 37.1015L644.848 41.7422L649.746 46.2968V44.1484H660.488C661.405 44.1484 661.863 44.7213 661.863 45.8672V46.8984H663.152V41.6562C663.152 40.0521 662.35 39.25 660.746 39.25H649.746V37.1015Z" fill="#1E2B45"/>
<path  id="path-strikethrough-disabled" opacity="0.5" d="M97.875 33.5938C94.355 33.5938 92.1875 35.4085 92.1875 38.3125C92.1875 39.2006 92.4142 39.9065 92.8438 40.5H97.2188L96.875 40.4062C94.939 39.8783 94.2188 39.2632 94.2188 38.0312C94.2188 36.4032 95.6565 35.3125 97.8125 35.3125C100.365 35.3125 101.791 36.4725 101.812 38.5625H103.75C103.728 35.4165 101.571 33.5938 97.875 33.5938ZM91 41.5V42.5H97.0781L99.3125 43.0938C101.336 43.6217 102.25 44.4335 102.25 45.6875C102.25 46.8315 101.632 48.5938 98.1562 48.5938C94.5263 48.5938 93.625 46.5343 93.625 44.9062V44.7812H91.6875C91.7535 49.3352 95.2593 50.4062 98.0312 50.4062C103.047 50.4062 104.312 47.458 104.312 45.5C104.312 44.2702 103.832 43.2441 102.949 42.5H105V41.5H101H93.9375H91Z" fill="#1E2B45"/>
<path  id="rect4023-1" opacity="0.5" d="M592.623 33.36C591.92 32.6564 590.808 32.6564 590.104 33.36L585.552 37.912C584.849 38.6157 584.849 39.7275 585.552 40.4311L586.569 41.4476C587.273 42.1512 588.384 42.1512 589.088 41.4476L593.64 36.8956C594.344 36.1919 594.344 35.0801 593.64 34.3765L592.623 33.36ZM583.431 42.5524C582.727 41.8488 581.616 41.8488 580.912 42.5524L576.36 47.1044C575.656 47.8081 575.656 48.9198 576.36 49.6235L577.377 50.6399C578.08 51.3436 579.192 51.3436 579.896 50.6399L584.448 46.0879C585.151 45.3843 585.151 44.2725 584.448 43.5689L583.431 42.5524Z" stroke="#1E2B45"/>
<path  id="rect4061-1" opacity="0.5" d="M588.975 37.6809L589.319 38.0249C589.616 38.3213 589.616 38.7986 589.319 39.0951L582.095 46.3191C581.799 46.6155 581.321 46.6155 581.025 46.319L580.681 45.975C580.385 45.6786 580.384 45.2013 580.681 44.9048L587.905 37.6809C588.201 37.3844 588.679 37.3844 588.975 37.6809Z" fill="#1E2B45"/>
<path  id="rect4023-8-6" opacity="0.5" d="M633.623 33.36C632.92 32.6564 631.808 32.6563 631.104 33.3601L626.552 37.9121C625.849 38.6157 625.849 39.7275 626.552 40.4311L627.569 41.4476C628.273 42.1512 629.384 42.1512 630.088 41.4476L634.64 36.8956C635.344 36.1919 635.344 35.0801 634.64 34.3765L633.623 33.36ZM624.431 42.5524C623.727 41.8488 622.616 41.8487 621.912 42.5524L617.36 47.1044C616.656 47.8081 616.656 48.9198 617.36 49.6235L618.377 50.6399C619.08 51.3436 620.192 51.3436 620.896 50.64L625.447 46.088C626.151 45.3843 626.151 44.2725 625.448 43.5689L624.431 42.5524Z" stroke="#1E2B45"/>
<path  id="rect4061-0-4" opacity="0.5" d="M629.968 37.6674C629.671 37.371 629.203 37.3709 628.907 37.6674L625.637 40.9378L627.051 42.352L630.321 39.0816C630.618 38.7851 630.618 38.3174 630.321 38.021L629.968 37.6674ZM624.929 41.6449L621.681 44.8932C621.385 45.1896 621.385 45.6574 621.681 45.9538L622.035 46.3074C622.331 46.6038 622.799 46.6038 623.095 46.3074L626.344 43.0591L624.929 41.6449Z" fill="#1E2B45"/>
<path  id="path4333-6" opacity="0.5" d="M635.068 46.9517L633.304 48.7037L631.552 46.9637L630.964 47.5517L632.716 49.3037L630.952 51.0677L631.552 51.6557L633.304 49.9037L635.068 51.6677L635.668 51.0677L633.904 49.3037L635.656 47.5517L635.068 46.9517Z" fill="#1E2B45"/>
</svg>
